<?xml version="1.0" encoding="utf-8"?>
<!-- Generator: Adobe Illustrator 27.0.1, SVG Export Plug-In . SVG Version: 6.00 Build 0)  -->
<svg version="1.1" id="Layer_1" xmlns="http://www.w3.org/2000/svg" xmlns:xlink="http://www.w3.org/1999/xlink" x="0px" y="0px"
	 viewBox="0 0 400 125" style="enable-background:new 0 0 400 125;" xml:space="preserve">
<style type="text/css">
	.st0{fill:#286F50;}
</style>
<g>
	<path class="st0" d="M35.4,117.5c-8.4,0-15.1-1.2-20.1-3.6c-5.1-2.4-8.7-6.3-11-11.8C2.8,98.6,1.7,94.3,1,89.4
		c-0.7-5-1-10.7-1-17.3c0-9.8,0.4-18.3,1.3-25.4c0.8-7.1,2-13.2,3.6-18.2c1.6-5,3.5-9.2,5.8-12.7c3-4.6,7.9-8.2,14.6-10.9
		c6.7-2.7,16.1-4,28.4-4c9.5,0,17.2,1.1,23,3.2c5.8,2.1,10,5,12.6,8.7c2.6,3.7,3.9,7.8,3.9,12.5c0,6.9-2.2,12.5-6.6,16.8
		c-4.4,4.3-10.1,7.8-17.2,10.3v0.6c7.7,0.7,13.8,3.2,18.1,7.3c4.3,4.1,6.5,10.1,6.5,17.9c0,5.7-1.7,11-5,15.7
		c-3.3,4.8-7.8,8.9-13.4,12.4c-5.6,3.5-11.9,6.2-18.8,8.1C49.7,116.5,42.6,117.5,35.4,117.5z M45.9,89.6c3.1,0,5.9-0.5,8.3-1.4
		c2.4-0.9,4.3-2.2,5.7-3.9c1.4-1.7,2.1-3.6,2.1-5.8c0-2.7-1.2-5-3.5-6.8c-2.4-1.8-6-2.7-10.9-2.7c-3.9,0-7.1,1-9.8,2.9
		c-2.7,1.9-4,4.7-4,8.4c0,3.2,1,5.6,3,7.1C38.8,88.8,41.8,89.6,45.9,89.6z M45.9,45c4.6,0,8.4-0.9,11.3-2.8c2.9-1.9,4.4-4.4,4.4-7.7
		c0-2.4-1.2-4.4-3.5-5.9c-2.4-1.5-5.7-2.3-9.9-2.3c-3.9,0-7,0.8-9.5,2.5c-2.5,1.7-3.7,4.1-3.7,7.4c0,2.9,1,5.1,3,6.6
		C39.9,44.2,42.6,45,45.9,45z"/>
	<path class="st0" d="M117.5,124.1c-6,0-10.5-1.8-13.6-5.2c-3.1-3.5-4.7-9.8-4.7-18.9c0-4.1,0.4-8.6,1.3-13.6
		c0.8-5,2.1-10.2,3.8-15.7s3.8-11.1,6.3-16.8c2.5-5.7,5.4-11.4,8.8-17.1c4-6.7,7.9-12.1,11.7-16.2c3.8-4.1,7.8-7.1,12.1-9
		c4.2-1.9,9-2.8,14.3-2.8c6.9,0,13,2.7,18.3,8.1c5.3,5.4,9.6,13.4,12.7,23.8c1.6,5.1,2.9,10.5,3.9,16.2c1,5.7,1.8,11.4,2.4,17.2
		c0.5,5.8,0.8,11.5,0.8,17c0,10.8-1.9,18.4-5.8,23c-3.9,4.5-9.3,6.8-16.3,6.8c-5.9,0-10.5-1.6-13.9-4.7c-3.4-3.1-5.5-8.4-6.3-15.7
		c-0.4-4-0.6-8.1-0.6-12.3c0-4.2,0.2-8.3,0.6-12.1l9.9,14.9c-2.6,0.8-5.9,1.4-9.9,1.6c-4,0.2-8.1,0.1-12.3-0.3
		c-4.2-0.4-8.2-1.2-11.8-2.4l13.9-15c-0.2,5.1-0.6,10.1-1.1,15c-0.5,4.9-1.2,9.3-2,13.3c-0.8,4.5-2.1,8.3-3.9,11.4
		c-1.8,3.1-4.2,5.5-7.1,7.1C125.9,123.3,122.1,124.1,117.5,124.1z M148.8,68.3c4.7,0,8.4-1.5,11.2-4.5c2.8-3,4.2-6.9,4.2-11.7
		c0-2.1-0.2-4-0.7-5.8c-0.5-1.8-1.2-3.3-2.2-4.7c-1-1.4-2.2-2.4-3.8-3.2c-1.5-0.8-3.3-1.2-5.2-1.2c-2.3,0-4.4,0.6-6.3,1.7
		c-1.9,1.2-3.5,2.7-4.9,4.5c-1.4,1.9-2.4,4-3.1,6.3c-0.7,2.3-1.1,4.5-1.1,6.7c0,3.3,1.1,6.1,3.3,8.4
		C142.4,67.2,145.3,68.3,148.8,68.3z"/>
	<path class="st0" d="M291.3,69.9c3.1,2.1,5.4,4.6,6.7,7.5c1.4,2.9,2,6.4,2,10.3c0,5.3-1.6,10.5-4.7,15.4c-3.1,5-8,9-14.7,12.1
		c-6.7,3.1-15.4,4.7-26.2,4.7c-12.2,0-22.4-2.3-30.4-6.8c-8-4.5-14-11-17.9-19.3c-3.9-8.3-5.9-18-5.9-29.1c0-11.9,2.8-22.5,8.3-31.6
		c5.5-9.2,13.3-16.4,23.3-21.5c10-5.2,21.7-7.8,35.2-7.8c11,0,19.4,1.8,25.2,5.5c5.8,3.7,8.8,9.1,8.8,16.3c0,4.3-1.8,7.7-5.2,10.1
		c-3.5,2.5-8.6,3.7-15.4,3.7c-3.2,0-6.7-0.1-10.4-0.4c-3.7-0.3-7.1-0.4-10.3-0.4c-4.5,0-8.7,0.8-12.5,2.3c-3.9,1.5-6.9,4-9.2,7.4
		c-2.3,3.4-3.4,8-3.4,13.7c0,5.5,0.9,10.1,2.7,13.6c1.8,3.6,4.3,6.1,7.4,7.8c3.2,1.6,6.8,2.4,10.9,2.4c5.5,0,9.1-1.1,10.8-3.4
		c1.7-2.2,2.5-5.7,2.5-10.3c0-0.9,0-1.9-0.1-2.7c-0.1-0.9-0.2-1.8-0.4-2.7L291.3,69.9z M279.8,71.9c-1.7,0.1-3.2,0.2-4.5,0.3
		c-1.4,0.1-2.7,0.2-3.9,0.2c-9.8,0-16.5-1.2-20.1-3.5c-3.6-2.4-5.4-5.4-5.4-9.2c0-3.1,1.3-5.6,3.9-7.4c2.6-1.8,6-3,10.3-3.8
		c4.2-0.7,8.9-1.1,13.9-1.1c8.1,0,14.8,0.6,20.1,1.7c5.2,1.2,9.1,2.8,11.6,4.9c2.5,2.1,3.8,4.7,3.8,7.8c0,2.8-1.2,5.1-3.7,7
		c-2.5,1.8-6.5,2.9-12,3.2L279.8,71.9z"/>
	<path class="st0" d="M350,117.2c-4.6,0-9.2-0.4-13.8-1.2c-4.6-0.8-8.8-2.1-12.5-3.9c-3.8-1.8-6.8-4.3-9.1-7.4
		c-2.3-3.1-3.4-7.1-3.4-11.8c0-5.5,1.4-9.6,4.2-12.3c2.8-2.7,7.4-4,13.6-4c3.7,0,7.6,0.3,11.9,0.9c4.3,0.6,7.7,0.9,10.3,0.9
		c2.4,0,4.2-0.4,5.4-1.2c1.2-0.8,1.8-1.7,1.8-2.9c0-1.1-0.5-2-1.4-2.7c-0.9-0.6-2.4-1.2-4.4-1.7c-2-0.5-4.6-1.1-8-1.7
		c-7.3-1.4-13.2-3.2-17.7-5.6c-4.5-2.4-7.8-5.4-9.8-9.1c-2-3.7-3.1-8.2-3.1-13.6c0-5.8,1.1-10.9,3.4-15.3c2.3-4.3,5.4-8,9.2-11
		c3.8-3,8.1-5.4,12.8-7.2c4.7-1.8,9.5-3.2,14.4-4c4.9-0.8,9.6-1.3,13.9-1.3c9.8,0,17.6,1.8,23.4,5.2c5.8,3.5,8.7,8.7,8.7,15.6
		c0,5.4-1.7,9.8-5.2,13.2c-3.4,3.4-8.8,5.1-16,5.1c-2.4,0-5.2-0.1-8.3-0.3c-3.1-0.2-6.1-0.4-8.9-0.7c-2.8-0.3-5.1-0.4-6.7-0.4
		c-2.5,0-4.4,0.3-5.6,0.9c-1.2,0.6-1.8,1.4-1.8,2.6c0,0.8,0.4,1.6,1.1,2.4c0.7,0.8,2.1,1.5,4,2.3c1.9,0.7,4.7,1.5,8.2,2.4
		c8.9,2.1,15.9,4.7,21.2,7.8c5.2,3.1,9,6.7,11.2,10.7c2.2,4.1,3.4,8.7,3.4,13.9c0,7-2,13.1-5.9,18.4c-3.9,5.3-9.4,9.4-16.4,12.3
		C367.3,115.7,359.2,117.2,350,117.2z"/>
</g>
</svg>
