<?xml version="1.0" encoding="utf-8"?>
<!-- Generator: Adobe Illustrator 27.0.1, SVG Export Plug-In . SVG Version: 6.00 Build 0)  -->
<svg version="1.1" id="Layer_1" xmlns="http://www.w3.org/2000/svg" xmlns:xlink="http://www.w3.org/1999/xlink" x="0px" y="0px"
	 viewBox="0 0 400 118" style="enable-background:new 0 0 400 118;" xml:space="preserve">
<g>
	<path d="M0,114.5V89.6h2.9c8.1,0,10.6-4.3,10.6-9.8V38.2c0-5.5-2.6-9.8-10.6-9.8H0V3.5h23h32.6c17,0,35,4.8,35,25.2
		c0,13.4-5,26.2-31.6,29v0.5c23.2,0.5,36,9.4,36,28c0,19-14.4,28.3-35,28.3H23H0z M49.9,48.3c9.8,0,11.8-3.9,11.8-8.7
		c0-5.3-2.6-8.1-11-8.1h-8.4v16.8H49.9z M55.6,86.4c8.4,0,11.1-3.6,11.1-9.1c0-5.3-4.3-7.9-10.8-7.9H42.4v17H55.6z"/>
	<path d="M100.9,89.6h4.3c5.3,0,6.5-1.9,8.1-6.2L141,3.5h30l29.8,80.1c1.7,4.6,2.7,6,9.4,6h2.2v24.9h-52.8V89.6h5
		c9.4,0,8.4-3.1,5.8-10.8h-30c-2.7,8.1-2.6,10.8,5.1,10.8h6.2v24.9h-50.9V89.6z M164.1,60.3L156.9,39c-0.7-1.9-0.7-2.7-1.5-2.7
		c-1,0-1.2,1-1.7,2.7l-7,21.3H164.1z"/>
	<path d="M291.6,114.5l-4.6-8.1c-6,6.5-14.1,11.1-23.8,11.1c-30.7,0-49.1-25-49.1-57.8c0-41,25.2-59.2,47.9-59.2
		c12.2,0,20.8,4.8,24.5,9.8h0.9c0-2.2-0.2-4.8-0.9-9.1l1-0.9h21.3V44l-1.2,1.5h-22.8c-2.2-8.2-7.9-13.4-19.7-13.4
		c-16,0-22.3,13.2-22.3,27.1c0,7.9,1.4,28.3,22.8,28.3c9.3,0,16.3-5.5,18-13v-0.3l-19.9,1.4v-25h46.5v64H291.6z"/>
	<path d="M342,107.1h-1.2c0,2.6,0.2,5.5,1,9.4l-1.4,0.9h-22V72.5l1.5-1.7h20.1c1.7,9.9,7,14.9,20.6,14.9c7.5,0,10.8-1.9,10.8-5.7
		s-2.6-5.5-8.7-7l-18.5-4.5C327.4,64.4,317,55,317,34.7c0-23,16-34.3,34.5-34.3c13,0,21.1,5.7,23.7,10.5h1c0-2.1-0.3-6.5-1-9.4
		l0.9-0.9h21.4v44.9l-1.4,1.5h-18.9c-3.4-9.8-10.8-14.8-21.4-14.8c-6.3,0-9.9,1.5-9.9,5.8s2.4,5.8,11,7.5l11.5,2.4
		c21.4,4.5,31.7,16.6,31.7,34c0,23.2-16.8,35.5-33.1,35.5C351.6,117.6,344.1,111.2,342,107.1z"/>
</g>
</svg>
