<?xml version="1.0" encoding="utf-8"?>
<!-- Generator: Adobe Illustrator 27.0.1, SVG Export Plug-In . SVG Version: 6.00 Build 0)  -->
<svg version="1.1" id="Layer_1" xmlns="http://www.w3.org/2000/svg" xmlns:xlink="http://www.w3.org/1999/xlink" x="0px" y="0px"
	 viewBox="0 0 320 448" style="enable-background:new 0 0 320 448;" xml:space="preserve">
<style type="text/css">
	.st0{fill:#605431;}
	.st1{fill:#120E0B;}
	.st2{fill:#0F0B08;}
	.st3{fill:#6D716B;}
	.st4{fill:#171719;}
	.st5{fill:#191310;}
	.st6{fill:#040000;}
	.st7{fill:#030101;}
	.st8{fill:#040303;}
	.st9{fill:#030202;}
	.st10{fill:#1D1108;}
	.st11{fill:#18110D;}
	.st12{fill:#13110E;}
	.st13{fill:#51514F;}
	.st14{fill:#26231F;}
	.st15{fill:#171411;}
	.st16{fill:#2C2D2B;}
	.st17{fill:#CAC9C9;}
	.st18{fill:#25201C;}
	.st19{fill:#13100E;}
	.st20{fill:#2C2827;}
	.st21{fill:#8D8B8C;}
	.st22{fill:#282421;}
	.st23{fill:#14120E;}
	.st24{fill:#424B40;}
	.st25{fill:#1D1A16;}
	.st26{fill:#23231A;}
	.st27{fill:#27231F;}
	.st28{fill:#201E1A;}
	.st29{fill:#703707;}
	.st30{fill:#120400;}
	.st31{fill:#201D19;}
	.st32{fill:#4D504C;}
	.st33{fill:#170A07;}
	.st34{fill:#703607;}
	.st35{fill:#201812;}
	.st36{fill:#171718;}
	.st37{fill:#1F140A;}
	.st38{fill:#EECAA8;}
	.st39{fill:#040202;}
	.st40{fill:#F7F8F8;}
	.st41{fill:#F1F1F1;}
	.st42{fill:#0E0807;}
	.st43{fill:#151412;}
	.st44{fill:#222021;}
	.st45{fill:#101415;}
	.st46{fill:#969696;}
	.st47{fill:#D1D2D2;}
	.st48{fill:#484848;}
	.st49{fill:#D2D2D2;}
	.st50{fill:#F9F9F9;}
	.st51{fill:#ADADAD;}
	.st52{fill:#293133;}
	.st53{fill:#293232;}
	.st54{fill:#478CC0;}
	.st55{fill:#478CC1;}
	.st56{fill:#283232;}
	.st57{fill:#478BBE;}
	.st58{fill:#283231;}
	.st59{fill:#E0C19F;}
	.st60{fill:#E5C3A3;}
	.st61{fill:#E5C4A3;}
	.st62{fill:#4385B7;}
	.st63{fill:#DCBC9C;}
	.st64{fill:#4586B9;}
	.st65{fill:#4F443B;}
	.st66{fill:#6A5948;}
	.st67{fill:#DFBE9E;}
	.st68{fill:#251F1A;}
	.st69{fill:#E0BF9E;}
	.st70{fill:#C4A88B;}
	.st71{fill:#E3C1A2;}
	.st72{fill:#8D8C88;}
	.st73{fill:#3F78A2;}
	.st74{fill:#B29B84;}
	.st75{fill:#E1C1A0;}
	.st76{fill:#1D2120;}
	.st77{fill:#C3A58A;}
	.st78{fill:#E8C5A4;}
	.st79{fill:#9D8570;}
	.st80{fill:#39688A;}
	.st81{fill:#DCDBDB;}
	.st82{fill:#2B4254;}
	.st83{fill:#E9C6A5;}
	.st84{fill:#EFD0AB;}
	.st85{fill:#E7C5A5;}
	.st86{fill:#335B78;}
	.st87{fill:#161716;}
	.st88{fill:#8F7965;}
	.st89{fill:#050304;}
	.st90{fill:#EFEFEF;}
	.st91{fill:#080707;}
	.st92{fill:#DF1010;}
	.st93{fill:#F2F3F2;}
	.st94{fill:#060505;}
	.st95{fill:#4D4B4C;}
	.st96{fill:#959595;}
	.st97{fill:#D5D5D3;}
	.st98{fill:#EDCAA8;}
	.st99{fill:#ECC9A6;}
	.st100{fill:#EFCCA8;}
	.st101{fill:#E6C4A3;}
	.st102{fill:#C4A68D;}
	.st103{fill:#CFB395;}
	.st104{fill:#CCAD91;}
	.st105{fill:#D6B99B;}
	.st106{fill:#D7B899;}
	.st107{fill:#E7C7AC;}
	.st108{fill:#DFDFDE;}
	.st109{fill:#D2B396;}
	.st110{fill:#DBDBDB;}
	.st111{fill:#332E2B;}
	.st112{fill:#A68C76;}
	.st113{fill:#E6C3A3;}
	.st114{fill:#237C94;}
	.st115{fill:#FEFEFE;}
	.st116{fill:#5E5230;}
	.st117{fill:#080B0A;}
	.st118{fill:#D8BB9D;}
	.st119{fill:#DEBE9F;}
	.st120{fill:#BEA184;}
	.st121{fill:#EBC8A7;}
	.st122{fill:#C9AC8F;}
	.st123{fill:#D4B497;}
	.st124{fill:#C0A48A;}
	.st125{fill:#A08871;}
	.st126{fill:#0F1310;}
	.st127{fill:#CCB194;}
	.st128{fill:#52514F;}
	.st129{fill:#793A05;}
	.st130{fill:#15110E;}
	.st131{fill:#1D1713;}
	.st132{fill:#1C1612;}
	.st133{fill:#342B23;}
	.st134{fill:#DFBFA0;}
	.st135{fill:#E2C0A0;}
	.st136{fill:#F4D0AE;}
	.st137{fill:#705E4E;}
	.st138{fill:#F9D6B0;}
	.st139{fill:#F8D4AF;}
	.st140{fill:#F6D1AE;}
	.st141{fill:#EDCBA9;}
	.st142{fill:#F7D7B4;}
	.st143{fill:#F9D9B3;}
	.st144{fill:#D7B698;}
	.st145{fill:#F5D1AE;}
	.st146{fill:#F6D2AF;}
	.st147{fill:#FCD8B4;}
	.st148{fill:#F6D4AF;}
	.st149{fill:#F7D3AF;}
	.st150{fill:#F5D3B0;}
	.st151{fill:#237A90;}
	.st152{fill:#1A5D6E;}
	.st153{fill:#216F83;}
	.st154{fill:#B0AFAF;}
	.st155{fill:#E0100F;}
	.st156{fill:#2B3639;}
	.st157{fill:#4692CF;}
	.st158{fill:#F2F2F2;}
	.st159{fill:#F3F3F3;}
	.st160{fill:#F2CFAB;}
	.st161{fill:#FBD9B5;}
	.st162{fill:#FAD3AE;}
	.st163{fill:#F8D4B2;}
	.st164{fill:#F1CDAB;}
	.st165{fill:#F7D3B1;}
	.st166{fill:#763908;}
	.st167{fill:#773B09;}
	.st168{fill:#27849D;}
	.st169{fill:#24839C;}
	.st170{fill:#25839D;}
	.st171{fill:#24839B;}
	.st172{fill:#28859B;}
	.st173{fill:#212E31;}
	.st174{fill:#1F292C;}
	.st175{fill:#1E3236;}
	.st176{fill:#263C41;}
	.st177{fill:#19252A;}
	.st178{fill:#161C1F;}
	.st179{fill:#374449;}
	.st180{fill:#1C353D;}
	.st181{fill:#0D2228;}
	.st182{fill:#222F35;}
	.st183{fill:#05151A;}
	.st184{fill:#26768A;}
	.st185{fill:#F4D2AF;}
	.st186{fill:#FDD8B4;}
	.st187{fill:#FAD8B2;}
	.st188{fill:#FBD7B5;}
	.st189{fill:#3D3226;}
	.st190{fill:#21758A;}
	.st191{fill:#217085;}
	.st192{fill:#020D13;}
	.st193{fill:none;stroke:#000000;stroke-width:4;stroke-miterlimit:10;}
</style>
<g>
	<g id="ZGslOY.tif">
		<g>
			<path class="st0" d="M233.4,445.5c-3,0-6,0-9,0c-1.4-1.7-0.8-3.5-0.3-5.2c3.4-13.2,7.2-26.2,10-39.6c0.2-1.3,0.8-2.5,1.5-3.6
				c1.6-2.1,1.6-4.7,2-7.1c2.1-9.3,4.9-18.4,7.1-27.7c5.6-21.6,12.1-42.9,15.6-65c0.5-3.4,1.9-6,5.6-6.7c2.6,0.6,5.3-1.2,7.9,0.5
				c0.4,0.4,0.6,0.9,0.7,1.5c-0.1,5.7-1.2,11.3-2.9,16.8c-6.3,21.5-11.7,43.3-17.7,64.9c-4,14.6-7.7,29.2-12,43.7
				c-0.9,3-1,6.3-2.2,9.2c-1.1,2.4-1.8,4.9-2.1,7.4C236,438.2,235.6,442.2,233.4,445.5z"/>
			<path class="st1" d="M238.4,427.3c3.5-16.3,8.2-32.3,12.6-48.4c5.7-20.7,11-41.6,16.5-62.3c0.7-2.5,1.8-4.9,2.7-7.4
				c3.5,0.6,2.1,3,1.7,4.9c-0.9,3.6-2.3,7.1-3.3,10.7l0.1,0.3l-0.3,0.2c-0.7,2-0.9,4.1-1.9,6c-1.7,7.3-4.5,14.4-5,22
				c-1.5,1.8-1.3,4.1-1.9,6.2l0-0.1c-2.6,6.8-3.9,14-6.2,20.9c-1.2,1.1-0.6,2.7-1,4c-1.1,1.6,0.1,4-2,5.2c0.6,2.9-1.3,5.1-1.9,7.7
				c-1.3,5.4-2.7,10.7-4.1,16.1c-1.2,1.5,0.1,4-2,5.2c0,0.6,0,1.2,0,1.8c-0.9,2.7-1.2,5.6-2,8.3c-1.7,5.6-3.4,11.1-5.1,16.7
				c-0.7,0-1.3,0-2,0c0.4-3.9,1.3-7.5,3-11C237.2,432.1,237.8,429.7,238.4,427.3z"/>
			<path class="st2" d="M235.4,400.4c-2.7,15.3-7.8,29.9-11,45.1c-1,0-2,0-3,0c-1-2.4-4-1.3-5.2-3.2c0-1.4,1-2,1.9-2.7
				c0.8-0.6,1.7-1,2.4-1.8c1.7-2,1.6-3.5-1.3-4.3c-3-0.8-6.4-0.5-8.3-3.7c-0.2-0.7-0.2-1.4,0.1-2.1c0.3-0.4,0.7-0.6,1.2-0.7
				c2.5,0.2,4.9,1.4,7.4,1.5c0.4,0.1,0.9,0.2,1.3,0.4c1.4,0.4,2.8,1.3,3.5-0.9c2-5.5,2.6-11.4,5.2-16.7c1.8-3.8,1.3-8.5,4.2-11.9
				C234.6,399,235,399.8,235.4,400.4z"/>
			<path class="st3" d="M78.4,445.5c0-0.6-0.1-1.3-0.1-1.9c0.6-0.6,1.4-0.9,2.2-0.9c11.4,0.6,22.7,0.1,34.1,0.3
				c1.2,0,2.3,0.2,3.3,0.8c0.6,0.4,0.8,0.9,0.5,1.6C105.1,445.5,91.7,445.5,78.4,445.5z"/>
			<path class="st4" d="M201.3,443.6c-1.8-0.1-3.6,0.2-5.2-0.9c6.7-2.6,13.5-2.1,20.4-0.4c1.7,1,5.8-1.7,5,3.2c-0.3,0-0.7,0-1,0
				c-3-1.9-6.4-0.6-9.6-1C207.6,444.3,204.3,445.1,201.3,443.6z"/>
			<path class="st5" d="M172.4,445.5c-0.7,0-1.3,0-2,0c-2.8-1.1-5.8-0.2-8.7-0.5c-1.1-0.1-2.9,0.4-2.1-1.8
				c6.8-1.8,13.5-1.4,20.3-0.2c1.3,1.6,0.1,1.9-1.1,2C176.7,445.2,174.5,444.4,172.4,445.5z"/>
			<path class="st6" d="M104.3,424.4c3.4-13.7,6.6-27.4,10.3-41c2.7-9.9,0.8-19.9,2-29.8c0.1-0.9-0.2-2.2-1.4-2.4
				c-1.2-0.2-2.3,0.5-3,1.5c-2.1,2.8-4.4,5.4-7.1,7.6c-1.7,1.7-3.7,2.2-5.9,1.1c1.8-9.4,6.9-17.4,11.8-25.3
				c2.8-4.5,4.3-9.2,3.3-14.5c-1.9-2.7-1.2-4.8,1.2-6.7c1.3-1.7,2.7-3.5,4.8-4.2c2.9-0.9,2-2.8,1.6-4.7c1-4.3,3.1-8.1,5.8-11.5
				c8.1-10.3,14.7-21.3,17.8-34.2c0.8-2.6,1.1-5.2,1.7-7.8c0.1-0.5,0.2-1,0.3-1.4c0.7-1.9,0.5-4,1-5.9c0.8-2.2,0.3-4.6,0.9-6.9
				c1.2-4.1,0.3-8.1-0.1-12.1c0-0.6,0-1.3,0-1.9c-0.1,0.6,0,1.2,0,1.9c0,2.3,0.6,4.5,0.3,6.8c0,1-0.1,2.1-0.4,3.1
				c-0.6,1.7-0.7,3.4-0.7,5.2c0,0.5,0,1-0.1,1.5c-0.4,1.9-0.9,3.9-1.3,5.8c-0.8,2.6-1.4,5.2-2,7.9c-4.9,17-14.2,31.7-23.6,46.4
				c-0.7,0.4-1.4,0.6-2.2,0.5c-0.5-0.1-0.9-0.4-1.3-0.7c0.1-5.1,1.6-10.3-0.9-15.3c-0.8-1.6-1.1-3.4-2.6-4.6c-3-3.5-5.9-7-8.5-10.9
				c-4.5-4.9-8.5-9.7-16-11.4c-5.4-1.2-10.4-1.9-15.8-1.6c-1.7,0.1-4.1,0.2-4.5-2.2c-0.3-2.3,1.6-3.6,3.7-4c2.5-0.4,3.9-1.3,3.6-4.2
				c-0.3-2.7,1.5-4.3,3.6-5.6c2.4-1.5,3.7-3.7,4.4-6.4c0.7-3.3,2.1-6.3,4.6-8.6c1.8-1.7,2.1-4.1,2.8-6.3c0.6-1.7,1.4-4.3,2.4-4.7
				c5.3-2,3.5-6.6,4.7-10.3c1.1-3.3,3.4-6.1,4.2-9.7c0.5-2,1-3.8,1.1-6c0.2-3.9,4.2-3.9,7.2-4.7c2.3,1.8,2.3,1.8,0.5,4.2
				c3.9-1.9,7.4-3,11.1-3.3c8.1,0.4,16-0.8,24-1.7c4.8,1.1,8.7,3,11.1,7.8c1.3,2.5,5.2,1,7.5,2.5c3.3,1.1,4.1-1.5,5.3-3.5
				c1.8-2.6,3.6-5.2,5-8.1c1.6-2.4,3-5.2,6.8-3.4c3.5,1.4,7.1,2.8,10.6,4.1c1.5,1.2,3.9,1.2,4.3,3.7c-0.4,0.4-0.8,0.7-1.3,0.8
				c-4.1,0-7.6-2.2-11.5-3c-2.1-0.5-3.3-0.2-4.7,1.5c-4.3,4.8-6.7,11.2-12.5,14.8c-1.2,0.7-0.8,2.5-0.8,3.8
				c-0.2,10.2,0.9,20.3,1.7,30.4c0.5,6,0.1,12,0.3,18c0,2-0.3,4.1,1.8,5.4c5,2.9,10.2,5.5,15.5,7.7c1.4,0.9,3.1,1.6,3.6,3.4
				c-0.2,0.5-0.5,0.8-1,1c-4.4,0.4-7.5-2.9-11.3-4.3c-1.8-0.7-3.5-1.7-5.3-2.5c-2.2-1.2-3.4-0.8-3.4,1.9c0.1,3-0.1,6-1.4,8.8
				c-0.4,9.4-3.1,18.3-5.7,27.2c-2,6.8-4.5,13.1-11.2,17c-3.8,2.3-7.1,5.5-10.6,8.2c-1.1,0.8-2.1,1.6-3.3,2.2
				c-8.6,3.9-11.2,8.5-9.3,18.3c1,5,0.1,10.1-0.3,14.8c-1.2,13-1.8,26.3-7.1,38.5c-2.5,5.7-2.2,12.1-5.5,17.5
				c-1,1.7-0.8,3.9,1.4,5.2c1.3,0.7,3,1.6,2.7,3.2c-0.4,2-2.5,1.7-4.1,1.9C111,429.1,105.8,430.5,104.3,424.4z"/>
			<path class="st7" d="M175.1,128.7c-7-2.3-6.9-2.3-11.2,3.3c-3.8,5-9.7,7-15.6,4.2c-5.2-2.5-8.9-0.7-11.9,3.8
				c-2.8,4.2-5.7,8.2-8.6,12.3c-2.7,3.7-5.5,7.2-10,8.7c-3.2,0.5-6.4,0.4-9.7,0.1c-0.4,0-0.7-0.1-0.6,0.2c0,0.1,0.2,0.2,0.4,0.3
				c10.2,5.9,20.8,9.5,32.9,7.3c4.3-0.8,7.8-2.5,10.9-5.5c2.2-2.1,3.9-4.5,5.6-7c5.6-7.8,5.8-6.7,12.3-3.4
				c7.2,3.6,14.2,2.3,20.4-2.9"/>
			<path class="st7" d="M190,150.2c-1.5,3,12.2,1.8,14.9,1.1c11.2-2.7,22.4-0.9,33.6-0.3c6.6,0.3,13,2.8,19.7,2.5
				c0.8,0,1.6,1,2.5,1.5c-0.5,1.5-1.8,2.1-3.2,1.8c-7.7-1.5-15.6,1.7-23.5-1.7c-3.8-1.6-9.6-0.4-14.1,0.8
				c-5.9,1.5-11.5,0.8-17.1-0.9c-2.9-0.8-5.5-1-8.1,0.6c-1.9,1.1-4,1.4-6.2,1.7c-3.1,0.4-5.2,2.6-4.7,5.4c1,4.9-1.1,7.5-5.2,9.4
				c-1.1,0.5-1.6,1.6-2.4,2.4c-0.6,0.6-1.5,0.9-2.1,1.6c0.5-0.5,1.1-0.7,1.6-1.2c2.3,0.6,5.1-0.7,7,1.6c-0.8,2.9-3.2,3.6-5.7,4
				c-5.4,1.5-10.8,2.8-15.9,5.1c-0.7,0.2-1.5,0.6-2.2-0.2c0,0.8,0.6,1.2,1,1.7c0.5,0.8,1,1.6,1.4,2.5c0.3,1.6,1.3,2.4,2.8,2.8
				c1.4,0.9,3,1.6,2.4,3.7c-2.5,0.8-4.9-2.5-7.5-0.4c-0.1,0.1-1.1-0.4-1-0.6c0.6-6.2-5.6-6.2-8.5-9.1c0.3-2.6,2.6-2.7,4.3-3.4
				c6.4-2.5,12.1-6.1,16.9-11c1.4-1.5,3.3-2.6,4.2-4.8c-1.7-0.9-3.3-1.1-4.9,0c-0.5,0.5-1,0.9-1.6,1.4c-2.6,1.5-5.2,3.4-8.1,0.6
				c0.3-2.4,1.9-3.7,3.8-4.8c1.1-0.7,2.1-1.6,2.9-2.7c0.7-1,1.4-2.1,0.3-3.1c-1.3-1.2-2.7-0.4-3.4,0.7c-1.6,2.8-4,5.4-3.4,9
				c-1.4,1.6-3.4,2.4-4.8,4c-1.9,1.4-3.9,2.4-6,3.5c-10.5,3.4-21,2.7-31.5-0.1c-5.8-2-11.7-4-16.3-8.4c-1.8-1.8-3.5-3.8-4.6-6.2
				c-1.6-5.8-0.7-7.1,5-6.2c3.4,0.5,6.5-0.6,9.7-1c1.5-0.5,3-1,4.4-1.8c0.4-0.2,0.8-0.4,1.1-0.6c1.4-0.7,2.4-1.8,3.1-3.1
				c3.7-4.3,7.1-8.9,10.2-13.7c3.6-4.8,8.8-5.8,14.3-6.1c0.5,0,0.9,0.1,1.4,0.2c2.6,0.7,5.2,0.8,7.9,0.1c0.4-0.2,0.8-0.3,1.2-0.5
				c4.9-2.9,5.3-4.3,2.9-10.2c-0.7-1.1-1.6-2.2-2.5-3.2c-0.2-0.2-0.4-0.5-0.7-0.7c-1-0.9-3.1-1.4-2.3-3.2c0.9-2,2.7-0.6,4.2-0.4
				c2.5,1.1,4.9,2.3,6.7,4.4c1.3,2.7,3.2,4.1,6.4,4.5c3.4,0.4,6.7,1.7,10,2.6c2.8,0.8,5.5,0.8,8.2-0.3c0.3-0.3,0.6-0.6,0.9-1
				c0.4-8.8-2.6-16.9-5.5-25c-0.2-0.4-0.4-0.8-0.6-1.2c-0.6-1.5-1.3-2.9-2.1-4.3c-3-6.1-7.7-11-12.1-16.2c-1.6-2.4-3.9-4-6.3-5.6
				c-0.7-0.4-1.4-0.9-2.1-1.4c-0.7-0.4-1.4-0.8-2.1-1.1c-1.2-0.4-2.4,0-3.5,0.3c-1.5,0.4-2.8,1.1-4.1,1.8c-2.4,0.9-4.4,2.5-6.4,3.9
				c-8.1,2.6-15.7,6.7-24.1,8.5c-5.7,0.9-10.9,3-15.8,5.9c-0.4,0.3-0.8,0.5-1.2,0.7c-1.6,0.7-3.4,1-5,1.9c-2,1.3-4.6,1.4-6.7,2.6
				c-0.4,0.2-0.8,0.4-1.2,0.6c-3.8,1.2-7.2,3.2-10.3,5.6c-3.4,2.2-6.1,5.1-8.5,8.4c-1,1.4-2.3,2.6-3.1,4.1c-0.3,0.6-0.6,1.1-0.9,1.7
				c-0.9,1.5-2,2.8-2.3,4.6c-0.5,1.3-1.3,2.4-1.6,3.7c-0.1,0.5-0.3,0.9-0.5,1.4c-1.5,3.9-1.1,7.9-1,11.9c0.1,2.7,1.1,4.4,4.4,3.7
				c2.9-0.6,5.7-0.2,8,1.9c1.9,1.8,2.1,3.5-0.9,4.2c-1.6,0.4-3.3,0.5-4.7,1.5c-4.8,4.6-4.5,9,1,12.6c1.5,1,3.2,1.7,4.7,2.8
				c3.2,1.3,7.1,0.7,9.4,4.1c1.8,2,4,3.8,5.5,6.1c1.3,1.3,1.6,3.6,4.1,3.5c5.5,2.9,10.1,7.2,15.9,9.5c1,0.6,2,1.1,2.4,2.3
				c-0.1,0.2-0.1,0.4-0.2,0.7c-1.5,0.7-2.9,1.5-4.4,2.2c-1.6,0.8-3.4,1.5-0.8,3.3c0.3,0.2,0.6,0.7,0.6,0.7c-3.3,3.2-2.2,8.4-5,11.5
				c-1.5,1.7-2.4,2.4-1.8,4.8c0.6,2.8-1.4,5.8,0.7,9c-5-2.4-7.1-1.4-8.1,4.1c-0.6,3.1-1.1,5.8-4,7.9c-1.8,1.3-3.4,3.5-3.2,6.4
				c0.2,3.5-1.6,6.1-4.8,7.4c-2.8,1.2-3.9,3.2-2.8,6c1.3,3.3-0.4,3.8-3,3.7c-1.2,0-2.4-0.1-3.3,0.7c-0.7,0.6-1.7,1.2-1.4,2.4
				c0.3,1,1.3,0.9,2.1,0.9c2.6-0.1,5.2,0.1,7.9-0.6c2.4-0.6,4.7-1.2,7,1.6c2,2.3,6.2,1,9.3,2.7c4.6,2.5,7.3,6.5,10.1,10.5
				c-5.8-0.4-9.9-5-15.2-6.7c-1.7-1.6-3.9-2.1-5.9-2.9c-5.6-1.9-11.4-1-17.2-1.3c-1.3-0.1-2.8-0.1-3.5-1.4c-0.9-1.6,1.1-2.1,1.7-3.1
				c3.3-3.7,6.7-7.4,9.9-11.2c10.8-13.4,17.3-29,24.2-44.5c0.4-0.9,0.6-1.9,0.9-2.9c1.9-5.9,2.5-10.9-4.6-14.5
				c-4.7-2.4-8-7.3-11.3-11.6c-0.8-1.5-1.9-2.8-3.1-4c-6.2-0.2-12.4-0.1-17.1-5.1c-0.6-0.6-2-1.1-2.7-0.9c-6.3,1.9-12.1-1.3-18.1-2
				c-7.6-0.9-16.2-12.3-15.8-20.4c0.5-10.8,2.6-21.3,7.5-31.1c0.9-1.8,0.2-2.9-0.8-4c-5-6-10.5-11.5-16.9-16.1
				c-2.1-1.5-3.3-3.1-3.4-5.7c-0.2-4-0.3-8.1,1-11.9c6.8-18.8,16.8-35.1,33.4-47.3c10.9-8,22.2-14.4,35.2-18.1
				c8.1-2.3,16.2-3.8,23.9,1.4c1.8,1.2,3.6,2.4,4.8,4.4c7.9,13.5,19,24.3,29,36.1c3.2,3.7,5.6,3.2,8.5,0.1c4-4.2,8.2-8.3,12.2-12.5
				c2.9-3,6.3-4.9,10.4-5.4c4.8-0.6,9.7,3,10.1,7.6c0.9,11.2-0.4,21.7-10.3,29c-1.2,0.9-2.3,1.8-0.5,3.5
				c14.4,13.5,21.1,30.6,22.9,49.9C196.4,118.8,196.2,137.7,190,150.2z"/>
			<path class="st6" d="M182.4,176.2c-2.4,0.2-5,1.4-7-1c-0.1-2.7,1.1-4.2,3.8-5c3.1-0.9,4.5-2.7,3.2-6.3c-1.5-3.9,1.7-7.9,6-7.8
				c1.8,0.1,3.6-0.1,4.7-1.1c4-3.4,7.8-1.5,12-0.6c4.5,0.9,9.1,2.2,14,0.3c4.5-1.8,9.8,0.6,14.5-2c1.3-0.7,2.5,2.3,4.6,2.5
				c3.7,0.4,7.5,1.8,11.2,0c3.8-1.9,7.6,2.2,11.3-0.1c6.7,1.7,13.7,2.4,19.7,6.2c1.7,1.1,3.7,1.4,5.7,1.7c11,1.9,31.5,16.1,32.5,32
				c0.2,5.9,0.6,11.7-0.1,17.7c-0.8,6.5-2.1,12.6-4.6,18.6c-1.5,3.5-3.8,6.6-6,9.5c-2.3,3-4.8,5.8-6.8,9.2c-2.1,3.6-3.8,3.7-6.9,1.2
				c-0.1-1.4,1.1-2.5,1-3.9c0-0.7,0-1.3-0.1-2c-0.4-4.1-2.9-7.1-5.5-10c-8.2-10.1-19.1-12.7-31.4-11.6c-1.9,0.2-3,1.3-3.6,2.9
				c-1,1.7-0.5,3.9-1.5,5.6c-0.5,0.6-1.1,0.9-1.8,1.1c-1.5,0.5-4-0.4-3.9,2.6c0,0.7-0.1,1.4-0.4,2.1c-4.2,4.8-6.9,4.7-9.6-0.7
				c-6-11.7-13.9-22-21.9-32.4c-3.8-5-9.7-8.4-11.4-15c-0.5,0.5-0.9,1.2-1.7,1.4c-2.1,0.1-3.9-0.1-3.8-2.8l0,0c1-1.1,2.6-1.8,2-3.8
				c-1.1-2.4-4.8-4.5-2.6-7.3c2.1-2.6,4.8,0.3,7.1,1.2c5.7,2.1,11.1,5,16.7,7.3c1,0.4,1.6,1.2,2,2.1c3,7.9,10.5,7.4,16.8,9.1
				c1.6,0.4,3.3,0.2,4.9,0.6c2.6,0.9,5.5,0.2,7.9,1.7c2.6,1.5,4.6,1.2,5.8-1.8c0.7-1.6,1.8-3.1,3-4.4c3.2-3.6,7.9-4.7,12-6.7
				c5.1-3.1,9.5,0.4,14.1,1.5c1.9,0.5,1.3,2,0.1,3c-1.8,1.5-4,1.3-6.1,1.1c-2.2-0.1-4.4-0.3-6.6,0.4c-0.9,0.2-1.8,0.3-2.8,0.4
				c-2.7-0.2-4.4,1.6-6,3.4c-0.8,0.8-1.6,1.6-2.3,2.5c-4.1,4.6-4.9,10.8-7.6,16.1c-0.6,1.3-2.5,3.5,0.5,4.4c2.2,0.6,4.4,0.2,5.2-2.5
				c0.6-1.9,0.4-4,1.2-5.8c0.5-1.2,0.9-2.5,2.6-2.6c2.5,1,1.4,3.1,1.3,4.8c-0.3,3.1,0.5,4.7,4,4.7c10.6,0,19.1,4.8,26.4,12.2
				c3.6,3.7,3.7,3.6,5.8-1.3c5.2-12.1,6.5-24.4,1.4-36.8c-2.1-5-5.3-9.9-9.7-13.1c-4.6-3.2-9.1-7.1-14.3-8.8
				c-7.7-2.6-14.7-7.2-22.8-8.3c-13.7-1.9-27.2-1.1-40.2,4.3c-5.7,2.3-11.7,3.5-17.6,5c-3.8,1-7.6,2-11.2,3.6
				c-1.4,1.5-2.8,3.1-5.1,3.1C183.7,177.1,183,176.7,182.4,176.2z"/>
			<path class="st8" d="M103.4,319.3c-8.9,9.6-17.4,19.7-28.8,26.6c-15.2,9.3-31,17.3-49.5,17.8c-3.5,0.1-4.6-0.5-4.3-3.9
				c0.1-1.7-0.5-4.2-2.7-2.2c-4.7,4.4-5.4,0.4-6.5-2.7c-0.4-1-0.2-2.3-0.3-3.4c-0.9-5.5-0.2-11-0.4-16.4c1.2-6.8,2.1-13.6,4.3-20.1
				c-0.2-1.1,0.5-1.9,1.2-2.7c2.3,0,1.8,1.9,2.1,3.3c0,0.5,0,1-0.1,1.5c-0.1,0.5-0.2,0.9-0.3,1.4c-0.8,2.6-1.4,5.3-1.8,8.1
				c-0.1,0.5-0.2,0.9-0.3,1.3c-0.5,2-1.2,4-1.3,6.1c-0.1,1.7,0,3.3-0.4,5c-0.6,1.8-0.7,3.6-0.1,5.4c0.6,1.9,0.2,4,0.9,5.8
				c0.4,0.7,0.9,1.1,1.7,0.3c5.3-9.2,9.7-18.9,15.6-27.8c1.3-1.9,1-3.4-0.8-4.7c-0.7-0.7-1.1-1.6-1.4-2.6c-0.2-1.7-1.3-3.6,1.1-4.6
				c5.7,1,10.5,4.4,16.1,5.6c2.9,1.3,6.1,1.7,9.1,2.9c2,0.9,4,1.6,6.2,1.7c2,0.2,4,0.8,5.9,1.4c2.7,0.7,5.5,1.3,8.2,1.7
				c1.8,0.2,4.1,0.5,4.5,2.5c0.5,2.3-2,2.6-3.5,3.4c-1,0.6-1.8,1.4-2.7,2.2c-2.5,2.4-4.1,5.4-5.9,8.3c-0.5,1-1,2-1.8,2.8
				c-0.4,0.4-0.8,0.9-1.3,1.2c0.5-0.3,0.9-0.8,1.3-1.2c2.1-2.3,4.7-4,7.3-5.7c1.4-0.5,2.7-1.3,3.8-2.4c0.3-0.3,0.7-0.5,1-0.8
				c1.8-1,3-2.5,4.3-4c6.3-3.6,10.1-10.2,16.2-14.1C102.7,315.6,103.8,316.6,103.4,319.3z"/>
			<path class="st8" d="M17.3,316.2c-0.1-1.3,0.5-2.8-0.9-3.8c0.4-0.7,0.7-1.3,1.1-2c0-2.6,2.3-6-2.4-6.9
				c-5.8,0.3-10.3-1.8-13.4-6.7c-1.3-2.1-2.7-4.1-0.6-6.7c2-2.5,4.7-3.7,7.4-2.8c9.9,3,18.3-0.7,25.2-6.7c6.6-5.7,13.2-11,20.8-15.1
				c2.3-1.1,5-0.7,7.2-2.1c1.5-0.4,3-0.8,4.5-1.2c6.7-0.5,13.5-0.7,20.1,0.9c0.8,0.2,1.5,0.4,2.3,0.7c8.7,2.6,15.3,7.8,19.6,15.9
				c0.4,1.9,1,3.7,1.9,5.5c0.2,0.5,0.4,1,0.5,1.5c1.4,5.5,1.7,11.1,0.3,16.6c-0.5,2.6-1.4,5.1-3,7.3c-1.6,1.3-2.8,1.4-3.4-0.9
				c-0.2-1.3,0.3-2.5,0.9-3.6c1.5-2.4,1.8-5.1,2-7.8c0.1-0.4,0.2-0.8,0.3-1.3c0.6-1.6,0.5-3.2-0.1-4.8c-0.3-1.2-0.5-2.4-1.3-3.4
				c-1-1.6-1.9-3.4-2.8-5.1c-0.6-1.7-1.7-3-3-4.1c-3.3-3.6-7.5-5.8-12-7.6c-2.7-1.1-5.5-1.7-8.4-1.5c-5,0-9.9,0-14.9,0
				c-9.6,0-16.2,5.9-22.7,11.9c-4.2,3.8-8.2,7.7-13.6,9.7c-6.4,1.9-13.1,2-19.6,2.7c1.5,2,3.6,2,5.7,2.2c3.2,0.3,6.1,1.3,7.9,4.2
				c0.4,0.9,0.5,1.9,0.5,2.9c-0.2,2.1-1.8,3.5-2.3,5.5C19.5,311.6,21,315.4,17.3,316.2z"/>
			<path class="st9" d="M252.4,232.1c0.3-2-0.8-4.2,0.9-5.9c1.6,1.2,3.5,1.9,5.6,1.7c8.1-0.7,15.3,2.2,22.1,6.2
				c1.6,1.1,3,2.4,4.6,3.6c2.1,2.1,4.8,3.7,6.4,6.3c0.5,2.2,3.1,3.5,2.5,6.1c2.9,4.2,4.7,0.8,5.7-1.2c1.8-3.4,4.4-6,6.7-8.9
				c3.8-4.9,7.6-10.1,9.3-16.3c0.3-1.2,0.5-2.3-0.4-3.3c-1.5-1.6-2-2.8,1-2.8c0.9,0,1.5-0.6,1.4-1.6c-0.3-7,0.7-14,0.4-21.1
				c4.1,18.2-0.5,34.5-11.4,49.2c-1.9,2.5-4,4.9-5.9,7.3c-1.3,1.5-3,3.1-2.9,5.1c0.2,9-5.5,12.9-12.8,15.5c-1.5,0.5-2.6,1.4-3.8,2.3
				c-0.4,0.3-0.9,0.3-1.3,0c-1.1-3.3,1.6-4.3,3.5-5.7c1.3-0.9,3.2-1,4.1-2.5c0.4-0.3,0.8-0.5,1.3-0.5c3.9-1.4,6.1-6.4,4.6-10.8
				c-1.1,2.4,1.4,6-2.6,7.4c-1.9-2.2-2-4.8-1.9-7.5c0.1-2.8-0.7-5.2-3.2-6.8c-1-0.9-0.7-2.7-2.3-3.2c-3-7.2-9.5-9.3-16.1-11.4
				C262.7,232,257.5,232.3,252.4,232.1z"/>
			<path class="st10" d="M124.3,443.3c-1.9,0.4-3.9,0.8-5.8,1.3c-10.5,0-20.9-0.1-31.4-0.1c-3,0-5.9,0-8.8-0.9
				c-1.3-0.9-1.4-1.9,0.1-2.5c3.3-1.3,6.3-3.5,9.9-3.7c1,0.3,2.2,0.3,2.3,1.8c0.1,0.6-1.2,1.3-0.6,1.2c8.9-0.5,17.9,0,26.8-0.2
				c4.3-0.1,7.9-2.4,11.8-3.7c2.9-1,5.6-1.5,6.6,2.5c0,0.5-0.1,0.9-0.3,1.4c-0.7,1-1.7,0.1-2.5,0.4
				C129.1,439.9,126.8,442.1,124.3,443.3z"/>
			<path class="st11" d="M90.6,438.6c-0.9-0.1-1.8-0.3-2.2-1.2c3.2-1.6,6.4-3.6,9.8-4.7c4.4-1.3,7.1-3.3,6.2-8.3
				c2.6,4.4,7,3.7,11,4.1c2.2,1.3,4.3-0.1,6.4-0.3c2.8-0.1,5.6,0,8.4-0.1c3.1-0.1,6.2,0.2,9.2-0.6c3.1-0.4,6.3-0.8,9.4,0.3
				c0.6,0.3,0.8,0.8,0.8,1.4c-3.5,2.7-7.8,2.4-11.8,2.5c-8.1,0.2-16.2,0.7-24.3-0.4c-2.3-0.3-4.2,0.3-6.1,1.6
				c-3.4,2.2-6.9,3.9-10.6,5.4C94.7,439,92.7,440.1,90.6,438.6z"/>
			<path class="st12" d="M268.6,324.8c-0.7-3.9,2.4-7,2.5-10.7c0.1-1.8,0.9-3.5-0.9-4.9c1.1-5.6,2.3-11.2,3.4-16.9
				c1.3-0.2,2,0.5,2.3,1.7c-0.1,1.9,0.4,3.7-0.4,5.6C274.4,308.3,272.5,316.8,268.6,324.8z"/>
			<path class="st13" d="M67.2,256.1c-1,1.9-1.9,3.3,1.7,3.2c6.2-0.2,12.6-1,18.5,2c-0.7,0.9-1.8,1.1-2.9,1.1
				c-0.8,0-1.6-0.1-2.3-0.3c-1.7-0.6-3.5-0.5-5.3-0.5c-2.6,0-5.2,0-7.8,0c-1.8,0-3.5-0.2-5.3,0.4c-0.5,0.1-1,0.2-1.5,0.2
				c-1.2-0.2-2.7,0.1-2.6-1.9C62.2,259,64.7,257.5,67.2,256.1z"/>
			<path class="st14" d="M275.5,299.5c-0.1-2.1-0.2-4.3-0.3-6.4c-1.5-3-1.2-6,0.3-8.9c1.5-2.8,2.4-5.7,3-8.8
				c0.4-0.8,0.9-1.4,1.9-1.2c0.4,0.1,0.8,0.1,1.2,0.2C279.1,282.7,275.6,290.7,275.5,299.5z"/>
			<path class="st15" d="M253.4,380.4c1.5-7.2,2.5-14.4,6.2-20.9C258,366.6,256.6,373.7,253.4,380.4z"/>
			<path class="st16" d="M116.4,315.3c-2.2,1.5-2.3,3.8-2.1,6.1c-1.2-3.1-4.3-0.5-6-2c0-0.3,0-0.5,0-0.8c0.8-3.2,3.8-4,6.1-5.4
				C116,312.2,117.4,313,116.4,315.3z"/>
			<path class="st17" d="M59.6,260.4c0.6,1.3,1.9,0.6,2.8,1c1.4,1.5-0.7,1.9-0.9,2.9c-2,2.3-4.6,1.3-7,1.1
				C56.2,263.8,57.3,261.4,59.6,260.4z"/>
			<path class="st18" d="M105.2,309.1c0.1,1.4,0.7,2,2.1,1.2c1.4,1.9-0.2,3-1,4.3c-1.6,1.1-0.7,3.3-2,4.6l-0.4,0.2l-0.5-0.1
				c-0.7-1.4-1.2-3-3.3-2.2C100,313.3,102,310.8,105.2,309.1z"/>
			<path class="st19" d="M15.2,315c-1.2,6.5-2.4,12.9-3.6,19.4c-1.2-1-0.8-2.1-0.4-3.3C11.6,325.5,12.6,320.1,15.2,315z"/>
			<path class="st20" d="M11.3,331.1c0.1,1.1,0.2,2.2,0.4,3.3c-0.1,5.7-0.2,11.4-0.4,17.1C10.1,344.7,9.9,337.9,11.3,331.1z"/>
			<path class="st21" d="M104.3,319.2c-0.5-1.8-1.4-3.7,1.1-4.9c0.6,0.4,0.9,0.9,1.1,1.6c0.1,1.2,1.6,2.1,0.9,3.5
				C106.3,319.3,105.3,319.2,104.3,319.2z"/>
			<path class="st22" d="M15.1,303.5c5.9,0.5,3.2,4,2.4,6.9C17.6,307.7,18.1,304.9,15.1,303.5z"/>
			<path class="st23" d="M240.5,428.8c-0.2-3,0.3-5.8,2-8.3C243,423.5,241.8,426.1,240.5,428.8z"/>
			<path class="st15" d="M259.6,359.6c-0.1-2.3-0.9-4.8,1.9-6.2C261.2,355.6,260.8,357.7,259.6,359.6z"/>
			<path class="st24" d="M99.2,361.4c2.1,0.2,4-0.5,5.9-1.1c-1.3,3.4-3.8,2.5-6.3,1.8c0,0,0-0.3,0-0.4
				C98.9,361.6,99.1,361.5,99.2,361.4z"/>
			<path class="st12" d="M266.4,331.4c0.1-2.2,0.6-4.2,1.9-6C268.1,327.5,268.4,329.8,266.4,331.4z"/>
			<path class="st25" d="M242.5,418.6c1-1.6,0.4-3.8,2-5.2C244.6,415.5,245,417.6,242.5,418.6z"/>
			<path class="st16" d="M107.4,319.3c-0.5-1.1-2-1.4-2-2.9c0.5-0.7,1.2-0.8,1.9-0.6c1.2,0.7,1.8,1.7,1.3,3.1
				c-0.1,0.2-0.2,0.3-0.3,0.5l-0.5,0L107.4,319.3z"/>
			<path class="st26" d="M250.5,389.6c1-1.6,0.4-3.8,2-5.2C252.5,386.4,252.9,388.5,250.5,389.6z"/>
			<path class="st27" d="M83.2,167.2c2,0.6,3.1,1.9,3.1,4C85,170.1,83.5,169.2,83.2,167.2z"/>
			<path class="st9" d="M279.4,275.3c0.2,2.3-0.1,4.6-1.4,6.6c-2.2,3.4-3.2,7.2-2.9,11.2c-0.5-0.3-1.1-0.6-1.6-0.8
				c-0.1-0.3-0.2-0.6-0.2-1c-2.3-2-4.7,1.1-7,0c-2.6,0.6-4.7,2.1-4.9,4.9c-0.6,10.2-3.7,19.8-6.1,29.6c-2.7,11.1-5.6,22.1-8.4,33.1
				c-0.3,1.3-1,2.4-1.6,3.6c-0.9-5.8-3.2-11.1,0.1-17.4c2.9-5.7,4.5-12.2,7-18.3c-3.5,9-6.9,17.9-10.3,26.9c-1.8,4.9-5,9.3-7.5,14
				c-6.6,12-14.4,23.2-22,34.5c-1.7,2.4-4.1,4.5-3.7,7.9c0.2,1.7-1.9,1.7-2.3,2.9c2.5,2.9,5-0.7,7.5,0.1c1.3,2.6-0.9,3.7-2.5,4.4
				c-3.7,1.8-4.5,4.3-3,7.9c-1.9,1.7-3.8-0.8-5.7-0.1c-1,0.1-1.9,0.1-2.9-0.2c-1.4-0.4-2.9-0.6-4.1-1.4c-0.8-0.5-1.8-1-1.5-2.2
				c0.3-1.3,1.2-1.8,2.6-1.6c1.1,1.1,2.5,1,4.5,0.6c0,0-0.8-0.8-0.6-0.2c0.1,0.2,0,0.4-0.3,0.4c-1.1,0-2.2,0.3-3.2-0.5
				c-2.9-2.1-5.1-0.4-6.3,1.9c-1.7,3.1-4,3.7-6.5,2.1c-2.9-2-5.9-1.6-9.1-1.8c-3.9-0.3-8.4,1-11.2-3.2c0.9-1.1,2.1-1.4,3.3-1.6
				c8.5,0.4,17,1.1,25.1-2.3c4.6-1.9,8.5-4.6,11.4-8.6c16.4-22.7,31.7-46.1,41.4-72.7c3.9-10.7,6.3-21.8,8.4-32.9
				c0.9-4.8,0.2-5.5-4.6-5.8c-2.9-0.1-5.6-0.9-7.9-2.7c-1.1-1.3-2.7-1.1-4.1-1.6c-0.8-0.7-1.3-1.7-2.1-2.4c-2.9-2.2-5.2-5-7.2-8
				c-2.5-1.3-1.4-3.7-1.9-5.7c-1.1-5.1-2.2-10.3-2.1-15.6c0-2-0.7-3.5-2.8-4.1c-2.5-0.9-3.6,0.7-4.7,2.5c-3.2,5.1-6.8,9.9-10.5,14.5
				c-5.6,6.8-8.3,7-15.2,1.4c-0.5-0.9-1-1.7-0.4-2.8l0,0c0.7-0.8,1.6-1.1,2.7-1.1c3.2,0.9,5.6-0.3,8-2.7c4.7-4.8,8.3-10.4,12-15.9
				c3.2-4.8,3.7-5,8.8-2.5c2.2,1.1,3.7,1,5-1.2c1.6-2.4,3.6-4.5,5.9-6.1c3.2-2.3,2.9-4.6,1.3-7.7c-5.9-11.3-14-21.1-22.5-30.5
				c-3.1-3.5-6.1-7-9-10.7c-0.4-0.9-0.8-1.8-0.2-2.8c1.3-0.6,0.6-2.1,1.9-3.5c-1,5,3,7.5,5.2,9.4c5,4.2,7.6,9.9,11.8,14.6
				c6.7,7.6,12.1,16.1,16.5,25.2c2.6,5.5,3.9,5.6,8.5,1.3c2.6,0.5,5.2,0.4,7.9,0.1c8.3-1.2,16.2,0.5,23.5,4.5
				c0.5,0.2,0.9,0.4,1.3,0.7c0.4,0.3,0.7,0.6,1,1c0.5,1.2,1.7,2.2,1.6,3.7c-0.6,1-1.8,1.4-2.6,2.2c-2.3-0.1-3.6-2.1-5.6-2.8
				c-9.2-5.4-19-3.4-28.7-2.4c-3.9,0.4-6.7,3.4-9.3,6.3c-6.3,6.8-4.6,14.5-2.9,22.3c0.2,0.4,0.4,0.8,0.6,1.2
				c0.6,1.6,1.4,3.1,2.5,4.4c0.3,0.3,0.5,0.7,0.7,1c0.9,1.7,2.3,3,3.9,3.9c0.4,0.2,0.7,0.5,1.1,0.7c1.1,0.8,2.1,1.5,3.4,2
				c0.3,0.1,1.1,0.5,0.5-0.4c-0.2-0.3-0.5-0.4-0.8-0.6c-1.9-1.6-3.2-3.5-4-5.7c-0.4-2-1.3-3.7-2.1-5.5c-1.1-3.2-1.7-6.4-2.1-9.7
				c-0.2-1.8-0.1-4.1,2-4.6c2.4-0.7,2.1,2,2.9,3.2c0.4,0.6,0.6,1.2,0.9,1.8c1.5,3.6,3.3,7,5.1,10.5c2,4.2,4.9,7.8,8.2,11
				c0.8,0.8,1.6,1.9,2.9,1.2c1-0.5,0.9-1.7,0.9-2.6c0.1-2.1,0.1-4.3-0.6-6.3c-0.2-0.5-0.3-1-0.4-1.6c-1-5.2-1.3-10.5-1.1-15.8
				c0-1.3,0-2.7,0.6-3.9c0.5-1.1,1.3-2,2.6-2c1.4,0,2,1.1,2.3,2.2c0.5,2.6,1.1,5.2,1.8,7.7c0.6,4.2,1.1,8.4,1.9,12.5
				c0.4,1.8,0.3,3.6,0.8,5.4c0.4,1.4,1.2,2,2.5,0.7c0.8-0.8,1.5-1.6,2.4-2.3c2.1-1.8,2.2-4.4,2.9-6.8c0.6-4.8,0.6-9.6-0.1-14.4
				c-0.2-0.5-0.2-1-0.3-1.5c0.3-2.3-1.5-5.3,2.2-6.3c0.4,0.2,0.8,0.4,1.2,0.7c1,1.1,1.4,2.6,2.2,3.8c0.8-0.7-0.2-1.3-0.1-1.9
				c-0.3-1.1-0.6-2.1-0.9-3.2c-0.1-0.4-0.2-0.9-0.1-1.3c0.1-0.7,0.7-1.2,1.3-1.5c3.3,1.7,5.3,4.5,6.9,7.7c0.4,0.9,0.4,1.8,0.2,2.7
				c-0.5,1.4-1.1,3.2-2.4,3.7C278.1,265.1,279.5,270.5,279.4,275.3z"/>
			<path class="st6" d="M214.8,413.6c-3-0.1-5.6,4.2-9.1,0.8c-0.9-0.8-1.9-1.4-1.6-2.7c0.3-1.2,1.4-1.2,2.4-0.8c1,0.4,2-0.2,1.4-1
				c-2.5-3.2,1-4.7,2.1-6.2c8.5-11.8,16.7-24,23.8-36.7c7.2-12.7,12.8-26.2,17.3-40.2c0.3-0.9-0.5-3.2,1.8-2.5
				c2.1,0.7,1.1,2.3,0.7,3.7c-1.2,4-3.8,7.3-5.2,11.3c-1.1,3.2-0.3,7.3-4.1,9.8c-1.6,1,1.2,2.7,1,4.4c-0.2,2.9,0,5.9,0,8.9
				c-1.6,9.5-4.6,18.6-7,27.9c-0.8,2.3-0.7,4.9-2,7c-0.4,1-0.7,2-1.1,2.9c-0.3-0.3-0.6-0.7-1-1c-0.6-0.5-0.9-1.2-1-1.9
				c-0.1-3,1-5.8,1.7-8.6c-1.8,2-2.8,4.4-3.7,6.9c-2.7,4.9-6,9.5-9.2,14.1C220.4,412.3,218.3,414.5,214.8,413.6z"/>
			<path class="st23" d="M238.4,427.3c0.2,2.6-0.2,5-1.9,7.1C236.3,431.9,237,429.5,238.4,427.3z"/>
			<path class="st28" d="M236.5,397.5c0.2-2.5,0.5-4.9,2-7C238.4,393,238.6,395.5,236.5,397.5z"/>
			<path class="st14" d="M266.4,291.4c2.3-0.2,4.7-2.4,7,0C271.1,290.4,268.7,293.4,266.4,291.4z"/>
			<path class="st29" d="M200.3,424.3c1,0,2.1,0,3.1,0c2.9,1.3,6.2,2.2,7.9,5.3c2.1,2.2,5.2,2,7.8,2.8c1.5,0.5,4.2-0.7,4.1,2.2
				c-0.1,2.2-0.3,4.8-3.4,5.3c-0.5,0.1-0.9,0.4-1.4,0.6c-6.7,2-13.4,1.7-20.2,1.2c-4.5-1.3-9-2.4-13.4-4c-3.2-1.2-4.7-0.1-5.1,3.1
				c-1.1,1.8-2.9,1.8-4.8,1.8c-4.1,0-8.1,0.1-12.2-0.1c-0.5-0.1-1-0.3-1.5-0.6c-1.7-2.3-0.7-5.7-2.9-7.9c-0.5-0.6-1-1.3-1.4-2.1
				c-0.2-4.4,1-6.2,5.1-5.5c8,1.4,15.8,0,23.6-1C190.6,424.7,195.4,423.5,200.3,424.3z"/>
			<path class="st30" d="M197.5,440.4c4.3,1.9,8.8,1.1,13.1,0.6c2.6-0.3,5.2-0.5,7.8-0.6c-0.7,0.6-1.3,1.2-2,1.8
				c-6.8,0.1-13.6,0.2-20.4,0.4c0,0-0.4,0.1-0.4,0.1l-0.3-0.2c-0.3-1-3.2-0.2-1.7-2.4C195,440,196.3,439.7,197.5,440.4z"/>
			<path class="st28" d="M230.4,411.4c-0.1-4.9,1.8-9.4,3-14c0.3-0.4,0.6-0.4,1-0.1c0,0.7,0,1.4,0.1,2.1
				C232.1,403.1,232.8,407.8,230.4,411.4z"/>
			<path class="st6" d="M208.3,425.5c1,0.7,2.1,1.4,3.1,2.1c0,0.7,0,1.4,0,2c-2.6-1.8-5.3-3.5-7.9-5.3
				C205.6,422.5,206.4,426.1,208.3,425.5z"/>
			<path class="st31" d="M212.4,427.7c2.8,0.2,5.6,0.4,8.1,1.7C217.6,429.8,214.9,429.3,212.4,427.7z"/>
			<path class="st31" d="M220.5,429.3c1.6-0.1,3.2,0.8,4.8-0.1C223.8,432.5,222.1,430.7,220.5,429.3z"/>
			<path class="st5" d="M193.4,440.5c0.7,0.7,1.4,1.4,2,2.1c-3.6,0-6.9-1.5-10.1-3c0.2-0.2,0.4-0.4,0.6-0.6
				C188.7,438.1,191,439.4,193.4,440.5z"/>
			<path class="st32" d="M209.4,444.7c-2.3-0.1-4.7-0.1-7-0.2c-0.4-0.3-0.7-0.6-1.1-1c3.4,0,6.9,0.1,10.3,0.1
				C210.9,444,210.2,444.3,209.4,444.7z"/>
			<path class="st33" d="M158.4,432.4c0.3,0.3,0.7,0.7,1,1c0.2,0.2,0.3,0.5,0.3,0.7c0,0.3,0,0.4-0.1,0.4c-0.5,0.7-1.1,1.3-2.2,0.8
				c-2.1-1.8-3.3-0.8-4.2,1.3c-0.6,1.5-0.5,3,0,4.4c0,0.4,0.1,0.8,0.1,1.2c-0.3,0-0.5,0.1-0.8,0.1c-5.8,0.9-11.6,0.2-17.4,0.4
				c-1.6,0-2.7-0.5-1.7-2.4c0.3,0,0.7,0,1,0c3.1-1,6.2,0,9.3-0.3c2.2-0.2,5,0.9,6.1-2c1.1-3.1,3.1-6.5-0.4-9.6l-0.1-0.1
				c2.5-2.4,3.9-2.3,5.7,0.6C155.9,430.4,156,432.5,158.4,432.4z"/>
			<path class="st6" d="M157.5,435.5c0.6-0.3,1.2-0.6,1.8-0.9c2.3,1.8,0.9,4.8,2.1,6.9l0,0c6.5,1.2,12.9,0.5,19.4,0.1
				c-0.2,0.6-0.3,1.3-0.5,1.9c-6.9,0-13.8,0-20.7,0c-0.1-0.3-0.2-0.6-0.3-1c-1.3-1.4,0.7-3.7-1.4-4.8
				C157.3,437,157.4,436.2,157.5,435.5z"/>
			<path class="st34" d="M153.2,441.2c-1.2-1.5-1.3-3,0-4.4C153.6,438.2,153.7,439.7,153.2,441.2z"/>
			<path class="st35" d="M158,437.6c2.4,1.1,1.1,3.2,1.4,4.8c-0.3-0.1-0.5-0.1-0.8-0.1C158.4,440.8,158.2,439.2,158,437.6z"/>
			<path class="st36" d="M133.4,440.5c0.3,2.5,2.2,1.9,3.8,2c5.1,0.1,10.2,0,15.3,0.1c0,0.3,0,0.6-0.2,0.9c-6.4,0-12.8,0.1-19.1,0.1
				c-1.2-0.7-0.7-2-0.9-3C132.6,439.9,133,439.8,133.4,440.5z"/>
			<path class="st37" d="M179.4,439.5c0.7,0.3,1.4,0.7,2.1,1c-0.2,0.3-0.4,0.7-0.6,1c-6.5,1.3-12.9,1.8-19.4-0.1c4.4,0,8.9,0,13.3,0
				C176.6,441.4,178.5,441.6,179.4,439.5z"/>
			<path class="st38" d="M131.4,135c-2.6,5.2-5.7,10.1-10,14.1c-1.4,1-2.7,2-3.9,3.2l0.1-0.1c-1.3,0.4-2.6,0.7-3.9,0.9
				c-2.8,0.3-5.6,0.8-8.3,1.8c-1.1,0.2-2.2,0.1-3.4,0c-5.6-0.7-5.9-0.3-4.4,5.2c0.9,2.5,2.4,4.6,4.8,5.9c4.6,3.4,9.7,5.7,15,8
				c0.2,0.1,0.4,0.3,0.3,0.5c0,0.2-0.1,0.3-0.1,0.3c-0.1,0.1-0.4,0-0.3,0.3c0.6-0.3,1.2-0.2,1.8-0.1c7.7,2.2,15.5,1.5,23.3,1.5
				c2.8,0,5.6-0.6,7.9-2.6c1.6-1,3.3-2,4.9-2.9c1.9-1,3.3-2.6,6.1-1.5c2.5,1,5.4,0.2,6.9-2.7c-0.1-0.5,0.1-0.9,0.7-0.9
				c0.3-0.1,0.6-0.4,0.9-0.4c1.9,0.1,4.4-0.8,5.3,0.8c0.9,1.7-1.7,2.7-2.7,4.2c-0.4,0.5-0.8,1-1.1,1.6c-4.8,5.8-11.2,9.2-18,12
				c-1.4,0.6-2.9,0.6-4,1.8c-8.5,1.6-17.1,2.8-25.8,2.1c-1.1-0.8-2.4-0.3-3.6-0.5c-3.3-0.8-6.6-2-9.7-3.4
				c-6.4-2.1-11.5-6.4-16.8-10.3c-1.7-0.5-2.7-1.9-4-3c-1.7-1.9-3.3-3.9-5-5.8c-1.9-5-6.7-2.8-10-4.1c-2.1-1.3-4.4-2.4-6.2-3.9
				c-4.6-3.8-4.5-8.6-0.1-13.1c2.8-0.7,5.6-1.7,8.9-1.4c-1.7-4.6-5.1-4.9-8.5-5.2c-0.3-0.4-0.4-0.9-0.2-1.4c1.2-0.5,2.5-0.6,3-0.4
				c-1-0.2-2.6-0.2-4.2,0.7c-1.2,0.4-2.4,0.8-3.7,0.1c-0.8-1.1-1.4-2.2-1.1-3.6c0.4-2.4,0.1-4.8,0.2-7.2c0.1-1.9,0.4-3.8,0.8-5.7
				l0,0.1c1-0.4,0.5-2.4,2.2-2.2c1.2,1.5,2.2,3.2,4,4.1c0.8,1.8-0.3,3.1-1.1,4.4c-0.5,1.2-2,2.3-0.9,3.9c1.9,0.2,2.4-1.4,3.1-2.5
				c0.4-0.6,0.8-1.1,1.4-1.4c1.6-0.8,3.2-1.5,4.7-2.5c0.4-0.2,0.8-0.4,1.2-0.6c1.5-0.4,3-0.7,4.3-1.6c0.9-0.8,2-1.8-0.2-2.2
				c-1.9-0.4-3.9-0.1-5.9,0.2c-1.6,0.2-3.3,0.7-4.2-1.4c0.9-3.5,4.1-3.7,6.7-4.8c0.6-0.2,1.4-0.2,1.7-0.8c0.3-0.9-0.5-1.1-1.1-1.2
				c-2.5-0.3-5-0.2-7.2,1.3c-0.8,0.5-1.6,0.9-2.6,0.9c-1.6-0.1-1.6-1.5-2-2.5c-0.2-0.6,0-0.9,0.6-1.1c1.5-1.1,2.6-2.5,3.3-4.2
				c2.2-3.7,5.2-6.6,8.9-8.8c3.7-2.1,7.4-4.1,11.1-6.1l-0.1,0c2.1-0.1,4.1-2.4,6.4-0.5c0.3,2.4-1.4,4.1-2.3,6.1
				c-1.5,2.7-2.1,5.6-1.4,8.7c1-0.3,0.9-1.3,1.2-2.1c4.7-10.2,5.2-10.6,15.5-13.3c-1.5-1.7-3.7-1.3-5.5-1.8c-0.9-0.3-2-0.6-1.7-1.9
				c0.3,0,0.6-0.1,0.9-0.2c4.9-3.4,10.8-4.6,16.3-6.8c6.2-2.2,12.4-4.4,18.5-6.7c2-0.8,3.9-1.8,6.1-1.5c1.2-0.5,1.7,0.5,2.3,1.1
				c1,1,2.2,0.6,3.3,0.3c5.7-1.4,11.1-0.7,16.1,2.6c2.2,1.5,1.4-2.9,3.3-1.8c4.7,5.1,9.5,10.2,12.1,16.7c0.6,1.4,0.7,3.1,2,4.1
				l0-0.1c3,7.4,4.2,15.2,6.3,22.8c0.5,1.7,0.5,3.6-0.3,5.4l0,0c-5.9,1.7-11.6,0.3-17.1-1.8c-1.8-1.4-3.9-1.2-6-1.3
				c-2.8,0.2-2.1-3.3-4.1-3.9c-2-1.3-4-2.6-6.1-3.9c-1.9-1.9-4.6-0.7-6.7-1.8c0.9-1.5,0.9-1.5,2.2-1.7c-0.6,0.4-2.7-1.2-2.3,1.5
				c0.6,3.9,5,2.7,6.8,5.1c0.4,1.2,2.3,1.2,2.1,2.8c1.9,8,1.8,8.3-4,12.2l0.1,0c-3.1,0.6-6.2,0.6-9.2,0l0.1,0
				C140.3,128.5,135,129.6,131.4,135z"/>
			<path class="st39" d="M167.4,419c-1,0.2-2,0.3-3,0.5c-2.1,0.1-2-1.5-1.8-2.7c0.2-1.8,0.7-3.6-0.3-5.3c-0.5-0.7-0.4-1.9,0.6-2.1
				c6.2-1.3,7.7-7.2,10.8-11.3c6.1-8.1,10-17.6,15.1-26.4c0.8-1.3,1.4-2.3-0.9-3.3c-1.5-0.7-0.4-3.3-0.3-5c1.1-1.4,1.9-3.1,2.8-4.6
				c0.7-1.1,1.1-2.8,2.8-2.3c1.6,0.5,1.3,2.1,1.2,3.4c-0.1,0.6-0.5,1.2-0.1,1.9c-0.2-5.7,4.8-10.3,3.4-16.2
				c-3.2,6-6.4,11.8-9.8,17.6c-0.6,2.4-1.4,4.6-2.7,6.8c-2.3,3.9-3.7,8-3.4,12.8c0.1,1.6,0.1,5.7-4.3,4c-1.9-0.7-2.2,0.8-2,2.3
				c0.4,3-0.8,5.2-3.7,6.3c-1.1,0.5-2,1.2-2.5,2.3c-2.7,6.3-7.5,11.3-10.3,17.6c-2.9,6.5-7.6,10.7-15.1,11.3c-1.6,0.1-3.4,0-4.4,1.8
				c-2.8,2-6,0.6-9,1c-3-1.7-6-1.5-9,0c-2-0.3-4.2,0.8-6-1c1.1-0.2,2.3,0.4,3.3-0.6c-6-4.8-5.9-4.8-3.1-12.6
				c1.1-2.9,2.3-5.7,1.1-9.1c-0.9-2.4,2.8-2.6,3.5-5.4c2.1-8.3,4.2-16.6,5.2-25.1c0.9-7.3,1.4-14.7,2-22.1c0.3-3.8-1.3-7.5-1-11.4
				c0.2-3.3,0.4-6.2,3.6-8.2c2.5-1.5,2.3-3-1-3.2c0.3-0.5,0.5-1,0.6-1c8.7,1.6,12.9-5.9,19.1-9.3c10-5.5,11.9-15.5,14.8-25.1
				c2-6.6,2.6-13.5,3.9-20.3c1.9,1.9,1.2,4.3,1.4,6.6c0,7.2-2.5,14-4.3,20.8c-2.9,10.7-10,17.9-18.9,24c-5.4,3.7-11.5,6.8-15.5,12.3
				c-0.6,5.7-0.3,11.3-0.2,17c0.1,6.5-0.4,12.9-1.1,19.4c0,0.5-0.1,1.1-0.2,1.6c-2.6,13.5-5.7,26.9-10.3,39.9
				c-2.3,6.4-1.9,6.9,5.1,7.2c7.5,0.4,14.9-0.3,22.3-1.9c3-0.6,5.2-2,6.8-4.5c18.3-30,36.8-59.9,48-93.6c0.9-2.7,1.7-5.4,2.3-8.2
				c1.2-3.7,1.6-7.5,1.6-11.3c0-1.5,0.1-3.3,2-3.5c2-0.3,2.2,1.6,2.7,3c0.2,0.5,0.4,1,0.5,1.6c0.3,1.6,0.3,3.2,0.3,4.9
				c0,1.1-0.1,2.2-0.4,3.2c-0.8,7-1.6,14-2.6,20.9c-3.7,17.6-11.4,33.6-19.9,49.3c-5.4,10-11.3,19.6-17.6,29
				C168,414.8,167.1,416.7,167.4,419z"/>
			<path class="st40" d="M107.2,315.9c-0.6,0.2-1.2,0.4-1.8,0.5c0-0.7,0-1.5,0-2.2c0.8-1.3,2-2.3,2-4c0.6-2.3,2.9-4,2.2-6.7
				c2.7-4.7,1.3-9.8,0.8-14.7c-0.1-1.2-0.2-2.6-0.9-3.7l0,0c-1-1.6-1.2-3.4-2-5c-4.1-7.9-10.7-12.5-19-15c-0.6-0.7-0.6-1.4-0.1-2.2
				c1.7-0.8,3.1,0.1,4.3,1.1c5.7,0.9,9.8,4.8,14.7,7.3c2.6,3.3,5.3,6.6,7.9,9.9c3.4,5.2,5,10.9,3.6,17c-0.8,3.4,0.3,7-1.3,10.2
				C115,312.4,112,315.4,107.2,315.9z"/>
			<path class="st41" d="M146.5,260.5c-2.1,12.6-9.1,22.9-16.3,33c-2.9,4.1-5.6,8.2-7.5,12.8c0.1,0.6-0.1,1-0.6,1.2
				c-1.6-0.4-1.7-1.8-1.8-3.1c0.1-0.8,0.4-1.5,0.9-2.1c2.3-6.5,6.7-11.8,10.1-17.7c5.3-9,9.4-18.6,13-28.4c1.3-2.6,1.6-5.5,2-8.3
				c-0.4-2.1,0.5-3.8,1.2-5.7c1.2-0.5,1.9,0.3,2.3,1.2c0,0.5-0.2,1-0.5,1.4c-0.9,2.2,0.1,4.5-0.7,6.7c0.2,0.3,0.2,0.5-0.1,0.7
				C146.6,254.7,147.1,257.7,146.5,260.5z"/>
			<path class="st42" d="M202.4,190.2c0.3,0.8,0.6,1.5,0.9,2.3c-4.1,1.2-7.3-1.6-10.8-2.7c-9.1-2.9-9.1-3.1-14.6,4.5
				c-2,2.7-3.7,5.5-6,7.9c-1.8,1.8-2.2,4.1-2,6.5c1.2,15.1,1,30.2,1,45.3c0,2,0.9,3.9,1.2,5.8c0,0.6-0.2,1.1-0.6,1.5
				c-1.7-0.8-3.1-1.7-3-4c0.7-17.1-1.9-34.1-2-51.2c0-3,0.8-4.6,3.5-6.7c4.2-3.2,7-8.3,10.1-12.7c1.7-2.5,2.7-3.4,6.2-2.1
				c3.9,1.5,7.8,3.5,12.2,3.6C199.2,190,200.7,190.2,202.4,190.2z"/>
			<path class="st43" d="M121.2,302.3c0,0.7,0.1,1.3,0.1,2c-0.2,1.1-1.9,2.8,0.9,3c0.2-0.3,0.3-0.6,0.5-0.9c1.6,2.3,3.1,4.4-1.6,5
				c-2,0.3-3.5,2.2-4.7,4c-0.2-0.7-0.7-2.2-1.2-1.5c-1.8,2.3-5.1,2.5-6.6,5.1c-0.5-1-1-2-1.4-3c3-2.2,6-4.5,9-6.7
				c1.1-0.5,0.7-2,1.7-2.7c1-1.2,0.2-3.2,1.6-4.2C120,302.3,120.6,302.3,121.2,302.3z"/>
			<path class="st44" d="M118.4,307.3c-0.7,0.6-1.5,1.3-2.2,1.9c2.6-9.4,4-18.7-0.9-27.9c4.5,4.4,5.2,9.9,4.7,15.7
				c-0.1,1.8-0.8,3.5-1.2,5.3C118.8,304,119.3,305.7,118.4,307.3z"/>
			<path class="st42" d="M166.4,196.2c-0.7-1.4-1.7-2.4-3-3c-1.3-0.7-2.3-1.7-3-3c0.3-1.7-5.4-3.4,0-5.1c0.4-0.3,0.8-0.3,1.2,0
				c0.5,2.3,2,4,3.5,5.8c2.1,2.5,4.1,2.9,6.7,1c0.2,0.1,0.4,0.2,0.6,0.3C171.5,195.2,170.9,198.6,166.4,196.2z"/>
			<path class="st45" d="M167.5,282.4c0-2.4-0.1-4.7-0.1-7.1c0.9-2.7,1-5.5,1-8.3c0-5.4,0.3-5.6,5.1-2.8c-0.1,0.2-0.3,0.4-0.4,0.6
				c-4,2.1-1.9,6-2.6,9c0,0.5-0.1,0.9-0.3,1.3c-0.8,1.9-0.6,4-0.9,6c-0.1,0.4-0.3,0.9-0.6,1.2C168.3,282.6,167.9,282.6,167.5,282.4z
				"/>
			<path class="st45" d="M190.4,271.3c0.3,0.7,0.6,1.5,0.9,2.2c-3.3,1.3-5.7-0.9-8.4-2.1c-2.9-1.3-5.8-2.6-8.5-4.3
				c-0.8-0.7-1.4-1.4-1.2-2.6c0,0,0.3-0.3,0.3-0.3C179.4,265.8,184.1,270.5,190.4,271.3z"/>
			<path class="st45" d="M171.4,261.3c0-0.4,0-0.8,0.1-1.2c6.5,0.2,11.5,3.5,16.2,7.7c-0.1,0.2-0.2,0.4-0.4,0.7
				C181.5,267.2,176.7,263.5,171.4,261.3z"/>
			<path class="st7" d="M120.4,187.2c1,0.3,2.1,0.6,3.1,0.9c-3.8,0.1-7.2,2.3-11.7,1.9c2.9-1.4,2.1-2.6,0.6-3.9c0,0,0.1-0.2,0.1-0.2
				C115.4,184.7,117.6,187.8,120.4,187.2z"/>
			<path class="st46" d="M148.5,233.2c0-2.6,0-5.3,0.1-7.9c0.6-0.7,1.3-0.7,2-0.2c0.5,4.4,1.7,8.9,0.1,13.4c-2.7-2.3,0-5.4-1-7.8
				C149.9,231.8,150.5,233,148.5,233.2z"/>
			<path class="st47" d="M148.5,233.2c0.5-0.9,1-1.9,1.7-3.3c0.2,3.2,0.3,5.8,0.4,8.5c-0.1,2.4,0.1,4.8-1.1,7
				c-0.5-0.4-0.6-0.9-0.3-1.5c0-0.3-0.1-0.6-0.1-0.9c-0.8-1.6-0.6-3.3-1.1-4.9c-0.1-0.7-0.1-1.4,0.3-2.1
				C148.3,235.1,148.4,234.2,148.5,233.2z"/>
			<path class="st42" d="M182.4,176.2c0.7,0,1.5,0.1,2.2,0.1c0.1,1.5-1.2,2.8-0.9,4.4c-0.1,0.2-0.2,0.4-0.3,0.6
				c-3.5-2-3.9,2.1-5.9,3c-0.2-0.1-0.3-0.3-0.5-0.4c-0.5-1.1-0.3-2.5-1-3.6c-0.1-0.4,0-0.8,0.3-1.1
				C179.2,179.7,180.8,178,182.4,176.2z"/>
			<path class="st42" d="M194.4,185.2c-4-0.5-7.5-2.2-11-4c0,0,0.2-0.3,0.2-0.3c4.5-1.5,7.9,0.7,11,3.6
				C194.5,184.7,194.4,185,194.4,185.2z"/>
			<path class="st42" d="M201.4,184.2c1.3,3,0.4,4.5-3,4c-1-1.4-3.4-1-4.1-2.9c0,0,0.1-0.2,0.1-0.2c1.7-1.4,4.2,1.1,5.8-1.1
				C200.7,183.8,201.1,183.9,201.4,184.2z"/>
			<path class="st48" d="M150.5,225.1c-0.7,0.1-1.3,0.1-2,0.2c-0.4-1.9-0.2-3.8,0.6-6.2C151.2,221.2,150.6,223.2,150.5,225.1z"/>
			<path class="st42" d="M177.5,184.3c-0.8,3.2-2.6,5.8-5,8c0,0-0.2-0.2-0.2-0.2c-0.6-4,1.3-6.6,4.9-8.1L177.5,184.3z"/>
			<path class="st49" d="M146.2,247.9c0.6,3.1,0.1,5.9-2,8.3C144.3,253.3,145.4,250.6,146.2,247.9z"/>
			<path class="st49" d="M146.5,260.5c-0.2-2.9-0.7-6,1.9-8.2C148.2,255.1,147.8,257.9,146.5,260.5z"/>
			<path class="st45" d="M193.6,271.2c-1.1,0-2.1,0.1-3.2,0.1c-1.1-0.9-2.1-1.9-3.2-2.8c0,0,0.3-0.3,0.3-0.3
				C190.5,267.3,192.5,268.3,193.6,271.2z"/>
			<path class="st49" d="M149.2,244c0.1,0.5,0.2,1,0.3,1.5c0.2,2.1-0.3,4.1-1,6.1C148.2,249,147.8,246.4,149.2,244z"/>
			<path class="st50" d="M148.7,238.4c1.3,1.5,0.5,3.1,0.4,4.7c-0.6-0.3-1.1-0.6-1.7-0.9c0-0.3,0-0.7,0-1
				C148.5,240.6,147.2,238.9,148.7,238.4z"/>
			<path class="st51" d="M148.7,238.4c-0.2,1-0.1,2.2-1.3,2.9c-0.2-1.8-0.2-3.6,0.9-5.2C148.4,236.8,148.5,237.6,148.7,238.4z"/>
			<path d="M118.4,307.3c0.1-1.7,0.2-3.3,0.4-5c0.2,0,0.4,0,0.7,0C119.2,304,120,305.9,118.4,307.3z"/>
			<path class="st52" d="M89.3,56.9C70.7,66.4,56.4,80.9,44,97.3c-2.8,3.7-4.4,3.2-6.6-0.1c-3.1-4.6-7.5-8.1-11.9-11.3
				c-4.5-3.3-4.7-7.4-3.9-11.9c2-12.4,8.2-22.8,16.3-32c7.2-8.1,15.4-15,24.3-21.1c2.9,4.6,6.6,8.7,9,13.6c0.7,2.9,2.6,5,4.7,6.9
				c1.3,1.3,2.3,2.8,3.1,4.4c1.4,2.3,2.6,4.7,5,6.2C86,53.5,87.6,55.3,89.3,56.9z"/>
			<path class="st53" d="M87.4,78c12.9-5.1,25.9-10.2,39.3-13.8c15.2-4,28.4-10.9,38.1-23.7c1.7-2.2,4.1-3.9,6.5-5.4
				c3.6-2.3,7.7-0.5,8.1,3.8c0.8,9.1-1.2,17.5-7.3,24.7c-1.2,1.4-2.3,1.5-3.9,0.8c-1.8-0.9-3.1-2.1-2.7-4.3c0.5-2.5,1.1-5.1,1.8-8.3
				c-6,3.7-11.4,7-16.7,10.2c-13.4,8-28.3,12-42.9,17.1c-10.3,3.6-20.7,7-30.2,12.8c-22.3,13.6-29.8,34.9-20.2,59
				c0.6,1.5,1.9,3.1,0.1,4.5c-1.6,1.1-3.4,1.4-4.9-0.3c-0.2-2.2-1.9-3.5-3.1-5c-9.5-12.3-10.2-23.7-2.3-37
				c6.7-11.2,15.9-20,26.5-27.5c1.4-0.7,2.7-1.6,4.1-2.4c1.1-0.7,2.4-1,3.5-1.8c0.9-0.5,1.9-1,2.9-1.4C85.2,79.3,86.5,79.1,87.4,78z
				"/>
			<path class="st54" d="M70.4,34.9c-2.4-3.5-4.7-7.1-7.3-10.5c-0.9-1.1-1.5-2.1-0.9-3.5c5.1-4.1,11.3-6.3,17.2-9
				c6.7-2.4,7.2-2.3,11.2,3.2c6.4,8.9,12.7,17.9,18.9,27c1.2,1.7,2.8,3.6,0.7,5.8c-7.4,2-14.2,5.3-20.9,9.1c-3.2,0.6-3.6-3-5.7-4
				c-2.2-2-3.3-4.8-5.2-6.9c-1-1.3-2-2.7-3-4C73.6,39.7,71.7,37.5,70.4,34.9z"/>
			<path class="st52" d="M110.2,47.9c0.6-2-0.6-3.5-1.6-5c-6.1-8.7-12.3-17.3-18.2-26.1c-2.8-4.2-5.6-7.1-11-4.8
				c8.5-3.5,17.2-5.4,26.4-2.6c1.6,0.5,2.7,2,3.5,3.4c5.2,8.7,11.4,16.6,18.2,24.1c3.9,4.3,3.6,4.6-2.3,6.2
				C120.2,44.5,114.9,45.4,110.2,47.9z"/>
			<path class="st55" d="M74.5,86.2c-10.5,8-20.4,16.6-26.9,28.4c-7.6,13.6-6,25.4,4.6,36.9c0.9,1,4.1,2.2,0.2,3.7
				c-5.6-1-11-2.3-14.1-7.8c-5.2-10.1-4.3-20.2,0-30.3c6.3-13.7,17.2-22.7,29.8-30c1.5-0.6,2.9-1.6,4.5-2.1
				C73.8,84.4,74.6,84.7,74.5,86.2z"/>
			<path class="st56" d="M106.5,54.1c3.9-4,9.6-2.7,14.3-4.6c3.6-1.5,7.7-1.9,11.5-3c1.2-0.3,2.2-0.4,3.4,0.1
				c2.8,1.2,4.9,3.6,5.2,6.2c0.2,2.1-3,2.5-5,3.2c-5.2,1.7-10.4,3.3-15.6,4.9c-0.6-0.7-1.5-0.9-2.1-1.5c-0.8-0.6-1.5-1.3-1.8-2.3
				c-1.1-3.1-3.1-3.9-6.1-2.7C108.9,54.9,107.6,55.1,106.5,54.1z"/>
			<path class="st57" d="M106.5,54.1c0.5,0,1.1,0.1,1.5-0.1c4.7-2.5,8.5-2.6,10.1,3.6c0.1,0.5,0.9,0.9,1.4,1.4c-2,3.9-6.3,3-9.5,4.4
				c-3.2,1.5-6.7,2.3-9.9,4.1c-5.6,2.5-6,2.3-8.2-2.6c0.4-0.5,0.6-1.1-0.5-1c-0.7-1-0.9-2,0.3-2.8C96.6,58.8,101.5,56.5,106.5,54.1z
				"/>
			<path class="st58" d="M91.6,61.2c-0.2,1.1-0.7,2.2,0.7,3l0-0.1c1.3,3.5,3.1,6,7.1,2.9c1-0.7,2-0.7,3-0.1
				c-4.8,3.9-11.3,3.2-16.6,6c-5.2,2.8-10.9,4.8-16.4,7.1c-0.7,0.6-1.6,0.6-2-0.2c-0.4-0.8,0.3-1.4,0.9-1.9
				C74.9,70.8,83.5,66.3,91.6,61.2z"/>
			<path class="st6" d="M160.4,168.2c-0.1-1.6-3-3-2.4-3.2c4.5-1.5,2.6-8.6,8.1-8.8c1.3-0.1,2.9-0.3,3.2,1.5
				c0.3,1.6,0.6,3.3-1.1,4.5C165.5,164.2,162.9,166.2,160.4,168.2L160.4,168.2z"/>
			<path class="st59" d="M62.5,132.9c0.3,1.1,0.6,2.1,0.9,3.2c1.4,1.7,3.5-0.8,4.9,0.9c3,0,5.9,0.2,8,2.8c1.3,1.6,1.5,3.2-1.1,3.3
				c-2.4,0.2-4.7,1.6-7.2,0.9c2-2.4,5.2-1.3,8.2-2.5c-2.9-3.6-6.4-3.9-10-2.7c-2.6,0.9-3.6,0-4.2-2.4c-1.4-5.6-1.5-11.2,1.1-16.5
				c0,2.1,0.1,4.1,0.1,6.2C62.1,128.3,63.5,130.8,62.5,132.9z"/>
			<path class="st60" d="M163.4,115.1c2.3-0.3,1.7,3.3,4,3c1.8,1.3,4.1-0.2,6,1c5.2,3.7,11.3,2.8,17.1,3.1
				c-3.8,2.6-7.7,1.5-11.7,0.6c-3.7-0.9-7.1-2.6-11-2.6C164.4,120.1,164.4,117.2,163.4,115.1z"/>
			<path class="st61" d="M150.4,174.1c-0.8,2.4-3.2,2.7-4.9,2.8c-9.4,0.3-18.9,1.5-28.1-1.7l0,0c0-0.4,0-0.7,0.1-1.1
				C128.4,176.6,139.4,178,150.4,174.1z"/>
			<path class="st60" d="M190.5,122.2c-0.8-8.5-3-16.7-5.4-24.8c-0.3-1.1-0.4-2.2-0.6-3.4C188.5,102.9,192,112,190.5,122.2z"/>
			<path class="st62" d="M38.3,117c0.1,4.5-2.7,8.4-3.1,12.9c-0.5,6.2,1.9,11.6,3.1,17.4C32.7,139.9,32.7,126.1,38.3,117z"/>
			<path class="st63" d="M97.4,161.1c-2.1-6.3-1.6-7.1,4.5-7c1.2,0,2.3,0,3.5,0c2.2-0.6,4.4-1.1,6.7-0.8c0.6,0.1,1,0.4,1.4,0.9
				c-3.9,1.6-8,2.8-12.1,1.4c-4.5-1.6-4.7,0.1-3.4,3.6c0.2,0.6,0.3,1.3,0.5,1.9C98.1,161.6,97.7,161.5,97.4,161.1z"/>
			<path class="st64" d="M102.3,67c-1,0-2,0-3,0.1c5.1-2.9,10.7-4.2,16.2-6c1.4-0.5,2.9-0.8,3.9-2c1,0.3,0.8,1.1,0.8,1.9
				C114.3,62.9,108.3,65,102.3,67z"/>
			<path class="st65" d="M170.3,73.2c-0.8,0.6-0.8,1.3-0.6,2.1c0.2,0.8,1.1,1.9-0.3,2.4c-1,0.3-1.8-0.5-2.2-1.4
				c0.1-4.2-4.6-4.9-6-8.1c0.5-1,1.7-0.6,2.3-1.2C166,68.8,168.8,70.2,170.3,73.2z"/>
			<path class="st66" d="M150.4,109.1c2.4,0.3,5.2-0.6,6.9,2c-1.1-0.1-2.2-0.2-3.8-0.4c1,1.9,3.7,1.4,3.8,3.5
				c-2.9-1.2-5.8-2.2-9-2.1C147.9,110.1,150.1,110.4,150.4,109.1L150.4,109.1z"/>
			<path class="st67" d="M131.4,135c1-3.6,3.6-5.3,7-5.9c1.8-0.3,3.5-0.2,5.1-1.4c1.5-1.1,2.3,0.1,2.9,1.5
				C140.8,129.8,135.2,130.2,131.4,135z"/>
			<path class="st68" d="M120.6,79.2c-5,3.2-11,4.1-16.3,6.8C108.9,81.5,114.8,80.3,120.6,79.2z"/>
			<path class="st6" d="M176.4,179.2c0,0.4,0,0.8,0.1,1.2c-4,4.6-9.5,4.5-14.9,4.9c-0.4-0.1-0.8-0.1-1.2-0.2
				C165,181.2,171.3,181.7,176.4,179.2z"/>
			<path class="st69" d="M171.4,172.2c-0.2-2.5,2.6-3.3,3.3-5.8c-2-0.1-3.9-0.3-5.8-0.4c2.3-3.4,5.1-0.6,7.7-0.6
				c0.6,0,0.1,1.4-0.4,2C174.8,169.2,173.5,171.1,171.4,172.2z"/>
			<path class="st69" d="M168.3,166.9c-0.5,3.8-4.4,4.3-6.2,3.6c-2.7-1-4.6,0.3-6.8,0.6c1.2-1.8,2.7-3.2,5.1-2.9c0,0,0,0,0,0
				C163.4,170,165.9,168.8,168.3,166.9z"/>
			<path class="st70" d="M146.3,72.9c-0.4-0.7-0.7-1.3-1.1-2c0.8-3.2,3.9-2.9,6.1-4c0.8,0.2,1.2,0.7,1.3,1.5
				C151,70.6,149.7,73.3,146.3,72.9z"/>
			<path class="st71" d="M155.5,129.2c4.4-3.1,5.3-7.3,4-12.2C162.8,123.7,161.8,126.7,155.5,129.2z"/>
			<path class="st72" d="M117.4,160.1c-1.6,2.1-3.9,0.9-5.9,1.3c-1.7,0.3-3.6-0.9-5.1,0.8c-1.4-0.2-2.4-0.8-2.4-3.1
				C108.4,160.6,112.9,160.6,117.4,160.1z"/>
			<path class="st73" d="M74.5,86.2c-2.4-2.2-4.1,1.6-6.3,0.8c1.9-2.1,4.5-3.1,7.1-4c1.3-0.3,2.8-1.4,3.2,1.1
				C77.1,84.7,76.1,86.1,74.5,86.2z"/>
			<path class="st74" d="M152.5,68.1c-0.4-0.4-0.7-0.7-1.1-1.1c1.1-1.2,2.3-2.1,4-2c1.4,0.7,2.8-0.2,4.1-0.1c0.9-0.1,1.5,0.3,2,1
				c0.3,1.5-0.9,1.8-1.9,2.2C157.2,68.2,154.9,69.4,152.5,68.1z"/>
			<path class="st75" d="M91.3,90.9c-3.2,2.9-6.9,4.9-11.1,6.1C83.3,94,87.1,91.9,91.3,90.9z"/>
			<path class="st27" d="M74.4,161c3.8,0.2,8.7-2.2,10,4.1C82,161.6,77.5,163,74.4,161z"/>
			<path class="st76" d="M68.3,78c-0.5,1.1-0.7,2.1,1.1,2.1c-1.7,1-3.3,2-5,3c-1,0.3-1.3-0.1-1.1-1.1C64.6,80.2,65.9,78.4,68.3,78z"
				/>
			<path class="st77" d="M120.4,187.2c-2.8,0.6-5.2-1.3-7.9-1.2c-0.8-0.6-1.5-1.2-2.3-1.8C113.7,185.1,117.5,184.4,120.4,187.2z"/>
			<path class="st75" d="M97.4,91.1c-2-1.7-4.1,0.9-6.1-0.2c2.3-1,4.6-2.1,6.9-3.1c1-0.4,2-0.5,2.5,0.8
				C100.2,90.4,99.3,91.4,97.4,91.1z"/>
			<path class="st78" d="M67.4,111.1c0.7,0.7,1.4,1.4,2.1,2.1c0.1,2.2-1.2,3.1-3.1,3.6c-0.5,0-1-0.2-1.4-0.5
				C64.2,113.7,66.4,112.7,67.4,111.1z"/>
			<path class="st79" d="M100.4,89c-0.7-0.4-1.4-0.8-2.2-1.1c1.7-0.9,3.2-2,5.3-1.7c0.7,0.4,1.4,0.7,2.1,1.1
				C104.5,89.8,102.7,90.1,100.4,89z"/>
			<path class="st80" d="M78.4,84c-0.7-1.2-2-0.9-3.1-1.1c1.4-1.1,3-1.9,4.9-2.1c1.3-0.4,1.6,0.2,1.4,1.3
				C80.5,82.8,79.4,83.4,78.4,84z"/>
			<path class="st81" d="M92.7,264.1c-1.4-0.3-2.9-0.6-4.3-0.9c-1.5-0.3-3.6,0.8-3.9-1.8c1,0,2-0.1,3-0.1
				C89.2,262.1,91.7,261.8,92.7,264.1z"/>
			<path class="st82" d="M87.4,78c0.1,2-1.7,2.4-3,3.1c-0.9-0.7-2.4,0.2-3.1-1.1C83.1,78.6,85.1,78,87.4,78z"/>
			<path class="st71" d="M146.3,129.2c3.1,0,6.2,0,9.2,0C152.4,130.4,149.4,130.6,146.3,129.2z"/>
			<path class="st83" d="M97.4,161.1c0.4,0,0.7,0,1.1,0c1.3,1.7,2.7,3.3,4,5C99.3,166,98.6,163.3,97.4,161.1z"/>
			<path class="st6" d="M175.6,174.9c-1.1,1.6-2,3-4,3.7C171.5,175.6,173.7,175.7,175.6,174.9z"/>
			<path class="st6" d="M89.5,170.9c1.8,0.4,3.2,1.4,4,3C90.9,174.6,90.3,172.5,89.5,170.9z"/>
			<path class="st84" d="M159.5,64.9c-1.3,1.6-2.7,1.6-4.1,0.1C156.7,63.8,158.1,63.4,159.5,64.9z"/>
			<path class="st85" d="M113.5,154.2c-0.4-0.1-0.7-0.2-1.1-0.3c-0.4-1,0.5-1.3,1-1.7c1.4,0,2.8,0.1,4.1,0.1
				C116.5,153.5,115.1,154,113.5,154.2z"/>
			<path class="st78" d="M71.3,105.7c0.1,2.3-1.1,3.6-3.3,4.2C69.1,108.6,70.2,107.2,71.3,105.7z"/>
			<path class="st85" d="M117.5,152.3c0.7-1.8,1.9-3,3.9-3.2C120.8,151.1,119.1,151.7,117.5,152.3z"/>
			<path class="st6" d="M160.4,190.2c1.3,0.7,2.3,1.7,3,3C161.2,193.4,160.2,192.4,160.4,190.2z"/>
			<path class="st59" d="M65.1,116.2c0.5,0,1,0,1.5,0c0.4,1.1,0.3,1.9-1.1,2c-0.8,0.6-1.6,1.3-2.4,1.9
				C62.7,118.2,64.3,117.4,65.1,116.2z"/>
			<path class="st86" d="M81.3,80c1.1,0.2,2.4-0.2,3.1,1.1c-1,0.4-1.9,0.8-2.9,1.1c-0.5-0.4-0.9-0.9-1.4-1.3
				C80.5,80.5,80.9,80.3,81.3,80z"/>
			<path class="st87" d="M63.4,82c0.4,0.4,0.7,0.7,1.1,1.1c-0.6,0.8-1.3,2.4-2.4,1.3C60.9,83.3,62.5,82.6,63.4,82z"/>
			<path class="st6" d="M243.1,153.7c0.3-0.2,0.7-0.5,1-0.6c0.6-0.1,1.4-0.2,1.5,0.7c0,0.3-0.5,0.8-0.9,0.9
				C244,155,243.4,154.6,243.1,153.7z"/>
			<path class="st6" d="M105.5,186.1c0.6-0.4,0.9-0.8,1.3-0.8c0.3,0,0.6,0.4,0.9,0.7c-0.3,0.3-0.6,0.7-1,0.8
				C106.4,186.9,106,186.5,105.5,186.1z"/>
			<path class="st88" d="M159.2,67.1c0.9-0.2,1.8-0.3,2.2-1.2c0.7,0.3,1.4,0.7,2,1c-0.4,1-1.3,1.1-2.2,1.3
				C160.2,68.7,159.4,68.5,159.2,67.1z"/>
			<path class="st60" d="M184.5,94c-2-0.7-2.2-2.3-2-4.1C183.6,91,184.3,92.4,184.5,94z"/>
			<path class="st89" d="M201.4,184.2c-0.4,0-0.8,0-1.2,0.1c-2.7,0-3.4-2.3-4.5-4c-1.8-3-4.1-5.5-7.3-6.9c2.1-3.6,6.5-2.9,9.5-3.6
				c8.1-1.9,16.1-3.9,23.9-6.8c14.1-5.3,28.4-4.3,42.8-2.3c1.9,0.3,2.2,2.4,4.4,2.9c5.7,1.4,11.6,3,16.4,6.1
				c8.1,5.3,17.1,10.3,20.7,20c3.5,9.4,6.9,19.2,1.9,29.4c-1.5,3-0.7,6.5-2.6,9.8c-1.1,1.9-2.5,4-3.8,6.5
				c-4.7-5.9-10-10.6-16.6-13.9c-4.6-2.3-9.4-3.3-14.1-2.8c-4.3,0.5-4.2-1.2-4.5-4.2c-0.2-2.1,1.7-4.1,0.1-6.1
				c-0.9-5.4,4-7.8,6-11.7c1.8-2.7,4.2-4.4,7.4-5.1c0.8-0.2,1.8-0.2,2.3-1c2.3,0,4.8,0.8,7.1-2c-5.4,0.5-9.6-4.7-14.8-1.2
				c-6.5-3.8-11.7-3.9-17,1.5c-4.3,4.4-8.7,4.7-13.8,3.6c-2.3-0.5-4.6-0.7-6.8-1.2c-4.6-1.8-9.5-2.3-14.4-2.9c-1.5-2.9-5-3-7.4-4.2
				c-4.9-2.4-10.1-4.3-15-6.7c-0.5-0.2-1.2,0.1-1.8,0.2C197.9,180.5,200.7,181.8,201.4,184.2z"/>
			<path class="st90" d="M280.4,192.2c-2.7,1.1-5.4,2-7.1,4.7c-5.1,5.2-9,11-9.9,18.4c-0.2,1.9-1.1,3.6-3,4.2
				c-1.6,0.5-3.5,0.9-4.8-0.2c-1.5-1.3,0-2.8,0.6-4c3.1-5.9,4.2-12.6,8.4-18c0.6-0.6,1.2-1.3,1.9-1.9c1.9-1.6,3.8-3.1,6.2-4
				c0.9,0,1.9-0.1,2.8-0.1C277.2,190.8,279.2,189.6,280.4,192.2z"/>
			<path class="st91" d="M278.4,243.2c-6.5-3-13.2-5.2-20.5-5.1c-2.2,0-4.2,0.7-6.4,1c-2,0.3-4.1,0.4-5.2-1.9c0-0.7,0-1.3,0-2
				c0.5-2.1,2.8-1.8,4-3c0.7,0,1.3-0.1,2-0.1c11.7-3.5,21.3,1.2,30.5,7.8c2.1,1.5,1.3,3.5,1.5,5.3c0.1,2.3-1.3,2.3-3,2
				c-0.6-1-2.2-1.5-2-3.1c1.3-0.6,1.6-1.4,0.4-2.4c-8.4-5.2-17-9.7-27.4-6.4c6.1-0.5,12.2,0.2,18,1.8
				C273.8,238,277.7,238.7,278.4,243.2z"/>
			<path class="st92" d="M188.4,173.3c2.9-0.8,4.6,0.6,6.1,2.9c1.8,2.7,3.1,5.8,5.6,8.1c0,1.2,0.6,2.8-1.7,2.1
				c-1.3-0.4-2.7-0.8-4-1.2c-3.4-1.9-6.9-3.6-10.9-4.1c-3.4-2.4,0.1-3.2,1.1-4.7C186.4,175.9,187.5,174.7,188.4,173.3z"/>
			<path class="st91" d="M281.4,235.3c-7.9-3.9-15.9-7.2-25.1-6.1c-2.2,0.3-3-1-2.9-3c0.2-1.8,1.2-3.1,2.9-3.7
				c9.8-3.9,29.6,3.4,34.3,12.7c-0.2,0.1-0.4,0.2-0.6,0.3c-2.2-0.3-3.4-2-4.9-3.2c-7.7-5.9-16.3-8.5-26-7c5.7,1,11.4,2.3,16.7,4.6
				c2.4,1.1,5,1.9,6,4.8C281.6,234.9,281.5,235.1,281.4,235.3z"/>
			<path class="st93" d="M244.5,207.9c0-0.8,0.1-1.5-0.9-1.8c-0.9-0.8-1.7-1.7-2.2-2.7c-1-1.9-0.2-3,1.8-2.8c3.6,0.4,7.1,1.4,10.4,3
				c1.4,0.7,2.1,2.1,1.5,3.3c-1.5,2.9-1,7.6-4.4,8.4c-3.3,0.8-3.3-3.8-5-5.9C245.4,208.9,244.9,208.5,244.5,207.9z"/>
			<path class="st94" d="M236.4,190.1c2.3,0.1,4.6,0.3,6.9,0.7c4.7,0.9,9.3,1.9,13.1-3.1c2.7-3.6,7.4-4.7,12.1-4.7
				c3,0,5.1,1.1,6,4.1c-4,2-7.9,4.1-11.9,6.1c-0.1-0.2-0.2-0.4-0.4-0.6c0.6-3.2,3.5-4.2,6.4-6.1c-4-0.3-7.5-0.1-9.6,2.6
				c-4.4,5.7-9.6,6.3-15.9,4.2c-2.3-0.7-5-0.4-6.8-2.6C236.3,190.6,236.4,190.4,236.4,190.1z"/>
			<path class="st94" d="M264.6,197.2c-2.5,5.9-5,11.8-7.3,17.7c-0.5,1.1-2.5,2.8-0.3,3.7c1.7,0.7,4.4,1,5.2-2.1
				c0.7-2.7,1.4-5.5,2.4-8.1c1.9-4.6,4.2-9,8.7-11.6c-1.9,4-5.7,6.9-6.9,11.4c-1.7,2-1.8,4.5-2.1,7c-0.5,4.4-4.3,6.5-8.4,4.9
				c-1.5-0.6-1.8-1.7-1.3-2.8C258,210.7,258.6,202.6,264.6,197.2z"/>
			<path class="st94" d="M244.5,207.9c2.6,0.5,2.6,3.2,4,4.8c0.6,0.7,1,2.4,1.9,2c3-1.5,2.7-5,4.1-7.5c0.9-1.6,0.2-2.9-1.6-3.4
				c-3.6-1-7.2-2.4-11.3-2.4c0.8,1.7,1.4,3.2,2.1,4.7c-2.1-0.8-3.3-2.2-3.2-4.5c0-1.6,0.6-2.5,2.5-2.2c3.9,0.6,7.7,1.7,11.2,3.6
				c0.8,0.4,1.7,1.2,2.1,2c0.9,1.8-2.9,10.7-4.7,11.5c-2.2,1-3.5-0.4-4.3-2.2C246.1,212.3,245.4,210.1,244.5,207.9z"/>
			<path class="st94" d="M222.4,188.2c5-1.9,9.6-0.2,14,2c0,0-0.1,0.2-0.1,0.2c-2.3,2.1-5.1-0.2-8.2,0.8c5.4,4,12.3,2,17.3,5.7
				c0.3,0.5,0.2,0.9-0.1,1.3c-5.4,0.6-10.4-1.4-15.5-2.5C226.1,194.8,223.9,191.6,222.4,188.2z"/>
			<path class="st95" d="M245.3,198.2c0-0.3,0.1-0.7,0.1-1c4.7-2,9,0,13.4,1.4c-0.9,3.7-3.3,1.9-5.4,1.6
				C251,198.2,247.7,200.2,245.3,198.2z"/>
			<path class="st91" d="M290.5,235.2c3.7,2.5,5.3,6.1,5.8,10.4c-1.1,0.1-1.8-0.4-2.5-1.2c-1.1-3-4.3-5.2-3.6-8.9L290.5,235.2z"/>
			<path class="st94" d="M253.4,200.2c1.8-0.3,4.5,1.6,5-2c-0.4-3,0.8-4.7,3.9-5.1c0,0,0.3,0.3,0.3,0.3c-0.8,1.6-1.9,3.1-2.5,4.7
				C258.8,201.8,256.5,202.1,253.4,200.2z"/>
			<path class="st91" d="M294.4,250.2c-1-2-3.5-3.2-3.1-5.9c0.2-0.1,0.4-0.2,0.6-0.3c0.7,0,1.2,0.3,1.7,0.7c0.8,0.9,1.5,1.9,2.7,2.3
				C296.5,248.6,296.6,250.1,294.4,250.2z"/>
			<path class="st9" d="M250.4,232.2c-0.7,1.8-2.5,2.2-4,3C245.1,230.6,248.8,232.9,250.4,232.2z"/>
			<path class="st94" d="M272.6,191.2c-1.7,1.9-3.8,3.2-6.2,4C267.8,192.9,269.4,190.8,272.6,191.2z"/>
			<path class="st96" d="M280.4,192.2c-1.4-1.7-3.4-0.2-5-1c2.1-1.5,4.4-0.6,6.7-0.8c0.2,0.5,0.6,1.3,0.4,1.5
				C282,192.5,281.2,192.5,280.4,192.2z"/>
			<path class="st97" d="M296.3,247c-2.4,1.9-2.6-0.1-3.1-1.7c0.2-0.8,0.6-1.2,1.4-1.4c0.6,0.5,1.1,1.1,1.7,1.6
				C296.3,246,296.3,246.5,296.3,247z"/>
			<path class="st38" d="M105.2,309.1c-1.7,2.7-3.4,5.4-5.1,8.1c-5.1,4.9-9.5,10.6-15.8,14.2c-1.7,1.3-3.3,2.7-4.8,4.3l0.1-0.1
				c-1.8,0.4-2.8,2-4.2,2.8c-2.5,1.9-4.5,4.5-7.8,5.1l-0.3-0.3c0-1-0.4-2.2,0.7-3c3.1-2.2,4.3-5.8,6.5-8.7c0.9-0.5,0.3-2.2,1.8-2.2
				c1.9-1.1,5.7,0.6,5.7-2.3c0-2.8-3.6-1.7-5.6-2.1c-2.7-0.6-5.4-0.9-8.2-1.3c-1.9-0.4-3.8-0.8-5.7-1.2c-1.7-0.8-3.6-1.2-5.4-1.9
				c-2.9-2.1-6.6-1.7-9.7-3c-5.6-1.2-10.9-3.1-15.9-6.1c-0.8-0.3-1.4-0.9-1.8-1.7c-1.2-1.7-3.8-0.8-4.9-2.7
				c-0.5-0.7-0.9-1.4-1.4-2.1c-0.2-0.4-0.3-0.8-0.3-1.2c0.3-0.9-0.1-1.6-0.7-2.3c-2.4-2.5-5.4-2.9-8.6-3.2c-2.7-0.2-5.4-0.5-6.5-3.6
				c0.4-1.6,0.4-1.6,2.3-0.3c1.5,3.2,4.2,0.7,5.4,1.5c-3.6,0.3-3.6,0.3-4.3-1.8c6,0,12-0.1,17.7-2.6c5.8-2.7,10.7-6.7,15-11.3
				c8.4-8.9,18.8-11.8,30.6-11.1c2.1,0.1,4.3,0.3,6.4,0.4c0.3,0.5,0.3,0.9-0.1,1.3c-3.5,1.6-7.1,0.1-10.7,0.6
				c-2.4,0.3-4.9,0-6.2,0.8c5.5-1.4,12.1-0.9,18.7-0.4c1.8,0.2,3.6,0.5,5.2-0.6c0.7-0.2,1.4-0.3,2,0.3c4.7,1.6,9,3.8,12.1,7.9
				c0.8,1.5,2,2.8,3.1,4.1c0.9,1.7,1.7,3.4,2.6,5.2c1.7,1.3,0,3.7,1.7,5c0,1.3,0.6,2.7-0.5,3.8l0-0.1c-0.5,3.1-0.8,6.2-1.8,9.1
				C106.1,307.3,104.8,307.8,105.2,309.1z"/>
			<path class="st98" d="M27.2,350.2c3.6-9.8,7-19.7,11.8-29.1c2.2-1.9,4.3,0,6.5,0l-0.1,0c2.1,1.8,5,1.5,7.4,2.5
				c1.3,0.6,2.6,0.8,1.6,2.6c-5.8,10.1-10.6,20.8-17.7,30.2c-1.1,0.2-2,1.1-3.1,1.2c-0.7,0.4-2.3-2.1-2.2,0.8
				c-1.1,0.5-2.2,0.9-3.3,1.2c-4.4,1.1-5.1,0.2-3.7-4.2C25.3,353.7,26.3,351.9,27.2,350.2c3.5,1.1,2.3-2.6,3.8-3.5
				C29.5,347.6,30.4,351.1,27.2,350.2z"/>
			<path class="st38" d="M20.4,309.3c-0.3-2.1,1.6-3.2,2-5c0.3-0.5,0.6-0.5,0.9,0l0.1,0.1c0.9,1.1,1,2.3,0.7,3.6
				c-0.5,1.7-1.8,3.2-1.4,5.7c4.4-2.4,5.9,1,7.9,3.8c2.2,3,0.3,4.7-1.2,7c-2.7,3.8-4,8.4-7.1,12.1c3-3.6,4.3-8.2,7.1-11.8
				c1.8-2.3,2.5-4.8,2.8-7.5c2.2,1.1,3.5,2.4,1.7,4.9c-6.6,9.5-11.2,20.1-16.8,30.1c-2.7-0.6-2.8-2.7-3-4.9
				c-0.5-6.6-0.1-13.2,1.3-19.7c0.4-3.2,1-6.3,1.7-9.4c0.2-0.2,0.3-0.5,0.1-0.7C19.6,315.2,19.1,312,20.4,309.3z"/>
			<path class="st99" d="M50.2,344.1c2.1-5.2,4.9-10.1,8-14.8c1.6-1.9,2.6-4.9,6-2.9c4.8,0.5,4.7,2.6,2.3,6.1
				c-3.8,5.6-7.4,11.4-11.1,17.1c-1.1,1.7-2.8,2.8-4.5,3.8c-2,0.2-4,3.7-5.9-0.1l0,0c1.2-1.1,1.2-2.8,2.2-4l0,0
				C48.7,347.8,49.4,345.9,50.2,344.1z"/>
			<path class="st100" d="M32.4,317.3c1,2.5,0.4,4.6-1.1,6.9c-3.2,4.9-6,10.2-9.1,15.5c-1.3-1.6-1.3-3.8-0.4-4.5
				c3.8-3.1,3.6-8.5,7.1-11.6c3-2.7,1.7-4.4,0-7c-1.9-2.9-3.6-3-6-1c-0.4,0.3-1.2,0.3-2.9,0.8c2.3-2.9,0.1-6.3,3.4-8
				c1.3-0.6-0.6-3.3,2-3c0.3,2.4,2.1,1.9,3.6,2c1.3,0.1,3,0.2,1.1,2.1c-2,2.5-0.2,4.1,1.3,5.9C31.7,316,32,316.6,32.4,317.3z"/>
			<path class="st101" d="M68.1,323.4c4.3-0.8,8.5,1.5,12.8,0.9c1.3-0.2,2.9,0.1,3,1.8c0.1,1.8-1.3,2.7-2.8,3
				c-1.6,0.3-3.3,0.1-5,0.1c1.3-1.2,3.7-0.2,4.9-2.7C76.7,325.5,72.4,324.5,68.1,323.4z"/>
			<path class="st102" d="M16.3,327.3c0.1,6.3-1.7,12.4-1,18.7c0.2,2.3,0,4.7,2.1,6.4c-1.2,1.6-1.2,1.6-2.8-1
				c-1.5-5.7-0.6-11.5-0.6-17.2c0.6-2.2,0.8-4.6,1.6-6.7l0,0.1C15.6,327,15.9,326.9,16.3,327.3z"/>
			<path class="st103" d="M24.4,355.4c-0.3,5,0.4,5.2,7,2c0.6-0.6,1.2-0.6,1.9-0.1c1.1-0.3,2.1-1.2,3.4-0.8
				c-2.9,2.6-6.4,3.4-10.1,3.6c-1.4,0.1-3.3,1.1-4.1-0.5C21.8,357.9,23.2,356.6,24.4,355.4z"/>
			<path class="st20" d="M14.4,333.4c-0.3,6-0.4,12,0.1,18c-2.2-2-0.6-4.7-1.3-7c-0.4-1.7-0.5-3.3,0-5c0.1-2,0.1-4,0.2-5.9
				C13.7,332.8,14.1,332.8,14.4,333.4z"/>
			<path class="st101" d="M74.4,331.5c-1.3,3.6-2.6,7.1-6.5,8.7C70,337.3,71.5,333.9,74.4,331.5z"/>
			<path class="st104" d="M54.4,326.4c-0.4-2.6-2.8-2.4-4.4-2.9c-1.7-0.5-3.5-0.5-4.5-2.3c2.6,0.6,5.2,1.1,7.7,1.9
				C54.6,323.5,56.7,324.2,54.4,326.4z"/>
			<path class="st101" d="M47.3,317.4c3.5,0.4,7.2,0.1,10.1,2.7c-0.2,0.7-0.6,0.9-1.1,0.4C53.3,319.4,50,319.1,47.3,317.4z"/>
			<path class="st19" d="M16.3,327.3c-0.3,0.1-0.5,0.2-0.8,0.3c-0.5-3.3,0.2-6.3,1.9-9.2C18.2,321.4,16.6,324.3,16.3,327.3z"/>
			<path class="st22" d="M20.4,309.3c-0.1,3.1-0.3,6.1-2.9,8.3c-0.1-0.5-0.1-0.9-0.2-1.4C19.2,314.3,18.2,311.1,20.4,309.3z"/>
			<path class="st105" d="M64.3,326.4c-3-1-4,2-6,2.9C59.1,326,60.5,323.7,64.3,326.4z"/>
			<path class="st106" d="M45.2,353.2c1.9,2.5,3.9-0.5,5.9,0.1c-1.5,1.7-3.5,2.3-5.6,2.1C43.7,355.2,44,354.1,45.2,353.2z"/>
			<path class="st107" d="M67.5,343.5c0.2,2.7-2,2.7-3.6,3.4c0.6-1.7,0.8-3.7,3.3-3.7C67.2,343.2,67.5,343.5,67.5,343.5z"/>
			<path class="st104" d="M45.5,321.2c-2.2,0-4.3,0-6.5,0C41.2,317.3,43.3,321.1,45.5,321.2z"/>
			<path class="st101" d="M79.5,335.6c0.9-2.2,2.3-3.8,4.8-4.3C83.3,333.5,81.4,334.5,79.5,335.6z"/>
			<path class="st19" d="M14.4,333.4c-0.3,0-0.7,0-1,0c0.7-2,0.4-4.4,2.1-6C15.8,329.5,15.4,331.5,14.4,333.4z"/>
			<path class="st106" d="M50.2,344.1c-0.1,2.3-0.8,4.2-2.9,5.3C47.6,347.2,48.7,345.5,50.2,344.1z"/>
			<path class="st101" d="M75.4,338.4c0.9-1.7,2-3.1,4.2-2.8C78.5,337,77.4,338.3,75.4,338.4z"/>
			<path class="st106" d="M47.3,349.3c-0.1,1.7-0.5,3.2-2.2,4C45.3,351.6,45.9,350.3,47.3,349.3z"/>
			<path class="st19" d="M13.2,339.4c0,1.7,0,3.3,0,5C12,342.7,12,341,13.2,339.4z"/>
			<path class="st108" d="M84.4,261.4c0.9,1.4,3.1,0.3,3.9,1.8c0,0.7,0,1.3,0,2c-0.5,0.2-0.9,0.1-1.1-0.5c-7.1-3-14.5-2.4-21.8-1.2
				c-1.2,1-2.5,1-3.9,0.9c-1.1-1.4,1.5-1.7,0.9-2.9c0.3-0.2,0.6-0.2,1-0.1c1.5-1.1,3.5,0.1,5-0.9c3-0.7,6-0.6,9.1,0
				c1.7,0.9,3.7,0,5.4,0.8C83.3,261.2,83.9,261.3,84.4,261.4z"/>
			<path class="st109" d="M9.4,294.4c-0.7-0.2-1.5-1.1-2.1,0.1c-1.3-2.9,1-1.8,2-1.6c6.5,1,12.8-0.1,19.1-1.5
				c-5.5,4-11.9,2.9-18,3.1C10,294.8,9.7,294.8,9.4,294.4z"/>
			<path class="st110" d="M65.4,263.5c7.4-1.8,14.7-2.7,21.8,1.2C80.1,262.4,72.7,263.2,65.4,263.5z"/>
			<path class="st111" d="M109.5,285.2c3,5.4,2.4,11.1,1.7,16.8c-0.1,1-0.9,1.3-1.7,1.6C111.4,297.5,109.9,291.3,109.5,285.2z"/>
			<path class="st112" d="M80.6,270.2c-0.1-0.3-0.2-0.6-0.2-0.9c3.2-0.3,6.2,0.4,8.9,2c-0.6,0.1-1.3,0.1-1.9,0.2
				C84.9,272.4,82.4,273.3,80.6,270.2z"/>
			<path class="st22" d="M106.5,306.3c-0.2-3.2,0.8-6.2,1.8-9.1C108.9,300.5,108.4,303.5,106.5,306.3z"/>
			<path class="st111" d="M107.4,280.2c1.3,1.4,2.1,3.1,2,5C107.7,284,107.2,282.3,107.4,280.2z"/>
			<path class="st113" d="M104.5,283.3c-1.7-0.8-3.1-2-3.1-4.1C102.8,280.3,104.3,281.3,104.5,283.3z"/>
			<path class="st111" d="M108.3,293.5c-0.4-1.7-0.8-3.4-1.2-5.1c2.1,0.6,1.2,2.4,1.5,3.7C108.9,292.7,108.8,293.2,108.3,293.5z"/>
			<path class="st22" d="M108.3,293.5c0.1-0.5,0.2-0.9,0.4-1.4c0.9,1.8,1.5,3.5-0.4,5.1C108.3,296,108.3,294.8,108.3,293.5z"/>
			<path class="st6" d="M279.4,275.3c-2.5-3.8-0.4-7.9-0.8-11.8c0-0.1,0.6-0.4,0.7-0.4c4.4,2.5,4.8-2.4,7.1-3.8c1.9,2,0.3,5,2,7
				c0.1,1.9-0.6,2.8-2.7,3.1c-2.6,0.4-4.6,2-5.3,4.8C280.1,274.6,279.8,274.9,279.4,275.3z"/>
			<path class="st89" d="M288.4,266.3c-1.4-0.1-3.1,0.3-2.4-2.3c0.4-1.5,0.3-3.2,0.4-4.8c0-1,0-2,0-3c-1.3-3-1.3-6,0-9
				c3.3,0.3,4.6,3.8,4.3,5.4c-0.6,3.4,0.5,6.4,0.7,9.6c-0.2,1.6-0.8,2.9-2,4C289.1,266.3,288.8,266.3,288.4,266.3z"/>
			<path class="st6" d="M289.4,266.3c-0.1-1.7,0.2-3.2,2-4c2.2-3.1,0.2-6.7,1.3-10.1c4.1,3,5.4,6.1,1.1,10c-0.6,0.6-0.2,2.2-0.6,3.3
				C292.4,267.4,291.3,268.5,289.4,266.3z"/>
			<path class="st6" d="M286.4,247.2c0,3,0,6,0,9c-0.7,0.2-1.9,0.8-1.9-0.5c0.1-3.8-3.3-4.5-5.3-6.4l0,0c0.1-1.3,0.7-2.1,2.1-2.2
				c1-0.7,2-1.3,3-2C286.3,244.8,285.5,246.8,286.4,247.2z"/>
			<path class="st91" d="M291.3,244.3c-2-2-4.7-3.3-6-5.9c0.2-0.1,0.4-0.3,0.6-0.4c3.3,0.7,6.1,1.9,5.7,6.1L291.3,244.3z"/>
			<path class="st91" d="M285.3,238.4c-1.9-0.3-3-1.6-3.9-3c0,0,0.2-0.3,0.2-0.3c2.6-0.7,3.7,0.6,4,3L285.3,238.4z"/>
			<path class="st34" d="M149.4,428.5c3.9-0.1,4.9,2.1,3.2,5c-1.4,2.5,0.3,6.9-2.6,7.4c-5.1,0.9-10.5,1.3-15.6-0.5
				c0-2.8-1-5.1-4.1-3.3c-9.2,5.4-19.2,4.3-29.2,4.4c-5.2,0-10.4,0-16,0c1.4-2.6,4.1-1.3,5.4-2.9c6.1-0.9,11.3-3.9,16.2-7.2
				c2.5-1.7,4.6-1.8,7.4-1.5C125.9,431.1,137.7,431.3,149.4,428.5z"/>
			<path class="st6" d="M139.4,428.5c0.4-2.5,0.6-2.9,3.3-3c7.9-0.1,12.3-4.5,15.4-11.3c3-6.4,7.7-11.9,10.7-18.4
				c0.5-1,1.4-1.6,2.7-1.9c2.5-0.6,3.2-2,2.1-4.8c-0.7-1.7,1-3.7,2.6-4.7c2.3-1.5,1.7,1.7,3.2,2.1c-2-1.4,5.1-3.6-0.8-4.7
				c-0.6-0.1-0.9-1.4-0.2-1.6c3.5-1,3.1-4,3.6-6.4c0.9-4,3.8-6.9,5.5-10.4c1.4,1.1-0.5,5,3.4,4.2c0.1,1.3,0.3,2.6-0.4,3.8
				c-5.9,9.5-10.3,19.9-16.7,29.2c-2.2,3.2-4.9,6-6.4,9.7c-1,2.4-2.8-0.7-4.6,0.2c1.7,1.5,3.5,3,1.2,5.5c-0.9,0.9-0.7,2.5,0.6,3.5
				c3,1.4,6.2,1.9,9.5,2c4,0.1,8.3-1.5,11.9,2.4c1.6,1.7,3.9,0.1,3.5-2.5c-0.2-1.5,0.2-1.7,1.3-1.9c1.5-0.2,2.8-0.1,4.1-1.2
				c3.6-2.9,2.5,0.6,2.8,2.2c-0.7,0.3-1.8,0.4-2.1,0.9c-0.7,1.3,0.8,1.4,1.5,1.8c1.1,0.6,2.6,0,3.5,1.2c-10.3,1.2-20.5,4.1-30.9,4.1
				c-2.6,0-5.2-0.7-7.9-0.8c-3.6-0.2-5.1,1.3-3.1,4.8c-2.4,1.9-3.7,1.4-4.1-1.8c-0.4-3.3-2.2-4.1-5-2.3
				C146,428.4,142.7,428.4,139.4,428.5z"/>
			<path class="st6" d="M121.4,429.5c2.7-2.9,7.9-2.9,9,0C127.4,429.5,124.4,429.5,121.4,429.5z"/>
			<path class="st110" d="M82.8,261.1c-1.8-0.1-3.8,0.8-5.4-0.8C79.3,260.1,81.1,260.3,82.8,261.1z"/>
			<path class="st110" d="M68.4,260.4c-1.5,1.5-3.3,0.7-5,0.9C64.9,260,66.6,260.2,68.4,260.4z"/>
			<path class="st114" d="M174.6,266.1c5.8,2,10.7,5.8,16.7,7.3c8.3,5.1,8.5,5.2,14.3-2.3c3.8-4.9,7.4-10.1,10.8-15.4
				c1.4-2.2,2.7-2.6,4.7-1.5c2.7,1.2,4.1,3.2,3.7,6.3c0,0.3-0.1,0.7,0,1c3,11.3-0.4,22-2.6,32.9c-0.4,2-0.5,3.9-0.4,5.9
				c0.1,3.6,2.3,5.6,5.4,6.2c3.1,0.5,6.9,1.3,8.1-3.4c1.1-2.2,0.5-4.7,1.2-7c0.9-2.3,0.7-5.7,4.8-4.7c3,2.5,6.6,3.2,10.3,2.8
				c3.2-0.3,4.1,0.9,3.8,4c-1.4,12.6-4.5,24.8-8.9,36.7c-9.8,26.7-25,50.3-41.7,73c-6,8.1-14.8,10.8-24.5,11.3
				c-4.3,0.2-8.6,0.1-12.9-0.4c-3.7-1.4-1.4-3.3-0.3-5c8.5-13.1,16.7-26.4,23.8-40.5c6.1-12.2,11.2-24.9,14.6-38.2
				c2.2-7.2,2-14.8,2.9-22.1c0-1,0.1-1.9,0.1-2.9c0.4-0.3,0.9-0.3,1.3,0.1c0.5,2.7,0,5.5,0.2,7.8c0.6-4.4-1-9.2,0-14
				c0.1-0.6,0.2-0.8,0.1-0.2c-0.1,0.4-0.2,1-0.5,1.4c-0.4,0.3-0.8,0.2-1.2-0.1l0,0c-1.2-1.3,0.6-4.6-1.9-4.4
				c-2.9,0.2-1.6,3.2-1.5,4.9c0.1,3.7-0.9,7.1-1.5,10.7c-2.1,11.2-6.5,21.7-11.2,32c-11.2,24.5-24.9,47.5-39,70.3
				c-1.6,2.6-3.6,4.1-6.6,4.6c-7.7,1.3-15.4,3-23.3,2.2c-0.4-0.5-0.4-0.9,0.1-1.4c2-0.4,3.9-0.1,5.9-0.2c-2.7-0.1-5.4-0.1-8.2,0.4
				c-6-0.7-6.1-0.7-4.2-6.2c3.9-11,7.1-22.3,9.5-33.7c0.5-2.5-0.1-5,0.8-7.4c-0.2-0.2-0.2-0.5,0-0.7c2.4-9.6,1.9-19.4,1.8-29.2
				c0.2-2.8,0.5-5.7,0-8.6c-0.2-0.5-0.2-1,0.2-1.4c7.3-5.5,14.4-11.1,21.8-16.4c4.9-3.5,8.3-7.9,10.2-13.6c0.5-1.4,1.3-2.7,1.9-4
				c2.8-6.8,4.2-13.9,5.1-21.1l0,0.1c1.4-2.2-0.2-4.9,1-7.1c-0.1-0.3-0.1-0.6,0-0.9c0.4-0.3,0.9-0.3,1.3,0c0.2,0.6,0.3,1.2,0.2,1.9
				c0.1-0.4,0-0.8,0-1.3c-0.1-3.2-2.1-6.7,1.5-9.3C173.2,265.6,173.9,265.8,174.6,266.1z"/>
			<path class="st115" d="M193.6,271.2c-1.8-1.5-3.9-2.4-6.1-3c-5.1-3.1-10.5-5.8-16.1-8c-1.4-1.1-1.9-2.5-2-4.3
				c-0.3-16.3-0.7-32.6-1.1-48.9c-0.1-2.6,0.5-4.2,2.7-6.2c3.6-3.3,6.4-7.7,9-11.9c2-3.3,4.2-3.6,7.4-2.2c5.2,2.1,10.5,4,15.8,5.9
				c7.2,8.3,14.9,16.1,21.5,24.9c4.2,5.6,7.7,11.6,11.2,17.7c1.7,2.9,1.8,5.1-1.5,6.9c-2.8,1.6-5.1,3.9-6.5,6.8
				c-1.6,3.1-3.3,3.9-6.1,1.6c-3.6-3-5.8-1.9-8,2.1c-3.5,6.3-8,11.8-13,17C198.6,271.9,196.5,272.6,193.6,271.2z"/>
			<path class="st38" d="M241.4,279.3c1.3,1.7,2.6,3.4,4,5.1c0.8,1.5,0.4,2.2-1.2,1.8c-1.4-0.3-2.6-1.3-3.9-1.8l0.1,0
				c-1.8-1.6-3.5-3.3-5.1-5.1l0.1,0c-1-1.7-1.5-3.7-3.1-5.1l0,0.1c-0.5-1.7-1.1-3.4-1.1-5.3c0.3-3.9,0.1-7.7,0-11.6
				c-0.1-3,1.7-5.1,3.1-7.5c3.5-5.3,8.5-7.5,14.7-7.7c7.4-0.2,14.9-1.6,22.1,1.5c1.2,0.5,2.5,1,3.3,2.1c1.7,1.7,3.6,3.2,5,5.2l0,0
				c0.7,2.1,0.1,2.9-2.1,2.1l0,0c-0.8-1.1-1.8-3-2.4,0c-0.2,1.1-0.3,2.2-0.5,3.4c0.3,6.7,0.7,13.4-0.1,20.1c-0.3,2-0.6,3.9-2,5.5
				c-0.7,0.7-1.4,1.4-2,2.1c-2,1.6-3.4,1.6-4-1.4c-0.3-1.5,0.1-3.3-1.2-4.6c-1.3-4.1-1.5-8.4-2-12.7c-0.6-1.9,0-4-1.2-5.7
				c0-1.8,1-3.7-0.6-5.3c-2.7-1.2-3.4,0.8-3.5,2.6c-0.5,7.1-0.8,14.1,1.5,21l0-0.1c0.4,0.7,0.5,1.6,0.4,2.4
				c-0.5,2.6,1.6,6.5-1.6,7.5c-2.7,0.8-4.4-2.9-6.2-4.8c-2.2-2.4-3.9-5.2-5.8-7.9c-2.3-3-3.5-6.6-4.8-10.1c-2-1.9,0.1-6-3.7-6.9
				c-2.1,2.5-1.4,5.2-0.7,7.9c1.5,2.2,0.5,5.1,1.8,7.4C239.7,275.5,240.6,277.4,241.4,279.3z"/>
			<path class="st116" d="M229.4,280.5c1.6,3.3,4,5.8,6.9,7.9c1.1,1.6,0,3.2,0,4.8c-0.7,1.8-0.6,3.7-0.9,5.6c-0.1,0.5-0.2,1-0.3,1.5
				c-0.5,1.7-0.3,3.7-1.8,5.1c-6.9,2.9-11.7-0.5-10.8-7.9c0.5-4,1-8,2-11.8C225.1,283.2,225.1,279.6,229.4,280.5z"/>
			<path class="st117" d="M229.4,280.5c-0.9,0-1.5,0.3-2,1.2c-3,6-3.1,12.5-3.7,18.9c-0.4,4.2,4,5.7,9.7,3.8c1.3-1.5-0.1-3.5,1-5
				l0,0c0.4-0.3,0.8-0.4,1.3-0.2c0.6,0.4,1,1,1.2,1.7c0,0.9,0.2,1.9-0.4,2.7c-0.1,5.6-4.3,5-7.8,5c-4.4,0-8.6-3.3-8.3-7
				c0.6-7.8,0.5-15.7,4.7-22.8c1.6-2.7-1.1-21.3-3.2-23.6c-0.2-0.2-0.4-0.5-0.6-0.8c3.5,0.2,4.6,2.5,4.2,5.5
				c-0.9,6.5,2.9,12.4,1.8,18.9C227.1,279.4,229.1,279.2,229.4,280.5z"/>
			<path class="st118" d="M278.4,243.2c-6.2-6.4-14.3-6.2-22.3-6.4c-2.4-0.1-4.8,1.2-7.3,0.3c2.4-4.1,8.7-6.1,15.3-4.2
				c6.2,1.8,12.3,4,17.4,8.3c0.9,2.3-0.1,2.8-2.2,2.1l-0.4,0L278.4,243.2z"/>
			<path class="st119" d="M262.6,259.1c0.9,2.1,1.1,4.3,0.7,6.6c-1.2-2.6-1.6-5.4-2-8.2c-0.1-0.8,0.1-1.9-1-2c-1.3-0.2-1.5,1-1.7,2
				c-0.8,5.2-0.1,10.3,0.5,15.4c0.2,1.8,0.3,3.6,0.5,5.4c-0.5-0.6-1.4-1.2-1.5-1.9c-0.9-7-2-14.1-0.4-21.1c0.5-2.2,2.4-4.6,4.8-1
				C263.2,255.9,263,257.5,262.6,259.1z"/>
			<path class="st119" d="M246.2,275.3c4,2.8,5.6,7.8,9.4,10.7c0.8,0.6,1.4,2.2,2.8,1.3c1-0.6,0.9-1.7,0.9-2.7
				c0-2.2,0.1-4.3,0.1-6.5c0.8,3.6,3.4,8.2-0.5,10.3c-3.6,2-5.4-3.2-7.7-5.4C249.1,281,247.1,278.5,246.2,275.3z"/>
			<path class="st120" d="M238.5,274.1c-1.8-2.3-0.4-5.5-2.1-7.9c-0.2-3.4-1.8-6.9,1.1-9.9c4.2,1.7,2.8,5.9,3.9,9
				c-1.3-1.5-1.9-3.4-2.9-5.2c-2,4.9,0.5,9.5,1.1,14.1C239.2,274.8,238.8,274.7,238.5,274.1z"/>
			<path class="st121" d="M234.3,250.1c-1,2.4-1.9,4.8-2.9,7.3c0.7,3.9,0.7,7.9,0,11.8c0.8,1.7,1.2,3.4,0.8,5.2
				C228.1,266.4,229,255.5,234.3,250.1z"/>
			<path class="st63" d="M272.4,282.2c0.3-1.6,0.7-3.3,1-4.9c1.2-6.2,0.1-12.4,0.6-18.6c0.3-0.6,0.8-0.8,1.4-0.4
				c0.2,0.2,0.2,0.5,0.1,0.8c0.6,5.5,0.6,11,0,16.5C275.3,278.1,274.8,280.6,272.4,282.2z"/>
			<path class="st6" d="M204.8,418.1c-2.6,0.6-4.6-0.1-5.7-2c-0.5-0.9,0.9-1.7,1.8-1.8C203.9,413.8,204.1,416,204.8,418.1z"/>
			<path class="st122" d="M275.5,275.5c0-5.5,0-11,0-16.5C276.8,264.5,277.4,270,275.5,275.5z"/>
			<path class="st123" d="M240.3,284.4c1.7-1.1,3.4,2.9,5.1,0c1.6,0.5,2.3,1.7,2.9,3.6C244.7,288.5,242.4,286.6,240.3,284.4z"/>
			<path class="st63" d="M265.2,278.3c1.7,1.1,1.9,3,2,4.6c0.3,2.7,1.9,1.2,3.1,1.4c-2.2,2.7-4,3-4.6-1.1
				C265.5,281.6,265.4,280,265.2,278.3z"/>
			<path class="st122" d="M275.5,258.3c-0.3,0-0.6,0-1,0c-0.8-0.9-0.7-1.9-0.1-2.9c0-0.5-0.1-1-0.1-1.5c0.1-1.3-1.8-3.3,0.4-3.8
				c1.8-0.4,2.7,1.4,2.7,3.2c-1.4-0.7-2-0.4-1.9,1.3C275.5,255.8,275.5,257,275.5,258.3z"/>
			<path class="st124" d="M277.4,253.3c1.4,0,1.9-0.9,2.1-2.1c1.2,0.6,1,1.8,1.1,2.8c0.1,1.3,1.5,3.1-1.3,3.3
				C278.4,256.1,277.5,254.9,277.4,253.3z"/>
			<path class="st125" d="M279.3,257.3c1.3-0.8,1-2.2,1.3-3.3c1.4,1.8,1,3.9,1.6,6.4C279.9,259.8,279.6,258.5,279.3,257.3z"/>
			<path class="st122" d="M279.5,251.2c-2.1-1.3-4-2.8-5-5.2c1.6,1.1,3.2,2.3,4.7,3.4c0,0,0,0,0,0
				C279.3,250,279.4,250.6,279.5,251.2z"/>
			<path class="st126" d="M241.4,291.5c-3.6-0.1-2.5,3.3-3.8,4.9c-0.2-0.1-0.4-0.3-0.6-0.4c-0.8-1.4-0.8-2.8-0.1-4.2
				c0.2-0.2,0.3-0.3,0.5-0.5C238.8,290.9,240.2,289.2,241.4,291.5z"/>
			<path class="st123" d="M235.2,279.4c2.3,1,4,2.8,5.1,5.1C237.9,283.5,236.2,281.8,235.2,279.4z"/>
			<path class="st127" d="M279.3,243.3c1.3-0.1,2.1-0.7,2.2-2.1c1.9,0.7,1.2,2.2,0.6,3.2c-0.7,1.2-1.7-0.1-2.5-0.2
				C279.5,243.9,279.4,243.6,279.3,243.3z"/>
			<path class="st121" d="M232.3,274.3c2.3,0.9,2.9,2.9,3.1,5.1C233.6,278.1,232.6,276.4,232.3,274.3z"/>
			<path class="st121" d="M238.5,274.1c0.4,0,0.7,0,1.1,0.1c1.1,1.5,2.3,3,1.9,5.1C239.8,277.9,239.3,275.9,238.5,274.1z"/>
			<path class="st126" d="M235.3,293.2c0.3-1.6,0.6-3.3,1-4.9c1.3,0.6,1.1,1.9,1.1,3c0,0,0,0,0,0c-0.8,0.6-0.2,2.1-1.6,2.2
				C235.7,293.4,235.5,293.3,235.3,293.2z"/>
			<path class="st6" d="M197.5,420.6c1.2,0,2.5,0,3.8,0c0,0.2,0.1,0.4,0.1,0.4C199.9,421.7,198.6,421.7,197.5,420.6z"/>
			<path class="st128" d="M234.4,397.4l-0.5,0.1l-0.5,0c-0.9-2.2,1.2-4,0.8-6.3c-1.7,1.2-1.8,3.6-3.8,4.3c0.9-3.4,2.2-6.4,5.6-8.7
				C237,390.8,234.4,393.9,234.4,397.4z"/>
			<path class="st129" d="M163,435.6c0.6,1.9,0.5,4.5,3.4,3.8c3.6-0.8,8.4,2.7,10.8-2.4c-1.2,6.3-6.5,2.9-9.9,3.3
				C162.5,440.9,162.5,440.4,163,435.6z"/>
			<path class="st35" d="M161.5,441.4c-1.8-2-0.9-4.8-2.1-6.9c0-0.3,0.1-0.7,0.1-1C161.9,435.7,161.3,438.7,161.5,441.4z"/>
			<path class="st68" d="M100.4,89c1.9,0.1,3.5-0.9,5.1-1.8c1.3,0.1,2.7,0.1,4,0.4c1.8,0.4,4.1,1,3.7,3.2c-0.3,1.9-2.4,0.9-3.8,0.9
				c-3.8-0.2-6.8,1.4-9,4.5c-2.3,3.3-4.8,6.6-4.6,11.1c0,0.8-0.1,0.8-2.6,0c-1.1-3.8-0.1-7.5,1.1-11c1-1.7,2-3.3,3-5
				C98.4,90.4,99.4,89.7,100.4,89z"/>
			<path class="st130" d="M159.2,67.1c0.7,0.4,1.4,0.7,2.1,1.1c2.2,1.1,4.5,2.1,6,4.3c0.9,1.3,1.9,2.5-0.1,3.7
				c-5.7-3.5-11.7-4.3-18-2c-1.1,0.4-3.2,1.8-2.8-1.3c2.1-1.6,4.1-3.2,6.2-4.8C154.7,67.5,156.9,66.7,159.2,67.1z"/>
			<path class="st131" d="M67.4,126.1c0.7-1.3,1.3-2.7,2-4c0.1-0.2,0.2-0.5,0.3-0.7c3.6-2.2,7.6-2.6,11.7-2.7c2.8,0,3.1,1.3,1.5,3.3
				c-1.6,1.4-3.7,1.4-5.6,2.1l0,0c-1.4,1.3-3.5,1.7-4.9,3.1c-0.3,0.3-0.7,0.7-1,1c-0.5,0.6-0.9,1.3-1.5,1.9
				c-0.8,0.8-1.7,1.7-2.9,0.9c-1.3-0.9-0.6-2-0.2-3C66.9,127.3,66.9,126.6,67.4,126.1z"/>
			<path class="st131" d="M115.4,112.2c1.3,2.1,3,4.1,1,6.8c-1.2,1.7-2.8,2.4-4.7,2.1c-4-0.5-4.4-3.4-4.1-6.7
				C109.4,111.1,111.7,109.3,115.4,112.2z"/>
			<path class="st132" d="M164.4,95.6c-0.3,2.9-1.9,4.6-4.8,4.7c-3,0.1-4.7-1.6-4.8-4.5c-0.2-3.3,1.9-5,4.9-5
				C162.5,90.7,163.9,92.8,164.4,95.6z"/>
			<path class="st133" d="M65.5,118.1c1-0.3,0.9-1.2,1.1-2c1-1,1.9-2,2.9-3c0.6-0.3,1.2-0.7,1.8-1c1.1-0.8,2.5-0.8,3.8-1
				c1.8,0.2,3.8-0.6,5.3,1.2c0.2,1-0.3,1.5-1.1,1.8c-2.4,1.2-4.8,2.4-7.2,3.6c-0.4,1.8-2.2,2.8-2.8,4.5c0,0,0.1-0.1,0.1-0.1
				C66.6,122.3,65.1,121.2,65.5,118.1z"/>
			<path class="st134" d="M69.4,122.2c-0.7-2.5,1.3-3.3,2.8-4.5c2.8,2.7,5.9-0.7,8.8,0.3c1.4,0.5,3.6-0.7,4.2,1.6
				c0.6,2.2-1.4,2.7-2.8,3.5c-0.3-0.2-0.5-0.5-0.3-0.7c0.1-0.2,0.2-0.3,0.3-0.3c1.9-2.5,0.6-3.3-1.8-3
				C76.7,119.5,72.9,120.3,69.4,122.2z"/>
			<path class="st78" d="M75,111.9c-1.2,0.1-2.4,0.1-3.6,0.2c2.5-3,6-2,9.2-2c1.5,0,2,1.2,1.7,2.4c-0.3,1.4-0.7,3.2-2.9,1.5
				c0.3-0.4,0.6-0.7,1-1.1C79.1,110,76.8,112,75,111.9z"/>
			<path class="st59" d="M67.4,126.1c0.7,1.5-1.9,3.4,0.1,4.4c1.8,0.9,2.4-1.9,3.9-2.4c0,0.2,0,0.3-0.1,0.5
				c-0.9,2.5-2.7,4.6-5.1,2.9C64.1,130,65.9,127.7,67.4,126.1z"/>
			<path class="st135" d="M115.4,112.2c-3.2-1.3-5.8-0.4-7.8,2.2C109.2,109.7,111.9,108.9,115.4,112.2z"/>
			<path class="st136" d="M113.4,152.1c-0.3,0.6-0.7,1.2-1,1.7c-2.3,0.1-4.6,0.2-7,0.2C107.7,152.2,110.5,152,113.4,152.1z"/>
			<path class="st137" d="M94.4,96.1c-0.2,3.7-1.5,7.3-1.1,11C91.4,103.2,92.3,99.6,94.4,96.1z"/>
			<path class="st138" d="M113.2,93.6c-2.4,0.4-4.6,0.9-7.1-0.1C108.7,92.7,111.1,93.2,113.2,93.6z"/>
			<path class="st139" d="M91.2,99.2c0,2.2,0,4.4,0,6.6c-0.2,0-0.3,0-0.5,0c0-2.2,0-4.4,0-6.6C90.9,99.3,91,99.3,91.2,99.2z"/>
			<path class="st140" d="M150.5,109.1c0.4-2.1,0.4-2.1,5-1.7C154,108.9,151.5,107.1,150.5,109.1
				C150.4,109.1,150.5,109.1,150.5,109.1z"/>
			<path class="st141" d="M68.4,137c-1.5-1-3.9,2.9-4.9-0.9c1-0.3,2-0.7,2.9-1c0.5,0.7,1.5,0.3,2,1C68.4,136.4,68.4,136.7,68.4,137z
				"/>
			<path class="st142" d="M153.5,74.3c0.6-0.1,1.2-0.2,1.9-0.2c1.3,0,2.5,0,3.9,0.6c-1.8,0-3.7,0-5.5,0
				C153.6,74.5,153.5,74.4,153.5,74.3z"/>
			<path class="st143" d="M62.5,132.9c0.2-2.3-1-4.8,0.9-6.8C63,128.4,64.2,130.8,62.5,132.9z"/>
			<path class="st144" d="M72.4,127.1c1.2-1.8,2.9-2.6,4.9-3.1C76.4,126.1,74.5,126.7,72.4,127.1z"/>
			<path class="st145" d="M117.4,175.2c-1.1,1.2-2.2,1.3-3.5,0.3C114.8,173,116.2,175,117.4,175.2
				C117.4,175.2,117.4,175.2,117.4,175.2z"/>
			<path class="st146" d="M68.4,136.1c-0.8,0-1.6-0.2-2-1c2,0,3.9,0,6.3,0C71.2,136.7,69.7,135.8,68.4,136.1z"/>
			<path class="st144" d="M82.4,122c0,0.3,0,0.7,0,1c-1.6,1-3.3,1.2-5,1C79,123.4,80.7,122.7,82.4,122z"/>
			<path class="st147" d="M173.4,119.1c-2-0.3-4.2,0.8-6-1C169.4,118.4,171.6,117.3,173.4,119.1z"/>
			<path class="st148" d="M165.9,93.9c0.7,1,0.6,2.1,0,3.4C165.2,96,165.2,95,165.9,93.9z"/>
			<path class="st149" d="M118.8,118.2c-0.6-1.1-0.6-2.1,0-3.4C119.6,116.1,119.6,117.1,118.8,118.2z"/>
			<path class="st150" d="M161.6,88.6c-1,0.7-2.1,0.6-3.4,0C159.4,87.9,160.5,87.8,161.6,88.6z"/>
			<path class="st6" d="M186.8,363.5c3.2-7,6.9-12.9,9-19.5c0.5-1.5,1.8-2.1,2.6,0.1c0.4,1.1,1.5,2.2,1.3,3.1
				c-1.5,6.3-4.4,12.1-7.3,17.9c-0.7-2.8,2.4-5,0.5-7.9C190,358.2,190.9,362.9,186.8,363.5z"/>
			<path class="st151" d="M123.4,424.5c0,0.4,0,0.7,0,1.1c-2.2,0.4-4.3-0.3-6.3-1c-1.9-0.7-2.5-1.9-1.8-3.9
				c5.5-14.1,8.9-28.8,12-43.5c0.5,9.6-2.6,18.5-5.4,27.4c-1.4,4.6-2.7,9.2-4.4,13.7c-1.7,4.3-0.6,5.9,3.9,5.2
				C121.9,424.1,122.9,423.8,123.4,424.5z"/>
			<path class="st6" d="M204.9,318.5c0.4,4,1.2,8.1-1.5,11.8c-1.8,2.5,1.2,5.6-0.5,8.1c-0.8,1.1,0.6,4.1-2.3,3.3
				c-2.6-0.7-2.4-2.9-1.7-4.9c1.1-3.5,2.3-6.9,3.6-10.3C203.3,324,204.5,321.4,204.9,318.5z"/>
			<path class="st151" d="M129.4,337.2c0,0.4,0.1,0.8,0.1,1.2c0.7,2.6,0.7,5.2,0,7.9c1.5,3,1.3,6.2,0.8,9.2
				c-1,5.4-0.8,10.8-0.9,16.2c0,1.9-0.5,3.6-2.1,4.8c1.3-12.2,1.6-24.3,1-36.6C128.3,338.9,128.4,337.9,129.4,337.2z"/>
			<path class="st152" d="M203.5,316.5c-0.2-4.9,1.6-9.7,1-14.6c-0.1-1,0.1-2.1,1.3-2.3c1.3-0.2,2.2,0.7,2.5,1.9
				c0.2,1.3,0.1,2.6,0.1,3.9c-1.4-0.7-0.3-3-2.6-3.6C205.2,306.7,206.1,311.9,203.5,316.5z"/>
			<path class="st152" d="M208.3,313.2c1,6.3-1.3,12.5-1.1,18.8c0.1,1.3-0.7,2.6-1.8,3.4C206.4,328,207.4,320.6,208.3,313.2z"/>
			<path class="st153" d="M168.3,282.2c0,7.4-1.5,14.5-5.1,21.1c1-7,4.3-13.6,4.2-20.9C167.8,282.3,168.1,282.3,168.3,282.2z"/>
			<path class="st152" d="M208.4,305.3c0.3,0,0.7,0,1,0c0.8,1.6,0.8,3.3,0,4.9c-0.3,0-0.6,0-1,0.1
				C208.4,308.7,208.4,307,208.4,305.3z"/>
			<path class="st154" d="M122.3,307.2c0,1.6-1.3,1.8-2.8,2.5c0.8-2,0.4-4,1.9-5.5C121.7,305.3,121,306.6,122.3,307.2z"/>
			<path class="st155" d="M161.6,185.3c4.7-2.4,10.2-2.3,14.9-4.9c3.5,0.6,0.4,2.4,0.7,3.6c-2.2,2.3-4,5-4.9,8.1
				c-2,0.2-1.9,5.8-4.8,2.6C165.2,192,159.4,190.9,161.6,185.3z"/>
			<path class="st153" d="M170.4,274.3c-0.4,0-0.7,0-1.1,0c0-2.3,0.1-4.5,0-6.8c-0.2-3,1.4-3.6,4-3c0.5,0.6,0.9,1.1,1.4,1.7
				c-0.7,0-1.5,0.1-2.2,0.1c-2.2-0.4-1.4,1.2-1.5,2.2C170.6,270.4,171.4,272.4,170.4,274.3z"/>
			<path class="st153" d="M169.3,275.1c-0.2,2.4,1.1,5-1,7.1C168.5,279.9,167.9,277.4,169.3,275.1z"/>
			<path class="st156" d="M70.4,34.9c2.1,2.1,4.1,4.2,5,7.1C72.7,40.4,70.8,38.2,70.4,34.9z"/>
			<path class="st156" d="M78.4,46c2.6,1.6,4,4.2,5.2,6.9C80.6,51.6,79.4,48.9,78.4,46z"/>
			<path class="st157" d="M92.3,64.2c0.2-0.7,0.2-1.8,1.3-1.7c0.3,0,0.7,0.8,0.6,1.2C93.9,65,93,64.1,92.3,64.2
				C92.3,64.1,92.3,64.2,92.3,64.2z"/>
			<path class="st158" d="M285.6,238c-0.9-1.5-2.4-2.4-4-3c-6.7-5.5-14.6-7.5-23-7.7c-1.3,0-3.3,1-3.4-1.4c0-2,1.8-2.1,3.3-2.2
				c12.5-1.3,23.2,2.3,31.7,11.7c1.3,3,3.8,5.3,4.4,8.5c-0.5,0.5-0.9,0.9-1.4,1.4c-0.5-0.4-1.1-0.9-1.6-1.3
				C290.4,241.2,288.1,239.6,285.6,238z"/>
			<path class="st159" d="M262.3,193c-1.9,1.2-3,3.1-3.9,5.1c-2.5,2.1-4.9,0-7.4-0.1c-1.9-0.1-3.6-1.5-5.6-0.9
				c-4.7-0.9-9.3-2.1-14.1-2.7c-3.2-0.4-4.8-2.3-6.4-5.1c4.2-1.3,7.7,1.3,11.4,1c4.5,1.1,9,2,13.5,3.2c2.8,0.8,3.8-0.8,5.2-2.6
				c4.5-5.6,9.1-7,16.1-4.8C268.3,188.9,264,189.5,262.3,193z"/>
			<path class="st160" d="M80.6,270.2c2,1.8,4.6,0.6,6.8,1.3c0.5,1.2,0.2,2-1.2,1.8c-9.6-1.7-19.3-1.2-29-0.3
				C64.8,269.5,72.8,270.6,80.6,270.2z"/>
			<path class="st161" d="M9.4,294.4c0.3,0,0.6,0,0.9,0c2,1.9,4.7,0.3,6.9,1.5C14.6,295.6,11.4,298.1,9.4,294.4z"/>
			<path class="st162" d="M105.2,299.4c0,1.2,0,2.5,0,4C103.8,302.1,104.5,300.7,105.2,299.4z"/>
			<path class="st163" d="M25.4,305.3c-0.7,1-1.3,2-2,3c0-1.3,0.1-2.6,0.1-3.9C24.3,304.3,25,304.5,25.4,305.3z"/>
			<path class="st164" d="M27.2,350.2c3.5-1.1,1.9-5.4,4.7-7.3c1.5,3.9-1.3,6.3-3.1,8.7C28,352.8,27.6,350.9,27.2,350.2
				C27.2,350.1,27.2,350.2,27.2,350.2z"/>
			<path class="st165" d="M33.3,357.3c-0.6,0-1.2,0.1-1.9,0.1c-0.6-0.1-1.3-0.1-2.6-0.2C30.8,356.2,32.1,356,33.3,357.3z"/>
			<path class="st166" d="M117.3,440.2c-8.2,0-16.4,0-24.6,0c0-0.1,0-0.2,0-0.4c8.2,0,16.4,0,24.6,0
				C117.3,440,117.3,440.1,117.3,440.2z"/>
			<path class="st167" d="M115.4,431.7c7.2,0,14.4,0,21.4,0C134.8,432.8,122.1,433,115.4,431.7z"/>
			<path class="st168" d="M209.4,310.3c0-1.6,0-3.3,0-4.9c0-1.3,0-2.5,0-3.8c0.3,0,0.7,0,1,0c0,3.1,0,6.2,0,9.3c0,3.1,0,6.2,0,9.3
				c-0.3,0-0.7,0-1,0C209.4,316.9,209.4,313.6,209.4,310.3z"/>
			<path class="st169" d="M170.4,274.3c0-2.3,0-4.6,0-6.9c0-1.2,0.3-2.5,2-1.1c-2.3,4.1-0.1,8.7-1.4,13.3
				C170,277.7,170.6,275.9,170.4,274.3z"/>
			<path class="st170" d="M253.6,301.7c-1.5-2.6-1.6-4.1,0.2-5.9C254.7,297.7,254.5,299.2,253.6,301.7z"/>
			<path class="st171" d="M123.4,424.5c-0.8,0-1.6-0.2-2-1c2.9,0,5.9,0,8.8,0c0,0.3,0,0.7,0,1C127.9,424.5,125.7,424.5,123.4,424.5z
				"/>
			<path class="st172" d="M129.5,346.3c0-2.6,0-5.2,0-7.9C131,341,130.9,343.7,129.5,346.3z"/>
			<path class="st126" d="M236.5,303.5c0-1.1-0.1-2.1-0.1-3.2c-0.5-1.5-1.7-3.2,1-4c0,0,0.3,0.2,0.3,0.2
				C237.4,298.8,237.9,301.3,236.5,303.5z"/>
			<path class="st173" d="M217.5,229.1c2.5,2.8,3.3,6,0.6,8.8c-2.3,2.4-5.3,2.5-7.8-0.2c-0.3-0.6-0.4-1.3-0.3-2
				c0.2-0.4,0.6-0.7,1-0.8c2.7,0.3,4.3-0.9,4.8-3.6C216.1,230.4,216.6,229.6,217.5,229.1z"/>
			<path class="st174" d="M188.4,197.2c5,1.5,8.2,5.1,6.8,8.3c-1.4,3.4-3.9,5.3-7.8,3.5c-1.3-2.8,1.9-2.4,2.7-3.7
				c1.3-1.6,1-3-0.4-4.3C188.8,199.9,185.6,199.5,188.4,197.2z"/>
			<path class="st175" d="M191.3,206.1c-0.6,1.9-3.8,0.3-3.9,2.9c-4.4-3.1-5-6-2.3-9.9c0.8-0.5,1.3-0.1,1.8,0.6
				C186.5,203,188.2,205,191.3,206.1z"/>
			<path class="st176" d="M200.3,222.4c-2.7-2.8-4.5-5.7-1.2-9.3c0.9-0.6,1.3,0,1.8,0.7c0.3,2.2,0.3,4.5,0.5,6.7
				C201.3,221.3,201,222,200.3,222.4z"/>
			<path class="st177" d="M217.5,229.1c-0.1,0.8-0.2,1.7-1.1,2.1c-2.1,0.8-4.1,0.3-6.1-0.3c-0.7-0.4-1.3-0.9-1-1.8
				c0-0.7,0.4-1,1.1-1c2-0.7,4-0.7,6,0C217.1,228.2,217.4,228.5,217.5,229.1z"/>
			<path class="st178" d="M200.3,222.4c0-0.8,0.1-1.6,0.1-2.4c1.4-0.5,2.8-0.1,4.2-0.3c0.8,0,1.6,0.3,2.3,0.7c0.3,0.3,0.6,0.6,0.6,1
				C205.5,224.3,203.1,224.7,200.3,222.4z"/>
			<path class="st179" d="M203.4,211.3c3.3,0.6,5.1,2.5,5.1,5.9c-1.2,1.2-1.4-1.8-2.6-0.6c-1.6-0.4-2.6-1.3-2.8-3
				C204,213,203,212,203.4,211.3z"/>
			<path class="st180" d="M209.4,229.2c0.4,0.4,0.9,0.8,1.3,1.2c1.2,1.7,1.1,3.3-0.3,4.9l0,0c-1,0.7-1.4-0.2-1.9-0.8
				C208.2,232.6,207.5,230.7,209.4,229.2z"/>
			<path class="st181" d="M203.4,211.3c0.1,0.7,1.2,1.4,0,2.1c-0.8,1-1.7,1.5-3,0.9c-0.4-0.4-0.9-0.7-1.3-1.1
				C200.2,211.7,201.5,210.8,203.4,211.3z"/>
			<path class="st182" d="M186.5,200.4c-0.5-0.5-1-0.9-1.4-1.4c0.9-1.1,1.8-1.9,3.3-1.9c-1.5,2.5,1.6,1.7,2,2.9
				C189.2,201.3,187.9,201.3,186.5,200.4z"/>
			<path class="st183" d="M206.2,216.2c1.5-1.3,1.3,1.2,2.3,1c0.3,1.5,0.6,3.1-0.8,4.3c-0.1-0.2-0.2-0.4-0.3-0.5
				c-0.8-0.8-1.2-1.8-1.5-2.9C205.7,217.4,205.7,216.8,206.2,216.2z"/>
			<path class="st180" d="M216.4,228.2c-2,0-4,0-6,0C212.4,226.8,214.4,226.1,216.4,228.2z"/>
			<path class="st184" d="M208.6,234.5c0.6,0.3,1.3,0.5,1.9,0.8c-0.1,0.8-0.1,1.6-0.2,2.5C209.1,236.9,208.4,235.9,208.6,234.5z"/>
			<path class="st185" d="M274.4,255.3c0,1,0.1,1.9,0.1,2.9c-0.7,6.3,1.2,12.8-1.1,19.1c0-5.8,0-11.6,0-17.3
				C273.5,258.4,272.9,256.6,274.4,255.3z"/>
			<path class="st186" d="M247.8,243.5c5.9,0,11.7,0,17.6,0c0,0.2,0,0.4,0,0.7c-5.9,0-11.8,0-17.8,0
				C247.6,244,247.7,243.7,247.8,243.5z"/>
			<path class="st187" d="M231.5,269.2c0-3.9,0-7.9,0-11.8C233,261.3,233,265.2,231.5,269.2z"/>
			<path class="st121" d="M237.5,256.3c-1.9,3.1-1,6.6-1.1,9.9C235.4,262.8,233.5,259.2,237.5,256.3z"/>
			<path class="st188" d="M262.6,259.1c0-1.6-0.1-3.2-0.1-4.8C263.9,255.9,263.9,257.5,262.6,259.1z"/>
			<path class="st126" d="M235.4,299.3c-0.3,0-0.7,0-1,0c0.1-2-0.5-4.2,0.9-6c0,0,0.2,0.1,0.2,0.1
				C236.8,295.4,235.9,297.3,235.4,299.3z"/>
			<path class="st126" d="M234.4,299.3c-0.2,1.7,0.7,3.6-1,5C233.6,302.6,232.9,300.7,234.4,299.3z"/>
			<path class="st9" d="M235.4,299.3c0-2,0.1-4,0.1-5.9c0.6-0.7,1.3-1.4,1.9-2.1c0,1.6-0.1,3.3-0.1,4.9c-1.3,1.1-0.8,2.6-1,4
				C236,299.9,235.7,299.6,235.4,299.3z"/>
			<path class="st189" d="M75,111.9c1.5-1.1,3.3-1.2,5-1c1.6,0.2,1.9,1,0.4,2C78.8,111.4,76.7,112.4,75,111.9z"/>
			<path class="st184" d="M210.4,235.3c0.1-1.6,0.2-3.2,0.3-4.9c2-0.2,4-0.5,5.7,0.9C216.2,236.5,215.4,237,210.4,235.3z"/>
			<path class="st190" d="M186.5,200.4c1.3-0.1,2.6-0.2,3.9-0.3c2.5,1.7,2.4,3.7,0.9,6C185.8,206.3,184.9,205.2,186.5,200.4z"/>
			<path class="st191" d="M206.2,216.2c0.1,0.7,0.2,1.3,0.2,2c0.6,1.1-0.1,1.6-1.1,1.9c-1.7,1-3.3,1.2-4.9-0.1
				c-0.6-1.9-1.5-3.9,0-5.8c1-0.3,2-0.6,3-0.9C204.3,214.3,205.3,215.3,206.2,216.2z"/>
			<path class="st192" d="M205.4,220.2c0.4-0.6,0.7-1.3,1.1-1.9c1.1,0.7,1,1.7,0.9,2.7C206.4,221.2,205.8,220.9,205.4,220.2z"/>
			<path class="st5" d="M189.5,441.3c0,0-5.5-4.7-8.6,1.2c-3.1,6-3.8-4.2-0.3-5.4c3.5-1.2,9,1.8,9,1.8V441.3z"/>
		</g>
	</g>
	<g>
		<path class="st38" d="M159.9,60.1c0,0-32.5,14.3-66,27.2c0,0-29.3,10.2-36.3,41.5c0,0-0.3,12.4,5.4,11.9c0,0,5.4-4.9,17.5,0
			c12.2,4.9,10.5,11.5,10.5,11.5l2.8,8.9l19.6,14l25,6.7l36.5-12.6c0,0,26.4-33.1,16.3-64.9C191.2,104.4,180.9,78.2,159.9,60.1z"/>
		<g>
			<path class="st193" d="M153.6,112c1.7,3.5,5.5,5.4,9.3,6.4c2,0.5,4.5,1.1,5.1,3.1c0.8,2.3-1.5,4.9-0.6,7.2c0.3,0.8,1,1.5,0.8,2.3
				c-0.2,0.7-1,1-1.8,1c-0.7,0-1.5-0.1-2.2,0"/>
			<path class="st193" d="M156.8,134.1c-1.2,0.4-2.3,1.1-3.1,2.2"/>
			<path class="st193" d="M145.2,130.9c0.6,0.7,0,1.9-0.7,2.4c-0.7,0.6-1.7,0.9-2.2,1.7c-0.6,1-0.3,2.5,0.6,3.3
				c0.9,0.8,2.1,1.2,3.3,1.2c1.2,0.1,2.4-0.1,3.6-0.1"/>
			<path class="st193" d="M93.3,92.2l17.2-10.6c2.6-1.6,5.3-3.2,8.3-3.5c1.5-0.1,2.9,0,4.4-0.2c1.6-0.3,3-1,4.4-1.8l8.4-4.5
				c1.6-0.9,3.3-1.8,5.2-2.1c1.8-0.3,3.9-0.1,5.3,1.2"/>
			<path class="st193" d="M90.4,104.3c8.1-1.9,13.7-9,19.9-14.6c2.7-2.4,5.8-4.7,9.4-5.5c3.4-0.8,7.1-0.2,10.4-1.4
				c1.4-0.5,2.7-1.3,4-2c4.2-2.2,8.9-3,13.6-3.8"/>
			<path class="st193" d="M100.6,109.1c2.2-0.9,3.6-3.1,5.1-4.9c3.5-4.3,8.2-7.4,13.5-8.9"/>
			<path class="st193" d="M143,86.8c0.1-1.7,1.4-3,2.7-4c3.9-2.7,8.9-3.5,13.5-2.1"/>
			<path class="st193" d="M125.7,100.2c1.4-0.9,3.6-0.1,4,1.6"/>
			<path class="st193" d="M146.5,90.3c-0.3,1.7,0.2,3.5,1.3,4.9"/>
			<path class="st193" d="M146.8,155.2c3.8-4.1,10-4.5,15.2-6.4c4.7-1.8,8.9-5,13.8-6.4"/>
			<path class="st193" d="M115.1,112.5c1.4-0.2,2.9-0.4,4.3-0.8c3-0.7,6.2-1.9,9.1-0.8c0.8,0.3,1.6,0.8,1.7,1.6
				c0.2,0.7-0.2,1.4-0.6,2c-0.8,1.2-2,2.1-3.3,2.6c-0.9,0.4-1.8,0.5-2.6,0.9c-3.1,1.1-4.5,3-7.8,3.5c-1.3,0.2-3.9,0.6-4.3-0.6
				c-0.6-1.6-1.6-4.1-0.6-5.6C111.8,113.8,113.3,112.8,115.1,112.5z"/>
			<path class="st193" d="M153.4,99.1c-0.5,0.8-0.7,1.7-0.7,2.7c0.3,1.7,1.9,2.8,3.6,2.5c0.1,0,0.1,0,0.2,0c1.3-0.4,2.5-1,3.7-1.7
				c1.2-0.7,2.6-1.4,4-1.4c2.6,0.1,5.8-1,3.8-4.1c-0.9-1.4-2-3-3.6-3.8C160.5,91.5,155.1,96,153.4,99.1z"/>
			<path d="M117.7,112c-1.1,0.2-1.9,1.3-1.8,2.4c0.2,1.3,0.6,2.6,1.1,3.8l0.4,0.7c0.5,1,1.7,1.4,2.7,1l6-2.7c1-0.4,1.4-1.6,1-2.6
				c0,0,0,0,0-0.1l-1.1-2.2c-0.6-1-1.7-1.6-2.9-1.4L117.7,112z"/>
			<path class="st193" d="M117.7,112c-1.1,0.2-1.9,1.3-1.8,2.4c0.2,1.3,0.6,2.6,1.1,3.8l0.4,0.7c0.5,1,1.7,1.4,2.7,1l6-2.7
				c1-0.4,1.4-1.6,1-2.6c0,0,0,0,0-0.1l-1.1-2.2c-0.6-1-1.7-1.6-2.9-1.4L117.7,112z"/>
			<path d="M160,93.6c-0.8,0.3-1.6,1-1.7,1.4c-0.1,0.5,0.1,1.8,0.4,2.8l0.9,2.8c0.4,1.1,1.5,1.7,2.6,1.4l1.5-0.4
				c1.1-0.3,1.9-1.2,1.9-2c0-0.9,0.4-1.7,1-2.3c0.5-0.5,0.3-1.5-0.5-2.3l-0.3-0.3c-0.8-0.8-2.1-1.5-2.9-1.6
				C162,93.1,161,93.2,160,93.6z"/>
		</g>
	</g>
</g>
</svg>
