<?xml version="1.0" encoding="utf-8"?>
<!-- Generator: Adobe Illustrator 27.0.1, SVG Export Plug-In . SVG Version: 6.00 Build 0)  -->
<svg version="1.1" id="Layer_1" xmlns="http://www.w3.org/2000/svg" xmlns:xlink="http://www.w3.org/1999/xlink" x="0px" y="0px"
	 viewBox="0 0 737.9 498.9" style="enable-background:new 0 0 737.9 498.9;" xml:space="preserve">
<style type="text/css">
	.st0{fill:#237C94;}
	.st1{fill:#EECAA8;}
	.st2{fill:#848484;}
	.st3{fill:#1A110B;}
	.st4{fill:#868686;}
	.st5{fill:#F6C76B;}
	.st6{fill:#FEFEFE;}
	.st7{fill:#478CC0;}
	.st8{fill:#FDFDFD;}
	.st9{fill:#293232;}
	.st10{fill:#14110E;}
	.st11{fill:#FF0A0A;}
	.st12{fill:#090807;}
	.st13{fill:#070606;}
	.st14{fill:#E5E5E5;}
	.st15{fill:#222222;}
	.st16{fill:#EF9828;}
	.st17{fill:#EAEAEA;}
	.st18{fill:#0D0D0D;}
	.st19{fill:#C2C2C2;}
	.st20{fill:#B3B3B3;}
	.st21{fill:#181818;}
	.st22{fill:#232323;}
	.st23{fill:#131313;}
	.st24{fill:#030303;}
	.st25{fill:#212121;}
	.st26{fill:#404040;}
	.st27{fill:#070707;}
	.st28{fill:#090909;}
	.st29{fill:#0B0805;}
	.st30{fill:#0D0905;}
	.st31{fill:#080604;}
	.st32{fill:#0C0906;}
	.st33{fill:#FE9D0B;}
	.st34{fill:#080808;}
	.st35{fill:#0E0E0E;}
	.st36{fill:#4B351C;}
	.st37{fill:none;stroke:#000000;stroke-width:6;stroke-miterlimit:10;}
	.st38{fill:none;stroke:#000000;stroke-width:4;stroke-miterlimit:10;}
	.st39{fill:#286F50;}
</style>
<g id="f8bwkD.tif">
	<g>
		<path class="st0" d="M355.5,451.8c12.5-9.6,22.6-21.5,31.2-34.7c3.5-5.3,4.7-11.6,8-17c0.3-1.4,0.4-2.9,1.1-4.1
			c0.1-0.2,0.2-0.4,0.4-0.5c-0.2-0.1-0.4,0-0.5,0.4c-0.6,1.2-1,2.5-2.5,2.9c-7.9,11.8-16.9,22.4-28,31.4
			c-12,9.7-25.1,17.3-39.1,23.5c-19.9,8.8-40.7,14.5-62.3,17.1c-23.1,2.8-46.1,2.8-69.1-0.5c-29.4-4.1-56.8-13.7-82.1-29.3
			c-10.9-6.7-20.4-15-29.6-23.7c-1.8-1.7-2-3.8-1.8-6.3c1.2-12.6-0.1-25-3.7-37.2c-0.9-3-1.9-5.9-3.9-8.2c3.4-2.4,6.8-4.8,10.2-7.1
			c1-1.5,2.4-1.5,4-1.3c5.1,2.8,10.3,5.3,16.1,6.8c14.4,3.6,27.4,1.4,38.6-8.7c2.4-2.1,4.8-2.8,7.4-0.6c6.4,5.7,13.5,10.4,20.4,15.4
			c11.5,6.7,23.9,10.7,36.7,13.9c13,3.2,26.3,4.2,39.6,4.8c3.6,0.1,7.1,1,10.5,1.8c1.5,0.4,2.5,0.4,3.8-1.1c-4.5-2.3-9-4.6-13.4-6.9
			c-16.5-8.8-28.1-22.1-33.8-39.9c-5.1-16,1.3-29.5,11.2-41.8c5.9-7.3,11.8-9.8,21.6-5.6c19,8.1,39.6,8.4,60,7.6
			c2.2-0.1,5.4-1.2,6.4,0.7c1.3,2.6-1.5,4.7-3.1,6.6c-4.3,5.2-10.4,6.3-16.7,6.6c-4.3,0.2-8.4,0.8-12.6,1.6c-7.1,1.5-9.7,6-8,13
			c2.8,11.6,11,19,20.2,25.2c9,6,19.1,9.8,29.7,11.8c8.5,1.5,16.8-1,25-2.9c2.2-0.5,4.4-1.2,6.5-2c3.6-1.4,6.6-2.4,8.1,2.9
			c1,3.5,3.1,0.9,4.5,0c9-5.6,18.4-10.4,27.9-14.9c5.9-2.8,10.9-3,15.1,3c2.3,3.3,5.1,3.5,9.1,1.6c24.7-11.9,50.6-19.9,78-22.9
			c18-2,36.1-3.3,54.1-0.8c30.4,4.2,58.7,13.2,82.6,33.8c12.3,10.6,20.7,23.5,28.5,37.3c0.8,1.3,0.7,3.3,2.8,3.6c-1,1.2-2,2.5-3,3.7
			c-0.7,4.5-2.8,8.5-3.5,13.1c-1.8,12.6,0,24.8,4.3,36.7c0.4,1.2,1.1,2.4,0.4,3.7c-2.5,3.6-5.6,6.6-9.2,9.2
			c-2.4,1.1-3.6-0.8-4.9-2.2c-3.5-3.9-7.9-5.5-13.1-5.5c-13.2,0.2-25.3,4-36.5,11c-6.6,4.1-7.2,4-13-1.2
			c-14.6-13.1-30.8-24-47.2-34.7c-7.9-5.2-16.5-9.2-24.5-14.3c-4.7-2.9-8.5-2-12.5,1.3c-6.9,5.7-10.7,5.9-18.2,0.8
			c-2.6-1.7-5-3.6-7.2-5.9c-2-2.1-3.8-2-5.8,0c-21.9,20.6-48.7,28.6-78,30.4c-5,0.3-10,1.1-15.1,0.9c-2.6-0.1-5.2-0.2-7.6-1.2
			C365.4,451.6,360.5,450.7,355.5,451.8L355.5,451.8z"/>
		<path class="st1" d="M259,295.3c0,0-17.8-9.2-23.9-6.8c-6.1,2.4-15.9,6.8-21.9,24s-6.9,45.9,3.6,53.1s43.4,35.8,82.5,21.5
			c0,0,19.3-1.4,23.7-11c0,0,7.9-3.8,8.3-10.5l-6.1-51l4.7-4.9l-13.7-24.9L259,295.3L259,295.3z"/>
		<path d="M415,2.6c-26.5,5.9-51.5,14-71.9,32.8c-6.3,5.8-12.6,11.8-16.9,19.4c-1.6,2.8-2.2,4.8,0.3,8.1
			c7.7,10.2,14.5,21.1,18.3,33.5c2.1,7,4.8,13.8,4.4,21.3c-0.1,1.4,0.1,2.9-1.5,3.9c-2.6,1.7-5.1,3.5-7.5,5.4
			c-9.3,7.3-14.3,16.8-13.3,28.8c1,11.7,8.9,18.3,18.8,22.8c3.7,1.6,4.9,4.1,4.6,7.6c-0.1,2,1.2,4.6-0.9,5.9
			c-2.2,1.4-4.5-0.5-6.3-1.6c-4.1-2.4-8.4-4.2-12.9-5.7c-12.8-4.3-25.8-7.8-39.1-10.2c-1.5-0.3-3.6-0.8-4.4-1.9
			c-3.8-5.8-8.4-4.7-13.6-2.4c-2.3,1-4.8,1.5-7.1-0.8c-11.2-10.7-23.7-19.5-37.7-26.2c-8.1-3.9-13.8-2.3-19,5.2
			c-4,5.7-5.7,12-6.7,18.6c-1.6,10.8-1.4,11.2-11.3,13.1c-4.8,0.9-6.6,3.4-7.2,7.6c-0.2,1.3-0.3,2.6-0.4,3.9
			c-0.5,6.2-2.7,10.9-8.5,14.7c-13.7,9.2-25.6,20.8-33.7,35.2c-11.6,20.6-12.8,43-4.3,64.9c8,20.7,23.5,35.9,40.6,49.5
			c1.6,0.9,4.1,1.3,3.1,4c-0.9,2.4-3.1,1.8-5,1.7c-0.8,0-1.5-0.5-2.3-0.6c-3.6-0.7-7.3-1-10.9-1.7c-1.5-0.3-3.6,0.1-4.1,1.9
			c-0.4,1.5,1.6,1.7,2.4,2.6c2.6,2.6,6.6,3.5,8.5,7c1.2,1.6,3,2.6,4.8,3.3c17.8,7.7,36,13.5,55.5,14.6c7.8,0.5,15.6,0.8,23.3,2.3
			c2.5,0.5,6.2,2.6,7.2-1.2c0.9-3.5-3.2-3.9-5.5-4.9c-14.8-6.8-27-16.5-34.9-30.9c-4.2-7.6-7.4-15.6-6.5-24.6
			c1.2-12.7,7.2-22.8,16.2-31.4c3.7-3.5,7.4-4.7,12.4-2.7c7.1,2.8,14.4,5.2,22,6.4c13.9,2.2,27.8,3.3,41.9,2.9c1.5,0,3.7-0.7,4.5,1
			c0.8,2-1.3,3.1-2.4,4.4c-4.1,4.5-9.5,5.4-15.2,5.6c-4.1,0.1-8.1,0.6-12.1,1.6c-8.6,2.3-11.3,6.9-9.2,15.6c0.6,2.4,1.6,4.6,2.7,6.8
			c5.3,9.9,13.8,16.5,23.5,21.4c12.5,6.3,25.2,11.4,39.9,8.2c5.6-1.2,11-2.8,16.5-4.3c2-0.6,4.3-1.5,5.8,0.8c2.6,3.9,5.5,2.9,8.8,1
			c9.3-5.5,18.5-10.9,28.7-14.7c3.6-1.3,6.4-0.9,9.3,1.9c6.3,6.2,7.1,6.1,14.9,2.3c36.8-17.5,75.6-25,116.2-23.3
			c20.4,0.9,40.1,4.9,59,12.6c19.3,7.9,36.2,19.4,49.3,35.8c5.5,6.9,9.8,14.6,14.2,22.2c0.9,1.7,1.3,4.4,4.3,3.6
			c2.4-1.1,2.8-2.9,2-5.2c-1.4-3.8-2.5-7.8-4.3-11.4c-8-16.2-19.8-28.9-34.4-39.5c-17.8-13-38-19.6-59.1-24.1
			c-14.6-3.1-29.8-3-44.6-4.9c-2-0.3-4.8,1-4.6-3c0.2-3.5,2-4.6,5-4.7c5.2-0.1,10.4-0.2,15.7-0.2c12.2,0,24.4-0.7,36.4-3.1
			c22.6-4.5,43.2-13.2,61.2-28.1c14.5-12,25.8-26.2,32.4-43.5c6.9-18.3,11.1-37.3,8.9-57.2c-1.5-14.1-3.2-28.1-7.9-41.5
			c-6.3,4.1-6.7,4-8.3-3.4c-1.4-6.1-3.1-12.1-6.2-18.3c-2,2.9-3.7,5.5-5.5,7.9c-1.6,2.1-4,3.2-5.5,0.3c-3.4-6.8-8.7-12.7-10.3-20.3
			c-1.5-6.7-3-13.3-6.3-19.4c-6.8-12.8-15.4-24.5-29.2-30c-11.1-4.4-23.1-6.4-35.2-3.1c-2.4,0.6-4.9,0.7-7.3-0.1
			c-4.8-1.6-9.9-1.9-14.8-2.9c-7.6-1.4-15.2-1.7-22.6,1c-2.3,0.8-5.2,1.4-5.4,4.2c-0.2,3.2,2.3,5.2,4.9,6.7c1,0.6,2.2,0.7,3.2,1.1
			c6.2,2.4,12.2,5.3,17.8,8.9c1.8,1.2,2,2.6,2.3,4.4c0.6,3.8-2.7,5-4.7,6c-3.9,1.9-3.6,4.1-2.2,7.3c0.6,1.3,2.5,2.9,0.1,4.7
			c-3.8,2.8-10,2.8-13.4-0.6c-4.7-4.8-8.8-10.1-11.7-16.3c-5.6-11.8-11-23.5-13.6-36.4c-2-9.9-4.8-19.5-5.4-29.7
			c-0.1-2.6,0.4-6.1-3.6-7.2c-8.6-2.3-17.1-5.4-26.2-5.3C462.5,0.2,431.7-1.1,415,2.6L415,2.6z M563.7,192.2
			c-1.3-12.1-2.3-24.3-5.7-36.1c-2.4-8.4-5.2-16.7-9.1-24.6c-1.7-3.5-0.8-4.9,3.1-4.4c4.3,0.4,8.2,2.1,11.8,4.3
			c9.9,5.9,20.2,10.6,31.8,11.6c3.5,0.3,5.8,2.4,8.2,4.6c1.7,2.3,3,4.8,3,4.8c-4.3,1.3-8.7,2.4-13.2,3c-2.6,0.4-2.9,1.4-1.5,3.5
			c1.4,2.2,2.5,4.6,3.5,7c1.3,3.2,2.1,6-0.2,9.8c-2.1,3.4-1.8,8.5-2,12.9c-0.7,16.1-8.2,28.3-21,37.6c-3.8,2.8-8.3,3.4-13.7,4.7"/>
		<path class="st1" d="M465,118.2c5-0.6,9.9-1.3,14.8-1.7c13.8-0.9,27.5-3.2,41.1-5.4c0.6-0.1,1.3-0.4,1.9-0.4
			c2.9,0.2,6.4-1.5,8,2.5c2.3,2.4,3.8,5,3.8,5c1.4,1.8,5.6,8.9,6.5,10.8c9.4,19,13.3,39.3,14.2,60.3c0.5,24.4-4.5,35.5-4.5,35.5
			c-1.9,6.2-4.5,10.2-4.5,10.2c-7,11.4-12,12.6-18.3,16.9c-16.4,11.3-34.6,15-54.2,13.5c-8.3-0.6-15.8-3.5-23.3-6.5
			c-0.7-0.1-1.3-0.6-1.9-0.3c-0.2,0.1,0.5,1,0.7,1.5c2,4.2,7,5.1,10,9c-3.9,1.7-7.6,3.5-11.4,4.9c-2.3,0.9-3.2,2-2.2,4.3
			c1,2.2,2.4,3.1,5,2c3.3-1.3,6.8-2.2,10.2-3.3c5.1-1.7,6.1,3,7.8,5.6c1.8,2.8-1.5,3.8-3.3,4.9c-4.5,2.9-9.4,5.1-14.4,7.1
			c-2.9,1.1-4.4,0.7-5.5-2.3c-7.1-19.5-18.1-36.6-31.3-52.4c-6.9-8.2-14.4-16-22.8-22.6c-2.6-2.1-4.1-3.5,0.3-5.1
			c2.3-0.9,3.9-3,3.6-5.3c-0.4-2.5-3.1-1.8-4.9-1.9c-9.5-1-18.7-2.5-26.1-9.4c-4.3-4-7.2-8.8-7.7-14.7c-0.6-6.4,4.3-11.9,11.4-12.9
			c4.9-0.7,9.4,0.4,13.7,2.7c1.4,0.8,2.9,1.6,4.4,2.1c1.4,0.4,2.9,0.7,4-0.9c0.9-1.4,0.3-2.5-0.4-3.6c-3-4.8-7.9-6.5-13-7.9
			c-0.9-0.2-2.1,0-2.9-0.4c-2.4-1.2-6.3,0.6-7.2-2.4c-1.1-3.8-0.8-7.9,1.5-11.8c4.8-7.9,12.5-11.8,20.4-15
			c15.3-6.3,31.5-9.2,47.9-10.8c5.2-0.5,8.8-1.3,20.4-1.8L465,118.2L465,118.2z"/>
		<path d="M2,427.3c-0.7-1-0.5-2.5-2-2.9v-2.9c5.2-10.6,13-19.3,21-27.9c4.2-4.5,10.1-7.4,15.6-9.6c11.2-4.6,21.4-10.7,31.9-16.5
			c1.5-0.8,3-1.9,4.9-1.9c2.9,0.9,3.6,3.6,4.4,6c3.9,10.9,5.4,22.2,4.6,33.7c-0.4,6.5,1.6,11.2,6.4,15.8
			c13.2,12.7,28.6,22.1,45,29.9c21.2,10.1,43.7,16.2,67.1,18.6c10.1,1,20.3,1.7,30.6,1.7c21.4,0,42.3-2.5,62.8-8
			c25.9-7,50.1-17.7,70.9-35.1c8.9-7.4,16.9-15.8,23.5-25.4c1.2-1.7,2.1-3.7,4.4-4.4c0.8,0,1.5,0.2,1.9,1
			c-2.2,9.7-6.7,18.2-12.6,26.1c-5.5,7.3-11.2,14.3-18,20.5c-2.6,2.4-5.3,4.8-8.8,5.8c-6.7,3.2-12.5,7.8-19,11.3
			c-24.8,13.2-51.4,19.5-79.2,21.9c-27.8,2.4-55-1.3-81.7-8.1c-19.8-5-39.3-11.6-56.7-22.8c-10.6-6.8-21.4-13.3-30.3-22.5
			c-2.9-3-6.2-5.5-9.1-8.6c-4.7-4.9-11.4-2.9-17.1-2.5c-15.4,1.3-29.8,6.5-43.6,13.2c-6.8,3.3-8.8,2.9-14.1-2.4
			c-0.2-0.4-0.2-0.9,0-1.3c5.8-2.9,9-8.4,13.1-12.9c10.8-12.2,23.8-21.2,38.8-27.3c3.6-1.5,7.3-2.8,10.9-4.3
			c1.3-0.5,3.3-0.9,2.8-2.8c-0.5-2-2.6-1.8-4.1-1.4c-7.6,1.9-14.9,4.6-22,8c-8.5,4-16.1,9.4-23.4,15.1c-6.9,5.4-11.3,13-15.9,20.3
			C4,425.7,4,427.6,2,427.3L2,427.3z"/>
		<path d="M170.2,370c-6.9-3.3-13.2-7.3-18.9-12.6c-2.6-2.5-4.9-4.8-8.7-0.9c-13.5,13.9-39.1,13-55.6,1.3c-0.4-0.6-1.2-0.5-1.6-1
			c-2.8-5.8,1.2-8.8,5-11.7c6.1-4.7,12.8-8.3,19.5-11.8c4.9-2.5,8.9-2,12.7,1.8c4.7,4.7,9.7,9.1,13.1,14.9c2.1,3.5,5.5,2.9,8.2,1.8
			c2.5-1,4.2-0.8,6.2,0.7c8,6.1,17.7,6.7,27.2,8.1c0.8,0.1,2,0.5,2.5-0.7c0.9-2.1-1.7-2.5-2-4c2.5-0.1,4.9,0.5,4.6,3.4
			c-0.3,2.6-2.8,3.9-5.1,3.2c-4.1-1.2-8.4-0.7-12.4-2.4c-2-0.8-3.6,0.8-5.2,0.8C162.4,364.9,168.5,364.9,170.2,370L170.2,370z"/>
		<path class="st2" d="M85.5,356.9c0.9-0.2,1.3,0.4,1.6,1c-1.2,0.1-2.4-0.5-3.4,0.6C83.3,356.9,84.3,356.8,85.5,356.9L85.5,356.9z"
			/>
		<path d="M370.2,452.8c27.7,0.4,54.7-2.7,79.5-16.1c7.7-4.2,15.3-8.8,21-15.6c2.3-2.8,4-3,6.5-0.1c3.8,4.5,8.8,7.7,14.4,9.8
			c2.7,1,5,1.2,7-1.3c0.3-0.4,0.7-0.7,1-1c7.7-6.7,9.2-6.6,18.3-1.6c15.7,8.6,30.7,18.3,45.3,28.6c9.2,6.5,18.1,13.2,26.2,21
			c2.4,2.3,4.2,2.7,7,0.7c10.4-7.5,22.3-11.2,34.9-12.6c7.9-0.9,14.9,0.5,20.1,7.2c0.6,0.7,1.5,1.1,2.3,1.6
			c3.1,10.8-7,12.4-12.3,16.9c-4,3.5-9.2,5.9-14.5,7.7c-3.9,1.3-7.2,1.4-10.2-2c-3.9-4.5-9-8-11.6-13.6c-1.5-3.1-4.4-2.9-6.6-1.2
			c-2.9,2.1-5.3,1.7-8,0.1c-12.1-7-23.6-14.8-35.5-22c-11.6-6.9-21.5-16.2-33.3-22.6c-3.2-1.8-6-4.5-8.8-6.8
			c-4.2-3.5-6.7-3.6-9.5,0.8c-3.1,4.8-6.7,5.1-11.7,3.7c-5.3-1.5-10.1-3.6-14.6-6.6c-3.2-2.2-5.9-2.2-8.4,1
			c-9.2,11.9-21.7,19.4-35.6,24.5c-19.1,7-38.6,8.3-58.2,2C373.2,454.8,371.8,453.7,370.2,452.8L370.2,452.8z"/>
		<path class="st3" d="M662.9,464.2c-7.3-16-9.1-32.5-3.7-49.4c0.5-1.5,1.7-2.7,2.5-4c0.2,0.7,0.1,1.6,1.4,1.5
			c13.9-0.9,27.3-3.4,40.4-8.3c6.5-2.5,13-5.2,19.1-8.5c3.3-1.8,6-1,8.2,1.6c7.3,8.4,10.2,10.4,2.4,20.8
			c-10.7,14.2-23.1,26.4-40.2,33.2c-8.3,3.3-16.5,6.8-24.8,10C666.3,461.7,664.6,462.9,662.9,464.2L662.9,464.2z"/>
		<path class="st4" d="M2,427.3c0.6-1,1.3-1.9,1.9-2.9c1.5,1.8,1.8,3.8,1,5.9c-0.1,0.4-0.1,0.7-0.2,1.1C2.3,431,2.7,428.7,2,427.3
			L2,427.3z"/>
		<path class="st5" d="M393.6,317.7c-10.9,19.6-27.6,31.7-49.4,36.4c-13,2.8-26.4,3.5-39.2,0.3c-10.9-2.8-18.6-11.2-23.5-21.3
			c-2.6-5.3,1.5-10.1,8.2-10.6c5.2-0.5,10.3-1.3,15.4-2.5c12-2.8,14.5-13.1,13.1-23.1c-0.4-2.8-2.3-1.5-3.7-1.3
			c-13,1.4-26,1.4-39,0.1c-7.8-0.8-11.6-4.8-12.8-13.1c-0.6-4.1-0.2-8.4,0-12.7c0-1.5,1.9-3.4-0.5-4.1c-2.1-0.6-4.1,0.6-4.8,3.1
			c-1.8,6.9-0.9,13.4,2,19.8c0.5,1.1,2.2,2,1.1,3.3c-0.8,1-2.5,0.6-3.7,0.2c-3.1-0.9-6.2-1.8-9.3-2.9c-1.8-0.7-4.5-1.1-2.8-4.3
			c0.6-1-0.4-1.4-1.2-1.6c-5.4-1.4-4.3-5-3.1-8.8c3.1-9.4,9.1-16.7,15.7-23.7c4.8-5.1,9.1-10.5,12.4-16.8c3-5.9,3.1-11.4-0.7-16.9
			c-0.6-0.9-1.3-1.9-1.5-3c-0.7-3.4-1.1-7.7,1.6-9.4c2.4-1.6,4.6,2.3,6.4,4.2c3.5,3.9,5.8,8.5,6.3,14c0.1,1.7-0.1,3.5,1.4,5.5
			c4.1-5.5,3.7-11.2,2.2-17c-1.7-6.8-5.9-11.8-11.5-15.8c-2.6-1.9-3.1-3.7-1.8-6.6c1.5-3.6,3.6-1.6,5.6-1c8,2.1,14.1,7.1,19.6,13
			c2.1,2.2,3.6,6.2,7.7,3.1c2.5-1.9,1.4-8-1.7-10.9c-5.1-4.8-11.6-6.3-18-8c-1.6-0.4-3.2-0.6-4.8-1c-1.8-0.5-4.9,0.5-4.1-3.1
			c0.7-3,2.6-4.9,6-4.3c7.8,1.4,15.8,2.4,23.5,4.3c20.7,5.2,40.1,13.4,56.9,27c10.3,8.4,19.1,18.1,25.6,29.7
			c7,9.7,11.7,20.3,12.1,32.5c0,1.1,0.1,2.2,0.5,3.4c1.6,8.9,1,17.8,0.8,26.6c-0.1,0.5-0.3,1-0.5,1.5
			C397.5,306.8,398.2,313.4,393.6,317.7L393.6,317.7z"/>
		<g>
			<path class="st1" d="M593.7,155.4c1-0.1,2.1-0.3,3.1-0.5C595.8,155.1,594.8,155.3,593.7,155.4z"/>
			<path class="st1" d="M599.9,154.3c-0.7,0.2-1.4,0.3-2.1,0.4C598.5,154.6,599.2,154.4,599.9,154.3z"/>
			<path class="st1" d="M643.5,130.7c-1.4-2.8-2.3-5.9-4.4-8c-2.2,1-1,3.9-3.1,4.8c-1-1.2-1.3-2.4-1.5-3.7
				c-1.7-10.3-4.8-20.2-9.6-29.6c-5.5-10.8-12.6-20.4-21.8-28.4c-8.8-7.6-19.5-4.7-29.5-5.6c-3.6-0.3-6.5,1.2-8.9,4.2
				c-5.3,6.6-11.6,12.4-17.6,18.3c-1.6,1.5-4.3,2.6-3.3,5.4c0.9,2.5,3.6,3.3,5.9,3.7c3.3,0.6,7,0.3,10,2.1c3.5,2.1,7.1,2.3,10.8,2
				c10.4-0.7,18.2-6.4,25.1-13.5c1.1-1.1,2.3-3.2,3.9-2.2c1.6,0.9,0.3,2.9,0,4.4c-2.6,12.2-3.5,24.1,5,34.7c0.7,0.8,0.9,1.8,0.2,2.6
				c-0.7,0.8-1.4-0.1-2.1-0.4c-1.1-0.4-1.9-1.1-2.7-1.9c-6.5-6.1-9.3-13.5-8.8-22.3c0.1-1.1,0.6-2.4-0.6-3.1c-1.3-0.7-2.1,0.5-3,1.1
				c-3.6,2.2-7,4.9-11.2,5.7c-4.1,0.8-5.4,2.6-4.5,6.7c0.7,3.1-0.1,4.5-3.9,3.2c-6.2-2.1-12.8-2.6-19.3-1.4
				c-3.7,0.6-7.3,1.9-9.4,5.4c-1.2,2.1-1.7,4.2,1.9,4.1c10.3-0.1,19.3,3.9,27.9,9.2c9.6,5.9,19.3,11.5,31.3,10.5
				c1.2-0.1,1.8,0.3,2.2,1.4c0.8,2.1,1.7,4.2,2.6,6.2c0.2,1.1,0.4,2-1.3,1.3c1.7,2.2,3,4.7,3,4.8c3-0.9,5.9-1.9,8.9-2.8
				c9.3-3.1,17.8-7.9,25.5-14C642.8,134.5,644.7,133.2,643.5,130.7L643.5,130.7z"/>
			<path class="st1" d="M606.2,152.6c-0.7,0.2-1.3,0.4-2,0.6C604.9,153,605.6,152.8,606.2,152.6z"/>
			<path class="st1" d="M603.1,153.5c-0.7,0.2-1.3,0.3-2,0.5C601.8,153.8,602.4,153.7,603.1,153.5z"/>
		</g>
		<path class="st6" d="M381,217.9c27.1,22.9,47.5,50.9,62.6,82.8c2,4.2,3.8,4.7,7.7,2.9c10.6-5,21-10.4,30.2-17.7
			c2.2-1.8,4.5-3.7,7.8-4.5c-1.7,13.9-7.9,25.8-14,37.9c-4.4,8.7-11.3,12.8-20.4,15.4c-12,3.5-23.5,8.7-34.2,15.3
			c-4.1,2.5-7.6,3-10.4-1.4c-4.8-7.5-11.5-3.8-17.7-3.1c-2.3,0.2-5.7,2.1-6.7,0.5c-1.5-2.4,2.1-3.9,3.6-5.5
			c13-13.9,20.3-30.2,20.7-49.2c0.3-14.9-3.5-28.9-9.9-42.3c-5.3-11.1-12.3-20.9-20.7-29.8C379.5,218.1,379.9,217.7,381,217.9
			L381,217.9z"/>
		<path class="st7" d="M443.3,6.5c13.9-0.7,14.4-0.8,16.2,11.3c2.2,13.8,6.6,26.8,11.5,39.7c2.2,5.8,2.2,5.6-3.9,6.2
			c-14.2,1.4-28.4,3.7-42.2,7.5c-3,0.8-4-0.1-5.1-2.4c-6.1-12.5-12.2-25.1-18.5-37.6c-2-3.9-4.2-7.7-6.5-11.4
			c-1.8-2.8-1.4-4.3,1.8-5.4c9.4-3.2,19-5.7,28.9-6.7C431.7,7.1,437.9,6.1,443.3,6.5L443.3,6.5z"/>
		<path class="st5" d="M245.5,181.1c4.7,0.2,9.4-0.4,14.1,0.4c2.8,0.5,3.5,1.6,2.2,4.3c-3.5,6.9-4.8,14.4-6.1,22
			c-0.3,1.6-0.5,2.7-2.2,3.4c-9.1,3.4-15.2,10.3-20.1,18.3c-1.9,3.1-3.5,4.8-6.6,1.6c-4.1-4.1-10.7-3.4-14.8-7.8
			c-0.8-0.8-1.7,0.5-2.3,1.2c-2.8,3.2-5.6,2.9-9,0.6c-8.9-5.9-14.6-20.8-11.7-31.1c0.9-3.2,3.8-3.8,6.2-4.9c8.8-4,18.3-5.4,27.8-6.7
			C230.5,181.3,238,180.6,245.5,181.1L245.5,181.1z"/>
		<path class="st7" d="M460.4,81.1c6.3,0,12.6,0.2,19,0c2.9-0.1,4.9,1,6.5,3.4c2.1,3.1,4.4,6,6.5,9c3,4.3,7.7,3.4,11.9,4.1
			c2.3,0.7,4.6,0.7,6.9,0c2.3-0.4,4.5-0.5,7,1.2c-4.8,0.8-9.5,1.8-14.3,2.4c-31.5,3.6-63.3,2.8-94.9,4.9
			c-11.3,0.8-22.5,2.2-33.7,4.2c-1.2,0.3-2.6,1.2-3-0.9c11.1-4.8,23-6.4,34.8-8.2c7.1-1.1,14.2-1.8,21.3-2.5
			c2.5-0.2,3.7-0.7,2.3-3.5c-1.1-2.2-1.9-4.5-2.6-6.8c-0.6-2.2-2.2-3-4-2.4c-7.7,2.6-15.9,4-23.2,7.8c-1.2,0.3-1.6-0.3-1.4-1.4
			c14.4-8.9,30.3-13.5,46.6-17.2c13.4-3.1,27-4.1,40.6-4.6c4.7-0.2,9.4,0.5,14.1,1.1c1.7,0.2,4,1,3.7,3.2c-0.3,2.3-2.6,1.4-4,1.4
			c-14.6,0-29.2,1.1-43.8,2.8c-1.1,0.1-2.1,0.6-3.2,0.9c-1,1.1-2.4,0.9-3.6,1C453.3,81.1,456.8,82.2,460.4,81.1L460.4,81.1z"/>
		<path class="st6" d="M540.4,308c-4.5-0.2-10.1-0.5-15.6-0.7c-1.9-0.1-3.3-0.6-2.7-2.9c0.5-1.8-0.1-4.3,3.4-4.1
			c23.9,1.4,47-2.3,69.2-11.3c21.4-8.7,38.3-22.7,50.7-42.3c11.1-17.6,15.4-37,17.5-57.2c0.4-3.4,0-8.3,5-7.9
			c4.5,0.4,3.8,4.9,3.8,8.2c-0.3,37.8-14.6,69.1-45,92c-16.2,12.2-34.9,19.2-54.8,23.2C561.9,307.1,551.6,307.5,540.4,308L540.4,308
			z"/>
		<path class="st8" d="M139.8,284c0.3-20.1,6.4-36.5,17.5-51.3c6.1-8.2,13.6-14.7,22.1-20.2c1.9-1.3,3.5-2.8,5.1,0
			c1.3,2.4,2.8,5.1-0.7,7.2c-13.9,8.6-23.4,20.9-29.6,35.7c-8.7,21-7.7,41.5,4.7,60.9c3.1,4.9,7.1,9.3,11.6,13.1
			c1.6,1.3,3.1,2.9,4.4,4.5c1.1,1.4,2.2,3.2,1.1,4.9c-1.2,1.9-3.4,0.8-4.9,0.4c-3.1-0.7-5.3-3.1-7.5-5.2
			c-11-10.4-19.1-22.5-22.1-37.6C140.6,291.8,140.2,287.1,139.8,284L139.8,284z"/>
		<path class="st9" d="M410.2,118.2c-10.1,2.9-20.5,4.7-30.2,9c-6.7,2.9-13.3,6-18.5,11.4c-6.8,7.1-7.9,11.7-3.9,20.5
			c1.4,3,1.1,4.7-1.6,6.4c-1.2,0.7-2.5,1.9-3,3.1c-2.2,5.4-4.8,3.1-8.3,1.1c-12.2-7.3-14.4-26.5,0.6-36.5
			c11.8-7.8,24.7-12,38.4-14.1c6.1-0.9,12.3-1.3,18.4-2C404.8,117.2,407.8,115.2,410.2,118.2L410.2,118.2z"/>
		<path class="st6" d="M660.6,147.8c0,1.6-1.1,3.5-2.8,4.8c-15.1,12-32.2,19-51.4,20.9c-1.2,0.1-2.6,0.4-3-0.9
			c-1.6-4.2-3.4-8.4-4.3-12.9c-0.5-2.4,2.6-1.9,4.1-2.1c10-1.5,19.7-4.1,28.7-8.6c9-4.5,16.6-10.6,22.5-18.8
			c0.6-0.9,1.1-2.3,2.3-2.1c1.5,0.2,1.8,1.7,2,3C659.4,136.5,660,141.9,660.6,147.8L660.6,147.8z"/>
		<path class="st6" d="M189.2,343.1c-0.2-2.6,0.2-4.4,2.1-6c3.3-2.9,3.8-6.4,0.5-9.7c-1.2-1.2-1.5-2.6-1.1-4
			c3.6-17.1,11.2-31.8,25.2-42.7c3.6-2.8,11.2-0.4,13.1,3.9c0.9,2-1.1,2.6-2,3.4c-8.9,8.2-15.4,17.8-19.1,29.4
			c-3.1,9.6-4.1,19.4-2.7,29.3c0.4,3-0.4,3.7-2.9,3c-3.3-0.9-6.8-0.7-10-2.3C190.2,346.4,188.3,345.5,189.2,343.1L189.2,343.1z"/>
		<path class="st5" d="M224.7,175c-4.5,0.9-9.1,0.7-13.6,1c-2.5,0.2-3.1-0.7-3-3c0.4-6.4,2.1-12.6,5.6-17.9c3.5-5.3,7.8-6.4,14-4.1
			c11.9,4.2,22.4,10.9,32.6,18.2c1.5,1,2.9,2.1,4.3,3.2c1.8,1.4,3,2.8,1.9,5.4c-1.2,2.7-3.3,3-5.6,2.5c-3-0.6-6-1.6-9-2.2
			c-4.9-0.9-9.9-1.5-14.9-2.3C232.9,174.7,228.7,176.1,224.7,175L224.7,175z"/>
		<path class="st7" d="M367.6,98.9c-0.1,1.8-1.5,2.6-2.8,3.6c-7.8,5.9-7.9,5.9-11.2-2.9c-5.1-13.4-11.8-25.9-20.4-37.4
			c-3.1-4.1-0.2-11.8,4.8-13.2c2-0.6,3,1,4,2.1c5,5.1,8.6,11.4,12,17.6c4.4,7.9,7.9,16.3,11.6,24.6C366.5,95,367,96.9,367.6,98.9
			L367.6,98.9z"/>
		<path class="st8" d="M506.4,323.1c-2.3,0-3.4,0.8-3.9-0.5c-0.5-1,0.3-1.8,0.9-2.6c4.4-6.4,3.2-11.3-3.5-14.9
			c-9.2-4.8-9.2-5.1-0.5-10.5c2.9-1.8,5.9-3.5,9.1-4.8c3.7-1.6,5-3.2,2.4-7.1c-2.3-3.7-5-7.3-6.2-11.6c-0.5-1.5-1.2-3.5,0.1-4.6
			c1.5-1.2,3.2,0.2,4.3,1.2c6.3,5.4,9.3,12.8,11.5,20.5c0.6,2.2-1.2,3.2-2.7,4.1c-3.2,1.9-6.5,3.6-9.8,5.4c-1.8,1-2.4,2-0.3,3.5
			c2.6,2,4.8,4.4,7.4,6.3c2.8,2.1,2.9,4.5,1.2,7.1C513.6,318.9,511.8,324.4,506.4,323.1L506.4,323.1z"/>
		<path class="st1" d="M535.4,55.7c6.5-0.2,13,1.9,19.2,4.8c2.5,1.1,2.6,2.4,1.1,4.5c-4,5.6-5.9,6.1-11.9,2.4
			c-3.1-1.9-6.6-2.6-10-3.7c-0.6-0.2-1.3-0.3-1.8-0.6c-2.6-1.2-6.5-2.4-5.7-5.6c0.7-3.1,4.7-1.6,7.2-1.9
			C534,55.5,534.5,55.6,535.4,55.7L535.4,55.7z"/>
		<path class="st10" d="M399.3,272.9c-1.7-12.5-5.5-24.3-12-35.2c4.6,3,5.6,8.3,8.2,12.6c4.9,6.4,4.5,13.9,4.4,21.3
			C400,272.1,399.8,272.6,399.3,272.9L399.3,272.9z"/>
		<path class="st11" d="M475.8,272.9c2.5,0.7,6.1-0.1,6.5,2.7c0.2,1.9-3,3.8-5.4,3.8c-2.7,0-4.1-2.7-4.3-5.1
			C472.4,272.2,474.7,273.5,475.8,272.9z"/>
		<path class="st12" d="M399.4,301.1c1.9-9.4,0.3-18.8-0.1-28.2l0.3-0.2c0.3-0.3,0.6-0.3,0.8,0.1c-0.7,4.1,1.6,6.9,3.9,9.8
			c0.6,1.8,1.3,3.5-1.9,2.3c-0.5-0.2-0.4,1.3-1.1,1.6c0,2.9,0,5.9,0,8.8C401.3,297.4,403,300.2,399.4,301.1L399.4,301.1z"/>
		<path class="st12" d="M393.6,317.7c1.9-5.3,3.8-10.6,5.7-15.8c1,1,0.8,2.1,0.2,3.2C400.2,310.5,398.9,315,393.6,317.7z"/>
		<path class="st13" d="M400.4,272.8c-0.3,0-0.5,0-0.8-0.1c0-7.7-0.7-15.3-4.1-22.4c3.3,3.1,5,6.9,4.9,11.5
			C400.4,265.4,400.4,269.1,400.4,272.8z"/>
		<path class="st13" d="M401.4,286.5c1.2,0-2.5-5,2-1.9c1,0.7,0.6-1.3,0.9-2.1c1,2.2,2,4.3,2.8,6.5c0.4,1.2-0.3,2.3-1.6,2.5
			c-1.5,0.2-1.2-1.1-1.2-2C404.2,287.7,403.4,286.6,401.4,286.5L401.4,286.5z"/>
		<path class="st14" d="M556.7,102.7h-7.9c3.8-4.8,7.5-3.3,11.2-1.2C559.6,104,557.9,102.7,556.7,102.7L556.7,102.7z"/>
		<path class="st9" d="M410.2,118.2c-2.5-1.9-5.5-0.1-8.1-1.1c6.2-1.4,12.5-1.1,18.8-0.7C417.4,117.8,413.9,118.4,410.2,118.2
			L410.2,118.2z"/>
		<path class="st13" d="M399.4,305c-0.1-1-0.1-2.1-0.2-3.2c-0.2-0.3-0.1-0.5,0.1-0.8c2.2-1.4,0-4.4,2.1-5.9c0.5,1.4,6.2,0.2,2,3.9
			c-1.1,0.7-0.8,2.3-2,2.9C400.8,303.1,400.1,304.1,399.4,305L399.4,305z"/>
		<path class="st15" d="M460.4,81.1c-5.2,1.3-10.4,0.7-15.7,0.4c1.1-1,2.3-1.5,3.8-1.3c1.6,0.8,3.4-0.2,5,0.7
			C455.8,81,458.1,81.1,460.4,81.1L460.4,81.1z"/>
		<path class="st7" d="M372.1,109.5c0.8,1.2,2.1,0.4,3,0.9c-1.9,1-3.9,1.7-6,1.8c-0.6-0.5-1.6-0.1-2-1
			C368.5,110.1,370.2,109.5,372.1,109.5z"/>
		<path class="st16" d="M224.7,175c4.1,0.3,8.2-1,12.2,0.8C232.8,175.7,228.7,176.5,224.7,175z"/>
		<path class="st7" d="M399.3,92.5c0.5,0.5,0.9,0.9,1.4,1.4c-1.5,1.3-3.2,2.2-5.1,2.7c-0.5-0.3-1.1-0.4-1.3-1.1
			C395.5,93.9,397.4,93.1,399.3,92.5z"/>
		<path class="st17" d="M381,217.9c-0.4,0.4-0.8,0.8-1.2,1.2c-1.2-1.4-2.5-2.8-3.8-4.2c-0.2-0.9,0.1-1.3,1.1-0.9
			C378.6,215,380.1,216.2,381,217.9L381,217.9z"/>
		<path class="st18" d="M449.3,260.2c-1.1-0.8-2.2-1.7-3.5-2.6c2.1-0.9,3.6-0.3,4.8,1.4C450.2,259.4,449.8,259.8,449.3,260.2z"/>
		<path class="st12" d="M401.4,302.1c0-1.4,0-2.9,2-2.9c-0.1,1.2,0.1,2.6-0.5,3.5C402,304.2,401.6,303.1,401.4,302.1L401.4,302.1z"
			/>
		<path class="st19" d="M556.7,102.7c1.1-0.5,2.5,0.2,3.3-1.2c1.2,0.1,3-0.5,2.8,1.5c-0.2,1.3-1.9,0.7-2.9,0.6
			C558.8,103.5,557.8,103,556.7,102.7z"/>
		<path class="st7" d="M367,111.3c0.7,0.3,1.4,0.7,2,1c-1.3,0.4-2.6,0.8-3.9,1.2c-0.3-0.3-0.4-0.5-0.3-0.8c0.1-0.3,0.1-0.4,0.2-0.4
			C365.5,111.4,366.3,111.3,367,111.3z"/>
		<path class="st7" d="M511.1,97.7c-2.3,1.4-4.6,1.4-6.9,0C506.5,97.7,508.8,97.7,511.1,97.7z"/>
		<path class="st7" d="M394.2,95.5c0.4,0.4,0.9,0.7,1.3,1.1c-1,1-2.1,1.3-3.5,0.8C392.2,96.1,393.3,96,394.2,95.5L394.2,95.5z"/>
		<path class="st20" d="M377.1,214l-1.1,0.9c-0.9-0.6-2.4-1.7-1.6-2.4C375.6,211.3,376.5,212.8,377.1,214z"/>
		<path class="st21" d="M453.4,80.9c-1.7,0-3.5,0.7-5-0.7l4.9-0.2C453.3,80.3,453.4,80.6,453.4,80.9z"/>
		<path class="st22" d="M605.2,146.3c1.3,0.9,1.5,2.6,0.6,3.1c-1.1,0.8-1.5-0.9-1.9-1.8C604.3,147.2,604.8,146.7,605.2,146.3z"/>
		<path class="st7" d="M365.1,112.2c0,0.4,0,0.8,0.1,1.2c-0.8,0.9-2.5,1.3-2.6,0.5C362.3,112.7,364.1,112.6,365.1,112.2z"/>
		<path class="st8" d="M4.9,430.3c-1.3-1.8-1-3.9-1-5.9c7-14.4,18.7-24.3,32.1-32.2c8.3-4.9,17.1-8.6,26.4-11.2
			c3.2-0.9,7.9-3.2,9.5,1.1c1.8,4.9-3.9,4.8-6.6,5.6c-15.2,5-28.8,12.8-40.4,23.6c-4.4,4-8.1,8.8-11.9,13.4
			C10.8,427.5,8.6,429.9,4.9,430.3L4.9,430.3z"/>
		<path class="st23" d="M393.1,398.8c0.8-1.2,1.6-2.5,2.4-3.7c0.8-0.3,1.3-0.1,0.9,0.9c0,1.6-0.5,3.1-1.8,4.3
			C394.2,399.7,393.7,399.2,393.1,398.8L393.1,398.8z"/>
		<path class="st24" d="M265.9,351.9c16.6,16,35.2,22.8,56.8,21.4c0.9-0.1,2.1-0.8,2.5,0.6c0.4,1.6-1.1,1.8-2.1,2.2
			c-7.5,3.2-15.1,4.1-23.3,2.4c-12-2.6-22.3-7.6-29.8-17.6C268.2,358.6,266.5,356.4,265.9,351.9z"/>
		<path class="st18" d="M270.3,381.3c10.5,3.1,21.2,5.2,32.5,3c-4.9,7-21.7,5.9-33.6-1.9C268.9,381.5,269.2,381,270.3,381.3
			L270.3,381.3z"/>
		<path class="st25" d="M270.3,381.3c-0.4,0.4-0.8,0.8-1.1,1.2c-1.4-0.5-2.4-1.5-3.1-3.3C267.9,379.4,269.1,380.4,270.3,381.3
			L270.3,381.3z"/>
		<path class="st26" d="M396.4,395.9c-0.3-0.3-0.6-0.6-0.9-0.9c-0.3-1.2,0.1-2.1,1.1-2.7c0.2-0.1,1,0.2,1,0.4
			C397.8,394,397.8,395.2,396.4,395.9L396.4,395.9z"/>
		<path class="st8" d="M669.7,455.8c-1.6-0.4-3.6-0.2-4.2-2.4c-0.5-2.2,0.9-3.4,2.6-4.1c4.8-2,9.6-3.9,14.5-5.8
			c17.2-6.9,30.7-18.5,41.8-33.1c2.2-2.8,4.6-7.8,8.6-4.4c3.1,2.6,0,7-2.1,10c-11,15.5-25.7,26.3-43,34
			C682,452.5,676.2,454.7,669.7,455.8L669.7,455.8z"/>
		<path class="st27" d="M400.8,142.8c-0.3,1.8-0.9,3.9-3.9,2.7c-3.5-1.3-6.9-2.8-10.3-4.2c-1.7-0.7-2.6-1.9-1.9-3.8
			c0.7-1.9,2-2.2,3.9-1.5c3.3,1.3,6.6,2.4,9.9,3.7C399.6,140.1,401,140.5,400.8,142.8L400.8,142.8z"/>
		<path class="st28" d="M392.5,154.1c-0.8,1.9-1.7,3.7-4.2,2.6c-3.2-1.5-6.4-3.1-9.5-4.9c-1.3-0.7-2.3-2-1.2-3.7
			c1-1.6,2.1-2.2,4-1.2c2.7,1.4,5.6,2.5,8.4,3.8C391.2,151.3,392.2,152.4,392.5,154.1L392.5,154.1z"/>
		<path class="st29" d="M316.7,352c-4.9-0.6-9.7-1.7-14-4c-1.3-0.7-2.6-1.6-1.9-3.4c0.8-1.9,2.1-0.7,3.2-0.3c6.4,2.1,13,3,19.6,1.5
			c0.8-0.2,1.7-0.7,2,0.4c0.2,0.7,0,1.7-0.4,2.3C323.2,351.4,319.8,351.5,316.7,352L316.7,352z"/>
		<path class="st30" d="M338.8,330.7c-5.4,4.7-17.4,4-21.5-0.9c-0.8-0.9-1.5-1.8-0.6-3c0.7-1,1.6-1.7,2.9-1c3,1.6,6.2,2.8,9.6,3.3
			C332.2,329.7,335.4,330.2,338.8,330.7L338.8,330.7z"/>
		<path class="st31" d="M337,339.6c4.2-2.5,8.9-0.6,13.2-2c2.8-0.8,5.7-1,8.3-2.6c0.8-0.5,1.5-0.7,2.2,0c0.7,0.7,0.5,1.4,0.1,2.2
			C357.9,342.6,341.6,344.3,337,339.6L337,339.6z"/>
		<path class="st32" d="M276.9,277.5c1.4,0.2,2,1.2,2.5,2.2c0.8,1.6,1.5,3.2,2.4,4.7c0.6,1.2,3,2.1,1.8,3.4
			c-1.5,1.6-3.2-0.3-4.7-1.1c-2.2-1.3-3.3-3.5-3.9-5.9C274.7,279.3,275.3,278,276.9,277.5L276.9,277.5z"/>
		<path class="st32" d="M301.6,337c-1.6-0.4-3.3-0.5-4.7-1.2c-1.7-0.9-4.5-2.2-3.4-4.5c1.2-2.6,3.3,0.1,4.9,0.4
			c1.2,0.3,2.5,0.8,3.6,1.3c1.2,0.5,3.5,0.1,3.4,2C305.4,337.3,302.8,336.1,301.6,337L301.6,337z"/>
		<path class="st33" d="M346.5,314.9c1.8-0.1,3.6,0,5.3,0.7c-2.7,0.4-5.3,0.8-9.4,1.4C344.6,315.9,345.6,315.4,346.5,314.9z"/>
		<path class="st33" d="M336.3,316.4c1.5-0.8,2.5-0.8,3.5-0.2C338.9,317.1,337.9,316.8,336.3,316.4z"/>
		<path class="st34" d="M563.3,86.6c0.9-3.9,4.3-6.3,6.5-9.3c2.2-3,4.6-5.9,7.1-8.5c1.2-1.2,2.9-2.2,4.7-0.6c1.8,1.7,0.2,3-0.7,4.1
			c-3.9,4.7-7.9,9.4-12.7,13.3C567,86.6,565.5,87.8,563.3,86.6L563.3,86.6z"/>
		<path class="st18" d="M412.9,345c-1.6-0.9-3.9-1.4-3.4-3.9c0.5-2.4,1.5-5,4.7-4.5c1.9,0.3,4.4,0.5,4.2,3.6
			C418,343.4,415.4,344.1,412.9,345L412.9,345z"/>
		<path class="st35" d="M428.5,323.9c2.2,0.9,4.4,1.8,4.1,4.7c-0.3,2.9-2.5,3.7-4.9,3.8c-2.5,0.1-4.2-1.7-4.1-3.9
			C423.7,325.9,426.1,324.7,428.5,323.9L428.5,323.9z"/>
		<path class="st18" d="M439.3,310.6c2.4,0.5,4.1,1.7,3.9,4.3c-0.2,2.5-1.7,4.3-4.5,4c-2.4-0.3-3.8-2-3.5-4.4
			C435.4,312.1,436.9,310.8,439.3,310.6L439.3,310.6z"/>
		<path class="st31" d="M219.3,215c6.7-6.9,14.6-11.6,24.1-13.3c1.6-0.3,3.7-0.2,4.2,1.4c0.5,1.7-1.6,2.2-3,2.6
			c-8.5,2.1-16.1,6.3-24.1,9.5C220.1,215.5,219.7,215.4,219.3,215z"/>
		<path class="st36" d="M219.3,215c0.4,0.1,0.8,0.1,1.2,0.1c-1.1,2.9-3.6,4.2-7.2,6.1C214.9,217.7,216.8,216,219.3,215z"/>
		<path class="st35" d="M656.9,146.9c-1.2,1.8-1.8,4.6-4.7,4.2c-2.2-0.2-4.2-1.8-3.8-4.2c0.3-2.1,1.5-4.5,4.3-4.3
			C655.1,142.9,656.1,144.8,656.9,146.9L656.9,146.9z"/>
	</g>
</g>
<path class="st37" d="M250.9,387.2c0,0,27.7,7.7,46.6,0.4c0,0,20.2-0.9,27.6-13.7c0,0,9-4.1,11.9-10.9"/>
<g>
	<path class="st38" d="M512.1,174.1c1,5,5.3,8.7,9.8,11.1c2.4,1.3,5.3,2.8,5.6,5.6c0.3,3.2-3.5,5.8-3,9c0.2,1.1,0.8,2.3,0.3,3.2
		c-0.5,0.8-1.6,1-2.6,0.8s-1.8-0.6-2.8-0.7"/>
	<path class="st38" d="M509.1,203.1c-1.7,0.1-3.3,0.7-4.7,1.7"/>
	<path class="st38" d="M495.4,195.4c0.5,1.1-0.6,2.4-1.7,2.9s-2.5,0.7-3.4,1.5c-1.2,1.1-1.1,3.1-0.3,4.4s2.3,2.2,3.9,2.6
		s3.1,0.7,4.6,1.1"/>
	<path class="st38" d="M441.7,129.5l25.3-8c3.8-1.2,7.8-2.4,11.7-1.8c1.9,0.3,3.7,1,5.6,1.2c2.1,0.2,4.1-0.4,6.1-0.9l12.1-3.1
		c2.4-0.6,4.8-1.2,7.3-1.1s5,1.2,6.4,3.2"/>
	<path class="st38" d="M434.2,144c10.9,0.2,20.4-7.1,30.1-12.1c4.3-2.2,8.9-4.1,13.7-4c4.6,0.1,9.1,2,13.7,1.6
		c2-0.2,3.9-0.8,5.8-1.3c6-1.4,12.3-1,18.5-0.5"/>
	<path class="st38" d="M445.6,153.4c3.1-0.5,5.6-2.8,8.1-4.6c5.8-4.3,12.8-6.8,20-7.1"/>
	<path class="st38" d="M506.7,138.6c0.6-2.1,2.7-3.4,4.8-4.2c5.9-2.2,12.5-1.6,17.8,1.7"/>
	<path class="st38" d="M480.4,150c2.1-0.7,4.6,1.1,4.5,3.3"/>
	<path class="st38" d="M510.1,144.1c-1,2.1-0.9,4.6,0.1,6.7"/>
	<path class="st38" d="M489.7,226.9c6.2-4,14.2-2.5,21.5-3.3c6.6-0.8,12.9-3.5,19.6-3.8"/>
	<path class="st38" d="M462.9,162.4c1.9,0.2,3.8,0.4,5.7,0.4c4,0,8.4-0.4,11.8,1.9c0.9,0.6,1.7,1.5,1.7,2.6c0,0.9-0.7,1.8-1.4,2.4
		c-1.4,1.2-3.2,2-5,2.3c-1.2,0.2-2.4,0.1-3.6,0.2c-4.3,0.4-6.8,2.4-11.1,1.9c-1.7-0.2-5.1-0.5-5.3-2.1c-0.3-2.3-0.7-5.7,1-7.3
		C458.4,162.9,460.6,162.2,462.9,162.4L462.9,162.4z"/>
	<path class="st38" d="M516,157.5c-0.9,0.9-1.5,2-1.7,3.2c-0.2,2.2,1.5,4.2,3.8,4.4c0.1,0,0.2,0,0.3,0c1.8-0.1,3.5-0.5,5.2-1
		c1.8-0.5,3.8-1,5.5-0.5c3.2,1,7.7,0.5,6.1-3.9c-0.7-2.1-1.6-4.5-3.4-5.9C527.5,150.1,519.2,154.1,516,157.5L516,157.5z"/>
	<path d="M466.4,162.6c-1.5-0.1-2.8,1-3,2.5c-0.2,1.7-0.1,3.5,0.2,5.2l0.2,1c0.3,1.4,1.7,2.4,3.1,2.1l8.5-1.6c1.4-0.3,2.3-1.6,2.1-3
		c0,0,0-0.1,0-0.1l-0.6-3.1c-0.4-1.5-1.7-2.6-3.2-2.7L466.4,162.6L466.4,162.6z"/>
	<path class="st38" d="M466.4,162.6c-1.5-0.1-2.8,1-3,2.5c-0.2,1.7-0.1,3.5,0.2,5.2l0.2,1c0.3,1.4,1.7,2.4,3.1,2.1l8.5-1.6
		c1.4-0.3,2.3-1.6,2.1-3c0,0,0-0.1,0-0.1l-0.6-3.1c-0.4-1.5-1.7-2.6-3.2-2.7L466.4,162.6L466.4,162.6z"/>
	<path d="M526.2,152.6c-1.2,0.1-2.3,0.7-2.6,1.3s-0.5,2.3-0.4,3.7l0.2,3.8c0.1,1.5,1.3,2.6,2.8,2.6l2.1,0c1.5,0,2.8-0.9,3.1-1.9
		c0.3-1.1,1-2,2-2.6c0.8-0.4,0.9-1.8,0.1-3l-0.3-0.5c-0.8-1.2-2.2-2.6-3.2-3C528.8,152.7,527.5,152.5,526.2,152.6L526.2,152.6z"/>
</g>
<path class="st6" d="M442,283.7c0,0,2.6,7.5,3.8,9.9s3.3,2,3.3,2s11.1-3.7,17.2-8c0,0,4-1.9,3.2-4s-3.8-8.5-6.2-7.5
	S444.9,281.9,442,283.7z"/>
<path d="M437.1,277.6c0,0,10.2-3.5,12.2-4s3.1,2,3.1,2l7.7,1.4c0,0-18.5,6.1-20.3,7.9S437.1,277.6,437.1,277.6L437.1,277.6z"/>
<path class="st11" d="M423.1,251.3c0,0,22.6,5.2,25.6,7.4s9.8,5.8,10.6,10.5c0,0-11.2,6.4-21,8C438.3,277.2,425.8,257.8,423.1,251.3
	L423.1,251.3z"/>
<path d="M410.5,236.8c0,0,35.8,25,67.7,29.1l-14.8,3.9c0,0-40.2-16.2-48.5-23.7C406.6,238.6,410.5,236.8,410.5,236.8L410.5,236.8z"
	/>
<circle class="st6" cx="343.8" cy="265" r="38.9"/>
<g>
	<path class="st39" d="M345.4,286.2c-0.8,1-1.6,1.9-2.6,2.7c-0.9,0.9-1.9,1.5-2.9,2s-2,0.8-3,0.7s-2-0.4-2.9-1.1s-1.4-1.6-1.4-2.6
		c0-1,0.6-2.1,1.6-3.5c0.6-0.8,1.4-1.6,2.2-2.4c0.9-0.8,1.5-1.5,2-2c0.8-1,1-1.7,0.5-2.1c-0.2-0.2-0.5-0.2-0.8-0.2
		c-0.3,0.1-0.7,0.3-1.1,0.6c-0.5,0.3-1,0.8-1.7,1.4c-1.5,1.3-2.9,2.3-4,3c-1.1,0.7-2.2,1-3.1,0.9c-1-0.1-2-0.5-3.1-1.4
		c-1.1-0.9-1.9-1.9-2.4-3.1s-0.6-2.4-0.5-3.6c0.1-1.3,0.4-2.5,0.8-3.8c0.5-1.3,1-2.5,1.7-3.7s1.4-2.2,2.1-3.1c1.7-2.1,3.4-3.5,5-4.1
		c1.7-0.7,3.2-0.5,4.5,0.6c1,0.8,1.4,1.8,1.4,3c0,1.2-0.6,2.6-1.8,4.1c-0.4,0.5-0.9,1.1-1.5,1.7c-0.6,0.6-1.1,1.2-1.7,1.8
		c-0.5,0.5-1,1-1.2,1.4c-0.4,0.5-0.7,1-0.8,1.3c-0.1,0.4,0,0.6,0.2,0.8c0.2,0.1,0.4,0.2,0.7,0.2c0.3,0,0.6-0.2,1.1-0.5
		c0.5-0.3,1.1-0.8,1.8-1.4c1.9-1.6,3.5-2.7,5-3.4c1.4-0.7,2.7-1,3.8-0.9c1.1,0.1,2.2,0.6,3.2,1.4c1.3,1,2.1,2.4,2.5,4
		c0.3,1.6,0.2,3.4-0.5,5.3S346.9,284.2,345.4,286.2L345.4,286.2z M349.1,288.2c-0.8,1-1.6,1.5-2.4,1.6c-0.8,0.1-1.6-0.2-2.4-0.8
		c-0.6-0.5-1.1-1-1.5-1.5c-0.4-0.5-0.6-1-0.8-1.5l3.5-4.4c0.5,0.1,1.1,0.4,1.8,0.8s1.1,0.7,1.5,0.9c0.8,0.6,1.2,1.4,1.4,2.2
		S350,287.2,349.1,288.2L349.1,288.2z M325.8,270.4c-0.5-0.1-1.1-0.4-1.7-0.7s-1.1-0.6-1.4-0.9c-0.8-0.6-1.2-1.4-1.4-2.2
		s0.2-1.8,1-2.8c0.8-1,1.6-1.5,2.4-1.6c0.8-0.1,1.6,0.2,2.4,0.8c0.5,0.5,1,0.9,1.3,1.4c0.3,0.5,0.5,0.9,0.7,1.4L325.8,270.4
		L325.8,270.4z"/>
	<path class="st39" d="M361.8,267.6c-1.4,1.8-2.8,3-4.2,3.6c-1.4,0.7-2.8,0.8-4.4,0.3c-1-0.3-2.1-0.8-3.3-1.5s-2.5-1.6-3.8-2.7
		c-2.1-1.7-3.8-3.2-5.2-4.6c-1.4-1.4-2.4-2.7-3.2-3.9s-1.4-2.3-1.7-3.4c-0.5-1.4-0.4-3.1,0.2-4.9s1.9-4.1,4-6.7
		c1.6-2,3.2-3.4,4.6-4.3c1.4-0.9,2.8-1.3,4-1.2c1.2,0.1,2.3,0.5,3.3,1.3c1.5,1.2,2.3,2.6,2.5,4.3s-0.1,3.5-0.8,5.4l0.1,0.1
		c1.5-1.5,3-2.4,4.6-2.6c1.6-0.2,3.2,0.4,4.9,1.7c1.2,1,2,2.2,2.5,3.8c0.4,1.5,0.5,3.2,0.3,4.9s-0.7,3.6-1.5,5.4
		C364,264.4,363,266.1,361.8,267.6L361.8,267.6z M357.6,260.6c0.5-0.7,0.9-1.3,1.1-2s0.3-1.3,0.1-1.9c-0.1-0.6-0.4-1.1-0.9-1.4
		c-0.6-0.5-1.3-0.6-2-0.4c-0.8,0.2-1.6,0.8-2.4,1.8c-0.7,0.8-1,1.7-1.1,2.6c0,0.9,0.3,1.6,1.1,2.3c0.7,0.5,1.4,0.8,2,0.6
		S356.9,261.5,357.6,260.6L357.6,260.6z M348.2,253c0.8-1,1.2-1.9,1.3-2.9c0.1-0.9-0.2-1.7-0.9-2.2c-0.5-0.4-1.1-0.5-1.9-0.3
		c-0.7,0.2-1.5,0.8-2.2,1.7c-0.7,0.8-1,1.6-1.1,2.4c-0.1,0.8,0.2,1.5,0.9,2c0.6,0.5,1.2,0.7,1.9,0.5S347.6,253.7,348.2,253
		L348.2,253z"/>
</g>
</svg>
